<svg width="165" height="56" viewBox="0 0 165 56" fill="none" xmlns="http://www.w3.org/2000/svg">
<g clip-path="url(#clip0_1094_9016)">
<path d="M130.725 22.6512C134.436 21.9934 136.912 18.4516 136.254 14.7403C135.596 11.0291 132.054 8.55366 128.343 9.2114C124.632 9.86914 122.156 13.4109 122.814 17.1222C123.472 20.8335 127.014 23.3089 130.725 22.6512Z" fill="#FFF5E4"/>
<path d="M141.398 20.0475C145.29 19.3578 147.885 15.6438 147.196 11.752C146.506 7.86031 142.792 5.26457 138.9 5.95428C135.008 6.644 132.413 10.358 133.102 14.2497C133.792 18.1414 137.506 20.7372 141.398 20.0475Z" fill="#FFF5E4"/>
<path d="M125.622 22.7338C121.887 20.5679 120.613 15.7854 122.777 12.0487C124.943 8.31335 129.725 7.03959 133.462 9.20359C137.197 11.3695 138.471 16.152 136.307 19.8887" stroke="#FFAD1E" stroke-width="2.37946" stroke-linecap="round" stroke-linejoin="round"/>
<path d="M136.26 19.9056C132.524 17.7398 131.251 12.9573 133.415 9.22058C135.581 5.48522 140.363 4.21147 144.1 6.37546C147.835 8.54134 149.109 13.3239 146.945 17.0605" stroke="#FFAD1E" stroke-width="2.37946" stroke-linecap="round" stroke-linejoin="round"/>
<mask id="mask0_1094_9016" style="mask-type:luminance" maskUnits="userSpaceOnUse" x="120" y="17" width="37" height="27">
<path d="M141.129 43.0912C150.957 41.3494 157.927 34.3087 156.697 27.3655C155.466 20.4223 146.501 16.2058 136.673 17.9477C126.844 19.6895 119.874 26.7301 121.105 33.6733C122.336 40.6165 131.301 44.833 141.129 43.0912Z" fill="white"/>
</mask>
<g mask="url(#mask0_1094_9016)">
<path d="M142.032 46.2426C154.55 44.0241 163.316 34.4273 161.611 24.8077C159.906 15.1881 148.376 9.18827 135.858 11.4068C123.34 13.6253 114.574 23.2221 116.279 32.8417C117.984 42.4614 129.514 48.4612 142.032 46.2426Z" fill="#FFAD1E"/>
<path d="M120.945 34.1119C120.498 32.1297 120.821 29.9845 121.742 27.8623C121.908 27.4777 122.098 27.0939 122.303 26.7124C122.349 26.6266 122.394 26.5392 122.442 26.4532C122.449 26.5592 122.453 26.6675 122.46 26.7736C122.495 27.2564 122.537 27.7378 122.586 28.2165C123.015 32.3889 124.023 36.4124 125.634 40.2828C123.207 38.6731 121.498 36.5626 120.945 34.1119ZM134.85 43.4712C132.731 38.5147 131.172 33.5035 130.241 28.4289C130.159 27.9843 130.084 27.5385 130.011 27.0922C129.939 26.6506 129.873 26.2082 129.81 25.7634C129.61 24.3271 129.459 22.8838 129.361 21.4361C129.309 20.6788 129.275 19.92 129.254 19.1589C129.432 19.0333 129.615 18.9116 129.797 18.7902C131.533 17.6236 133.446 16.6205 135.477 15.8542C135.522 17.1942 135.596 18.5205 135.705 19.8342C135.716 19.948 135.721 20.0627 135.731 20.1765C135.795 20.8986 135.866 21.6178 135.95 22.3314C135.956 22.3864 135.964 22.4395 135.97 22.4946C136.035 23.048 136.106 23.597 136.184 24.1449C137.138 30.9167 139.002 37.3372 141.768 43.4096C139.423 43.736 137.078 43.7419 134.85 43.4696L134.85 43.4712ZM156.808 25.019C158.347 31.8423 155.339 37.8793 149.16 41.1282C146.255 34.0449 144.303 26.4688 143.407 18.3503C143.267 17.0819 143.154 15.8019 143.065 14.5078C143.061 14.4458 143.058 14.3835 143.053 14.3215C143.093 14.3211 143.135 14.3185 143.175 14.3181C144.069 14.3132 144.933 14.3766 145.767 14.5047C151.337 15.3559 155.472 19.1028 156.806 25.0193L156.808 25.019Z" fill="#FFE5B8"/>
</g>
<path d="M142.081 43.3294C151.783 40.9069 158.225 33.2459 156.47 26.2181C154.715 19.1902 145.428 15.4569 135.727 17.8793C126.025 20.3018 119.583 27.9628 121.338 34.9907C123.092 42.0185 132.38 45.7519 142.081 43.3294Z" stroke="#FFAD1E" stroke-width="2.37946" stroke-linecap="round" stroke-linejoin="round"/>
<path d="M151.438 27.1319C152.047 27.0239 152.391 26.0874 152.205 25.0402C152.019 23.993 151.375 23.2316 150.766 23.3396C150.156 23.4476 149.813 24.3841 149.998 25.4313C150.184 26.4786 150.828 27.24 151.438 27.1319Z" fill="#FFAD1E"/>
</g>
<path d="M32.943 38.2523C32.7831 37.9307 32.3939 37.7991 32.0723 37.959C31.023 38.4798 29.9904 39.0702 29.0018 39.7121C28.9565 39.7413 28.9166 39.7757 28.882 39.8126C28.6826 40.0254 28.6456 40.3547 28.8113 40.6099C29.0062 40.9105 29.4085 40.9954 29.7091 40.8004C30.6575 40.185 31.6473 39.6211 32.6511 39.1216C32.9726 38.9617 33.1042 38.5725 32.9443 38.2509L32.943 38.2523ZM47.6928 52.9347C47.92 53.2118 47.8791 53.6219 47.6007 53.8479C47.3222 54.0738 46.9135 54.0342 46.6875 53.7557C45.923 52.8188 45.2656 51.8003 44.736 50.7274C44.6129 50.4787 44.6656 50.1873 44.8446 49.9963C44.8971 49.9403 44.959 49.8933 45.0307 49.8579C45.3536 49.6993 45.7415 49.8323 45.9001 50.1526C46.3858 51.1383 46.9876 52.0739 47.6914 52.9334L47.6928 52.9347ZM41.0883 36.4604C39.9901 36.6177 38.8758 36.8496 37.781 37.1536C37.4349 37.2495 37.0777 37.0454 36.9832 36.7006C36.9216 36.4737 36.9868 36.2427 37.1365 36.0831C37.2157 35.9985 37.3182 35.9357 37.4375 35.9014C38.5848 35.5851 39.7529 35.3395 40.9064 35.1752C41.2619 35.1239 41.59 35.37 41.6412 35.7255C41.6911 36.0797 41.4451 36.4078 41.0909 36.4603L41.0883 36.4604ZM62.2852 52.6366C62.6127 52.782 62.7601 53.1662 62.6146 53.4937C62.0868 54.6776 61.3616 55.6919 60.4447 56.5035C60.1773 56.7423 59.7677 56.7172 59.5275 56.4485C59.2899 56.1797 59.3095 55.765 59.5824 55.5313C60.3564 54.8395 60.9767 53.978 61.4294 52.9646C61.4602 52.8961 61.5006 52.8366 61.5492 52.7848C61.7333 52.5883 62.0275 52.5206 62.2879 52.6365L62.2852 52.6366ZM25.3918 44.2092C25.003 44.5803 24.6264 44.9602 24.2594 45.3518C23.8466 45.7978 23.4611 46.2309 23.0869 46.6849C22.8462 46.9745 22.4489 47.0019 22.173 46.774C21.897 46.5462 21.856 46.1361 22.0838 45.8602C22.472 45.3885 22.8804 44.9255 23.2985 44.4794C23.6735 44.0902 24.0843 43.6628 24.4949 43.2712C24.7542 43.0247 25.1659 43.0338 25.4137 43.2917C25.6602 43.5509 25.6534 43.9546 25.3932 44.2104L25.3918 44.2092ZM54.7902 58.4488C53.6091 58.3746 52.4117 58.0417 51.2301 57.4622C50.9088 57.3046 50.7744 56.9147 50.9347 56.5933C50.9645 56.5342 51.0012 56.4814 51.0446 56.435C51.2339 56.2331 51.5413 56.1675 51.8048 56.2966C52.8318 56.8004 53.8651 57.0897 54.8725 57.1523C55.2304 57.1751 55.5024 57.4838 55.4796 57.8417C55.4569 58.2023 55.1481 58.4716 54.7902 58.4488ZM22.5234 88.7011C22.7066 89.0087 22.6046 89.4128 22.2982 89.5921C21.9906 89.7753 21.5919 89.6758 21.4072 89.367C20.8114 88.3703 20.246 87.3329 19.7264 86.2822C19.6019 86.0322 19.6547 85.7408 19.8337 85.5498C19.8848 85.4952 19.9468 85.4482 20.0184 85.4128C20.34 85.2529 20.7292 85.3845 20.8891 85.7061C21.3944 86.7255 21.9443 87.733 22.5221 88.7025L22.5234 88.7011ZM20.0466 51.2495C19.5244 52.2414 19.0514 53.2793 18.6384 54.3325C18.5089 54.6648 18.1306 54.8305 17.797 54.6997C17.4634 54.569 17.299 54.192 17.4298 53.8584C17.8585 52.761 18.354 51.68 18.8959 50.6452C18.9246 50.5927 18.9588 50.5452 18.9985 50.5029C19.1928 50.2956 19.5096 50.2337 19.7747 50.372C20.0923 50.5389 20.2135 50.9319 20.0479 51.2481L20.0466 51.2495ZM18.7445 80.5951C18.8626 80.9339 18.6828 81.3035 18.344 81.4217C18.0052 81.5398 17.6355 81.36 17.5161 81.0225C17.131 79.9158 16.7862 78.7854 16.4905 77.6625C16.4316 77.4382 16.497 77.2099 16.644 77.053C16.7246 76.967 16.8296 76.9015 16.9516 76.8697C17.2979 76.7791 17.6526 76.9859 17.7445 77.3335C18.0312 78.4249 18.3671 79.5239 18.7419 80.5979L18.7445 80.5951ZM17.0818 59.6137C16.8566 60.707 16.6829 61.8385 16.5635 62.9721C16.5261 63.3265 16.2051 63.5869 15.8507 63.5495C15.4936 63.5121 15.2358 63.191 15.2719 62.8353C15.3952 61.6592 15.5768 60.4866 15.8112 59.3506C15.8363 59.228 15.8938 59.123 15.9731 59.0384C16.1227 58.8788 16.3489 58.7987 16.578 58.8468C16.9283 58.9188 17.155 59.262 17.0831 59.6123L17.0818 59.6137ZM16.6859 71.895C16.7292 72.2508 16.4805 72.5763 16.1234 72.621C15.7677 72.6669 15.4434 72.4141 15.3975 72.0584C15.2471 70.8899 15.1481 69.7105 15.0974 68.5532C15.0902 68.3722 15.1575 68.2047 15.2726 68.0819C15.3877 67.9591 15.5414 67.8853 15.7184 67.877C16.0764 67.8614 16.3791 68.14 16.3947 68.498C16.4429 69.6196 16.5394 70.7607 16.6846 71.8937L16.6859 71.895ZM43.3933 41.1323C43.5237 40.9931 43.7155 40.9115 43.9212 40.93C44.278 40.9594 44.5448 41.2735 44.5154 41.6304C44.4234 42.7512 44.4255 43.8782 44.5233 44.9797C44.5548 45.3372 44.2911 45.6513 43.9336 45.6827C43.5761 45.7141 43.262 45.4505 43.2306 45.093C43.1264 43.919 43.1245 42.7179 43.2221 41.5228C43.2343 41.3702 43.2988 41.2359 43.3947 41.1335L43.3933 41.1323ZM50.1753 35.5641C50.5246 35.648 50.7384 35.9996 50.6531 36.3476C50.5678 36.6956 50.2189 36.9094 49.8695 36.8254C48.7949 36.5666 47.6791 36.3844 46.5529 36.29C46.1947 36.2592 45.9305 35.945 45.96 35.5882C45.9609 35.5763 45.962 35.567 45.9629 35.555C45.8612 35.8057 45.7636 36.0602 45.6727 36.3158C45.5513 36.6531 45.1787 36.8292 44.8413 36.7052C44.504 36.5839 44.3293 36.2125 44.4519 35.8739C44.8561 34.7535 45.3525 33.6606 45.9276 32.6286C45.9539 32.5815 45.9868 32.5381 46.0227 32.4999C46.2221 32.287 46.5457 32.2289 46.8124 32.3764C47.1263 32.5501 47.2396 32.9459 47.0633 33.2599C46.7057 33.9012 46.382 34.5665 46.0918 35.2479C46.2252 35.0756 46.4335 34.9736 46.663 34.9939C47.8543 35.0956 49.0365 35.2861 50.1752 35.5614L50.1753 35.5641ZM85.3297 33.6406C85.0918 33.9327 84.676 33.9197 84.4115 33.6769C83.5687 32.8973 82.7232 32.1151 81.8635 31.3479C81.5965 31.1078 81.5726 30.6985 81.8113 30.4301L81.8228 30.4179C82.0632 30.1614 82.4661 30.1417 82.729 30.3779C83.5941 31.1502 84.4451 31.9376 85.2934 32.7224C85.5566 32.9665 85.5725 33.3761 85.3297 33.6406ZM100.483 43.3042C100.391 43.6484 100.035 43.8558 99.6883 43.7638C98.5808 43.469 97.4536 43.0584 96.3337 42.5443C96.0074 42.3948 95.8653 42.0105 96.016 41.6828C96.0457 41.6184 96.0848 41.5602 96.1321 41.5097C96.3175 41.3119 96.617 41.244 96.8762 41.3639C97.9276 41.8471 98.9865 42.2321 100.022 42.5082C100.369 42.6001 100.574 42.9559 100.482 43.3029L100.483 43.3042ZM78.4705 27.6783C78.2604 27.9708 77.8536 28.033 77.5636 27.8201C76.5881 27.1109 75.6597 26.5047 74.7242 25.9688C74.4142 25.791 74.3048 25.3937 74.4826 25.0837C74.5075 25.0379 74.5393 24.9985 74.5726 24.963C74.7733 24.7488 75.1022 24.6905 75.3691 24.8433C76.3463 25.4029 77.3139 26.033 78.3287 26.7714C78.6186 26.9816 78.6833 27.3883 78.4705 27.6783ZM109.015 43.3479C107.888 43.776 106.71 44.0681 105.509 44.2168C105.153 44.2601 104.829 44.0074 104.785 43.6529C104.759 43.4527 104.829 43.2639 104.955 43.1288C105.055 43.0224 105.192 42.9479 105.348 42.9282C106.445 42.7922 107.523 42.5244 108.552 42.1352C108.886 42.008 109.262 42.1757 109.39 42.5102C109.517 42.8448 109.349 43.2206 109.015 43.3479ZM115.905 37.0181C115.463 38.141 114.797 39.1879 113.925 40.1236L113.924 40.125C113.68 40.3856 113.269 40.4002 113.008 40.156C112.746 39.9105 112.73 39.5009 112.974 39.2377C113.736 38.4192 114.315 37.5115 114.698 36.54C114.729 36.461 114.773 36.3921 114.828 36.3334C115.004 36.1451 115.285 36.0725 115.539 36.1727C115.873 36.3035 116.036 36.6818 115.905 37.0155L115.905 37.0181ZM92.3022 39.4629C92.0934 39.7568 91.688 39.8202 91.3955 39.6101C90.5069 38.9695 89.603 38.2632 88.6307 37.4494C88.3561 37.2202 88.3203 36.8099 88.5495 36.5353C88.5585 36.5257 88.5661 36.5175 88.5751 36.508C88.8091 36.2583 89.1998 36.2324 89.4663 36.454C90.4141 37.2474 91.2936 37.9359 92.1564 38.5575C92.4476 38.7664 92.5137 39.1717 92.3035 39.4642L92.3022 39.4629ZM61.3888 43.8723C61.7075 43.7072 62.0992 43.8334 62.263 44.1509C62.5382 44.6831 62.7743 45.235 62.963 45.7911C63.1633 46.3786 63.313 46.9982 63.4036 47.6315C63.4535 47.9858 63.2088 48.3152 62.8547 48.3676C62.4991 48.4189 62.171 48.1728 62.1198 47.8173C62.0397 47.263 61.9098 46.7235 61.7358 46.2119C61.5663 45.7173 61.3572 45.224 61.1103 44.7492C60.9817 44.498 61.0304 44.2027 61.2132 44.0077C61.2618 43.9558 61.3212 43.9089 61.3889 43.875L61.3888 43.8723ZM58.6263 40.5554C58.3998 40.8352 57.9869 40.8711 57.7123 40.6419C56.8804 39.9545 55.9486 39.3272 54.9466 38.7776C54.6314 38.6052 54.5168 38.2107 54.6891 37.8956C54.7167 37.8471 54.7483 37.8024 54.7854 37.7628C54.9836 37.5514 55.3058 37.492 55.5711 37.6382C56.6459 38.2277 57.644 38.9018 58.5384 39.6401C58.8143 39.868 58.8554 40.2781 58.6263 40.5554ZM52.8842 26.773C52.3472 27.1462 51.8285 27.5493 51.3394 27.97C50.9881 28.2737 50.6478 28.5903 50.3211 28.9171C50.0674 29.1714 49.6573 29.1714 49.403 28.9177C49.1542 28.6691 49.1478 28.2685 49.3869 28.0134C49.392 28.0079 49.3959 28.0038 49.401 27.9984C49.7508 27.6471 50.1142 27.3085 50.4926 26.9841C51.0138 26.5346 51.5687 26.1039 52.1431 25.7043C52.4381 25.4989 52.8426 25.5731 53.0466 25.8668C53.252 26.1618 53.1777 26.5637 52.8841 26.7703L52.8842 26.773ZM70.5066 23.3895C70.4133 23.7352 70.0548 23.9399 69.7092 23.8466C68.6428 23.5571 67.5344 23.3588 66.4145 23.2549C66.0576 23.2228 65.796 22.9058 65.8281 22.5489C65.8418 22.4003 65.9049 22.2673 66.0008 22.165C66.1338 22.0231 66.327 21.9428 66.534 21.9625C67.7282 22.072 68.9112 22.2863 70.0482 22.5934C70.3939 22.6868 70.5999 23.0439 70.5053 23.3909L70.5066 23.3895ZM60.9794 23.4786C59.8757 23.6718 58.7815 23.9533 57.7311 24.3194C57.3923 24.4375 57.0227 24.2577 56.9046 23.9189C56.8229 23.6834 56.8848 23.4314 57.0446 23.2608C57.1137 23.1872 57.203 23.1274 57.3051 23.0923C58.4223 22.7042 59.5834 22.406 60.7567 22.2013C61.1093 22.1396 61.4463 22.3761 61.5068 22.73C61.5685 23.0825 61.332 23.4196 60.9781 23.48L60.9794 23.4786Z" fill="#FFAD1E"/>
<defs>
<clipPath id="clip0_1094_9016">
<rect width="46.0384" height="41.9821" fill="white" transform="translate(112.041 8.92188) rotate(-10.05)"/>
</clipPath>
</defs>
</svg>
