<svg width="165" height="119" viewBox="0 0 165 119" fill="none" xmlns="http://www.w3.org/2000/svg">
<g clip-path="url(#clip0_1095_9366)">
<path d="M130.725 28.6512C134.436 27.9934 136.912 24.4516 136.254 20.7403C135.596 17.0291 132.054 14.5537 128.343 15.2114C124.632 15.8691 122.156 19.4109 122.814 23.1222C123.472 26.8335 127.014 29.3089 130.725 28.6512Z" fill="#FFF5E4"/>
<path d="M141.398 26.0475C145.29 25.3578 147.885 21.6438 147.196 17.752C146.506 13.8603 142.792 11.2646 138.9 11.9543C135.008 12.644 132.413 16.358 133.102 20.2497C133.792 24.1414 137.506 26.7372 141.398 26.0475Z" fill="#FFF5E4"/>
<path d="M125.623 28.7338C121.888 26.5679 120.614 21.7854 122.778 18.0487C124.944 14.3133 129.726 13.0396 133.463 15.2036C137.198 17.3695 138.472 22.152 136.308 25.8887" stroke="#FFAD1E" stroke-width="2.37946" stroke-linecap="round" stroke-linejoin="round"/>
<path d="M136.26 25.9056C132.524 23.7398 131.251 18.9573 133.415 15.2206C135.581 11.4852 140.363 10.2115 144.1 12.3755C147.835 14.5413 149.109 19.3239 146.945 23.0605" stroke="#FFAD1E" stroke-width="2.37946" stroke-linecap="round" stroke-linejoin="round"/>
<mask id="mask0_1095_9366" style="mask-type:luminance" maskUnits="userSpaceOnUse" x="120" y="23" width="37" height="27">
<path d="M141.129 49.0912C150.957 47.3494 157.927 40.3087 156.697 33.3655C155.466 26.4223 146.501 22.2058 136.673 23.9477C126.844 25.6895 119.874 32.7301 121.105 39.6733C122.336 46.6165 131.301 50.833 141.129 49.0912Z" fill="white"/>
</mask>
<g mask="url(#mask0_1095_9366)">
<path d="M142.033 52.2426C154.551 50.0241 163.317 40.4273 161.612 30.8077C159.907 21.1881 148.377 15.1883 135.859 17.4068C123.341 19.6253 114.575 29.2221 116.28 38.8417C117.985 48.4614 129.515 54.4612 142.033 52.2426Z" fill="#FFAD1E"/>
<path d="M120.945 40.1119C120.498 38.1297 120.821 35.9845 121.742 33.8623C121.908 33.4777 122.098 33.0939 122.303 32.7124C122.349 32.6266 122.394 32.5392 122.442 32.4532C122.449 32.5592 122.453 32.6675 122.46 32.7736C122.495 33.2564 122.537 33.7378 122.586 34.2165C123.015 38.3889 124.023 42.4124 125.634 46.2828C123.207 44.6731 121.498 42.5626 120.945 40.1119ZM134.85 49.4712C132.731 44.5147 131.172 39.5035 130.241 34.4289C130.159 33.9843 130.084 33.5385 130.011 33.0922C129.939 32.6506 129.873 32.2082 129.81 31.7634C129.61 30.3271 129.459 28.8838 129.361 27.4361C129.309 26.6788 129.275 25.92 129.254 25.1589C129.432 25.0333 129.615 24.9116 129.797 24.7902C131.533 23.6236 133.446 22.6205 135.477 21.8542C135.522 23.1942 135.596 24.5205 135.705 25.8342C135.716 25.948 135.721 26.0627 135.731 26.1765C135.795 26.8986 135.866 27.6178 135.95 28.3314C135.956 28.3864 135.964 28.4395 135.97 28.4946C136.035 29.048 136.106 29.597 136.184 30.1449C137.138 36.9167 139.002 43.3372 141.768 49.4096C139.423 49.736 137.078 49.7419 134.85 49.4696L134.85 49.4712ZM156.808 31.019C158.347 37.8423 155.339 43.8793 149.16 47.1282C146.255 40.0449 144.303 32.4688 143.407 24.3503C143.267 23.0819 143.154 21.8019 143.065 20.5078C143.061 20.4458 143.058 20.3835 143.053 20.3215C143.093 20.3211 143.135 20.3185 143.175 20.3181C144.069 20.3132 144.933 20.3766 145.767 20.5047C151.337 21.3559 155.472 25.1028 156.806 31.0193L156.808 31.019Z" fill="#FFE5B8"/>
</g>
<path d="M142.081 49.3294C151.783 46.9069 158.225 39.2459 156.47 32.2181C154.715 25.1902 145.428 21.4569 135.727 23.8793C126.025 26.3018 119.583 33.9628 121.338 40.9907C123.092 48.0185 132.38 51.7519 142.081 49.3294Z" stroke="#FFAD1E" stroke-width="2.37946" stroke-linecap="round" stroke-linejoin="round"/>
<path d="M151.438 33.1319C152.047 33.0239 152.391 32.0874 152.205 31.0402C152.019 29.993 151.375 29.2316 150.766 29.3396C150.156 29.4476 149.813 30.3841 149.998 31.4313C150.184 32.4786 150.828 33.24 151.438 33.1319Z" fill="#FFAD1E"/>
</g>
<path d="M32.9421 44.2523C32.7822 43.9307 32.3929 43.7991 32.0714 43.959C31.022 44.4798 29.9894 45.0702 29.0008 45.7121C28.9555 45.7413 28.9156 45.7757 28.8811 45.8126C28.6816 46.0254 28.6446 46.3547 28.8103 46.6099C29.0053 46.9105 29.4075 46.9954 29.7081 46.8004C30.6565 46.185 31.6463 45.6211 32.6501 45.1216C32.9717 44.9617 33.1033 44.5725 32.9433 44.2509L32.9421 44.2523ZM47.6918 58.9347C47.9191 59.2118 47.8781 59.6219 47.5997 59.8479C47.3213 60.0738 46.9125 60.0342 46.6866 59.7557C45.922 58.8188 45.2646 57.8003 44.7351 56.7274C44.6119 56.4787 44.6646 56.1873 44.8437 55.9963C44.8961 55.9403 44.9581 55.8933 45.0297 55.8579C45.3526 55.6993 45.7406 55.8323 45.8991 56.1526C46.3848 57.1383 46.9866 58.0739 47.6904 58.9334L47.6918 58.9347ZM41.0873 42.4604C39.9891 42.6177 38.8748 42.8496 37.78 43.1536C37.4339 43.2495 37.0767 43.0454 36.9822 42.7006C36.9206 42.4737 36.9859 42.2427 37.1355 42.0831C37.2148 41.9985 37.3172 41.9357 37.4365 41.9014C38.5838 41.5851 39.7519 41.3395 40.9054 41.1752C41.2609 41.1239 41.589 41.37 41.6402 41.7255C41.6901 42.0797 41.4441 42.4078 41.0899 42.4603L41.0873 42.4604ZM62.2843 58.6366C62.6118 58.782 62.7591 59.1662 62.6136 59.4937C62.0858 60.6776 61.3607 61.6919 60.4437 62.5035C60.1763 62.7423 59.7667 62.7172 59.5265 62.4485C59.2889 62.1797 59.3086 61.765 59.5814 61.5313C60.3554 60.8395 60.9757 59.978 61.4284 58.9646C61.4592 58.8961 61.4996 58.8366 61.5482 58.7848C61.7324 58.5883 62.0265 58.5206 62.2869 58.6365L62.2843 58.6366ZM25.3908 50.2092C25.002 50.5803 24.6254 50.9602 24.2584 51.3518C23.8456 51.7978 23.4601 52.2309 23.0859 52.6849C22.8452 52.9745 22.4479 53.0019 22.172 52.774C21.8961 52.5462 21.855 52.1361 22.0829 51.8602C22.4711 51.3885 22.8794 50.9255 23.2975 50.4794C23.6725 50.0902 24.0833 49.6628 24.494 49.2712C24.7532 49.0247 25.1649 49.0338 25.4127 49.2917C25.6592 49.5509 25.6525 49.9546 25.3922 50.2104L25.3908 50.2092ZM54.7892 64.4488C53.6081 64.3746 52.4107 64.0417 51.2291 63.4622C50.9078 63.3046 50.7735 62.9147 50.9337 62.5933C50.9635 62.5342 51.0002 62.4814 51.0437 62.435C51.2329 62.2331 51.5403 62.1675 51.8038 62.2966C52.8308 62.8004 53.8641 63.0897 54.8715 63.1523C55.2295 63.1751 55.5014 63.4838 55.4786 63.8417C55.4559 64.2023 55.1471 64.4716 54.7892 64.4488ZM22.5224 94.7011C22.7057 95.0087 22.6037 95.4128 22.2973 95.5921C21.9897 95.7753 21.5909 95.6758 21.4063 95.367C20.8104 94.3703 20.245 93.3329 19.7255 92.2822C19.601 92.0322 19.6537 91.7408 19.8327 91.5498C19.8839 91.4952 19.9458 91.4482 20.0174 91.4128C20.339 91.2529 20.7282 91.3845 20.8881 91.7061C21.3934 92.7255 21.9433 93.733 22.5211 94.7025L22.5224 94.7011ZM20.0456 57.2495C19.5234 58.2414 19.0504 59.2793 18.6374 60.3325C18.5079 60.6648 18.1297 60.8305 17.796 60.6997C17.4624 60.569 17.298 60.192 17.4288 59.8584C17.8576 58.761 18.353 57.68 18.8949 56.6452C18.9237 56.5927 18.9578 56.5452 18.9975 56.5029C19.1918 56.2956 19.5087 56.2337 19.7738 56.372C20.0914 56.5389 20.2126 56.9319 20.0469 57.2481L20.0456 57.2495ZM18.7435 86.5951C18.8616 86.9339 18.6818 87.3035 18.343 87.4217C18.0042 87.5398 17.6346 87.36 17.5152 87.0225C17.1301 85.9158 16.7852 84.7854 16.4895 83.6625C16.4307 83.4382 16.496 83.2099 16.6431 83.053C16.7236 82.967 16.8287 82.9015 16.9507 82.8697C17.297 82.7791 17.6516 82.9859 17.7435 83.3335C18.0303 84.4249 18.3662 85.5239 18.7409 86.5979L18.7435 86.5951ZM17.0808 65.6137C16.8556 66.707 16.6819 67.8385 16.5626 68.9721C16.5251 69.3265 16.2041 69.5869 15.8497 69.5495C15.4926 69.5121 15.2348 69.191 15.2709 68.8353C15.3942 67.6592 15.5758 66.4866 15.8102 65.3506C15.8354 65.228 15.8928 65.123 15.9721 65.0384C16.1217 64.8788 16.348 64.7987 16.5771 64.8468C16.9273 64.9188 17.1541 65.262 17.0821 65.6123L17.0808 65.6137ZM16.685 77.895C16.7282 78.2508 16.4795 78.5763 16.1225 78.621C15.7668 78.6669 15.4424 78.4141 15.3965 78.0584C15.2462 76.8899 15.1471 75.7105 15.0964 74.5532C15.0892 74.3722 15.1565 74.2047 15.2716 74.0819C15.3867 73.9591 15.5404 73.8853 15.7174 73.877C16.0754 73.8614 16.3781 74.14 16.3937 74.498C16.4419 75.6196 16.5384 76.7607 16.6836 77.8937L16.685 77.895ZM43.3923 47.1323C43.5227 46.9931 43.7146 46.9115 43.9202 46.93C44.277 46.9594 44.5438 47.2735 44.5144 47.6304C44.4224 48.7512 44.4245 49.8782 44.5224 50.9797C44.5538 51.3372 44.2901 51.6513 43.9327 51.6827C43.5752 51.7141 43.261 51.4505 43.2296 51.093C43.1254 49.919 43.1236 48.7179 43.2211 47.5228C43.2333 47.3702 43.2978 47.2359 43.3937 47.1335L43.3923 47.1323ZM50.1743 41.5641C50.5236 41.648 50.7374 41.9996 50.6521 42.3476C50.5668 42.6956 50.2179 42.9094 49.8686 42.8254C48.7939 42.5666 47.6781 42.3844 46.5519 42.29C46.1937 42.2592 45.9296 41.945 45.959 41.5882C45.96 41.5763 45.961 41.567 45.9619 41.555C45.8602 41.8057 45.7627 42.0602 45.6717 42.3158C45.5504 42.6531 45.1777 42.8292 44.8403 42.7052C44.503 42.5839 44.3283 42.2125 44.4509 41.8739C44.8551 40.7535 45.3515 39.6606 45.9266 38.6286C45.9529 38.5815 45.9859 38.5381 46.0217 38.4999C46.2211 38.287 46.5447 38.2289 46.8114 38.3764C47.1253 38.5501 47.2386 38.9459 47.0623 39.2599C46.7047 39.9012 46.381 40.5665 46.0909 41.2479C46.2242 41.0756 46.4325 40.9736 46.6621 40.9939C47.8533 41.0956 49.0355 41.2861 50.1742 41.5614L50.1743 41.5641ZM85.3288 39.6406C85.0908 39.9327 84.675 39.9197 84.4105 39.6769C83.5677 38.8973 82.7222 38.1151 81.8626 37.3479C81.5955 37.1078 81.5717 36.6985 81.8104 36.4301L81.8219 36.4179C82.0623 36.1614 82.4651 36.1417 82.7281 36.3779C83.5931 37.1502 84.4441 37.9376 85.2924 38.7224C85.5556 38.9665 85.5715 39.3761 85.3288 39.6406ZM100.482 49.3042C100.39 49.6484 100.034 49.8558 99.6874 49.7638C98.5798 49.469 97.4526 49.0584 96.3327 48.5443C96.0064 48.3948 95.8643 48.0105 96.0151 47.6828C96.0447 47.6184 96.0838 47.5602 96.1312 47.5097C96.3166 47.3119 96.616 47.244 96.8752 47.3639C97.9267 47.8471 98.9856 48.2321 100.021 48.5082C100.368 48.6001 100.573 48.9559 100.481 49.3029L100.482 49.3042ZM78.4695 33.6783C78.2594 33.9708 77.8526 34.033 77.5626 33.8201C76.5872 33.1109 75.6587 32.5047 74.7233 31.9688C74.4132 31.791 74.3038 31.3937 74.4816 31.0837C74.5066 31.0379 74.5384 30.9985 74.5716 30.963C74.7724 30.7488 75.1012 30.6905 75.3681 30.8433C76.3453 31.4029 77.3129 32.033 78.3277 32.7714C78.6176 32.9816 78.6824 33.3883 78.4695 33.6783ZM109.014 49.3479C107.887 49.776 106.709 50.0681 105.508 50.2168C105.152 50.2601 104.828 50.0074 104.784 49.6529C104.759 49.4527 104.828 49.2639 104.954 49.1288C105.054 49.0224 105.191 48.9479 105.347 48.9282C106.444 48.7922 107.522 48.5244 108.551 48.1352C108.885 48.008 109.261 48.1757 109.389 48.5102C109.516 48.8448 109.348 49.2206 109.014 49.3479ZM115.904 43.0181C115.462 44.141 114.796 45.1879 113.924 46.1236L113.923 46.125C113.679 46.3856 113.268 46.4002 113.007 46.156C112.745 45.9105 112.729 45.5009 112.973 45.2377C113.735 44.4192 114.314 43.5115 114.697 42.54C114.728 42.461 114.772 42.3921 114.827 42.3334C115.003 42.1451 115.284 42.0725 115.538 42.1727C115.872 42.3035 116.035 42.6818 115.904 43.0155L115.904 43.0181ZM92.3012 45.4629C92.0924 45.7568 91.687 45.8202 91.3945 45.6101C90.5059 44.9695 89.602 44.2632 88.6298 43.4494C88.3551 43.2202 88.3193 42.8099 88.5485 42.5353C88.5575 42.5257 88.5652 42.5175 88.5741 42.508C88.8081 42.2583 89.1989 42.2324 89.4653 42.454C90.4131 43.2474 91.2926 43.9359 92.1555 44.5575C92.4466 44.7664 92.5127 45.1717 92.3026 45.4642L92.3012 45.4629ZM61.3878 49.8723C61.7066 49.7072 62.0983 49.8334 62.262 50.1509C62.5372 50.6831 62.7734 51.235 62.962 51.7911C63.1623 52.3786 63.312 52.9982 63.4027 53.6315C63.4525 53.9858 63.2079 54.3152 62.8537 54.3676C62.4982 54.4189 62.1701 54.1728 62.1189 53.8173C62.0387 53.263 61.9088 52.7235 61.7348 52.2119C61.5653 51.7173 61.3562 51.224 61.1093 50.7492C60.9808 50.498 61.0294 50.2027 61.2123 50.0077C61.2609 49.9558 61.3202 49.9089 61.3879 49.875L61.3878 49.8723ZM58.6253 46.5554C58.3989 46.8352 57.986 46.8711 57.7113 46.6419C56.8794 45.9545 55.9476 45.3272 54.9456 44.7776C54.6305 44.6052 54.5158 44.2107 54.6882 43.8956C54.7157 43.8471 54.7473 43.8024 54.7844 43.7628C54.9826 43.5514 55.3048 43.492 55.5701 43.6382C56.6449 44.2277 57.643 44.9018 58.5374 45.6401C58.8133 45.868 58.8544 46.2781 58.6253 46.5554ZM52.8832 32.773C52.3463 33.1462 51.8275 33.5493 51.3385 33.97C50.9872 34.2737 50.6468 34.5903 50.3201 34.9171C50.0664 35.1714 49.6563 35.1714 49.402 34.9177C49.1532 34.6691 49.1468 34.2685 49.386 34.0134C49.3911 34.0079 49.3949 34.0038 49.4 33.9984C49.7498 33.6471 50.1132 33.3085 50.4916 32.9841C51.0128 32.5346 51.5677 32.1039 52.1421 31.7043C52.4371 31.4989 52.8417 31.5731 53.0456 31.8668C53.251 32.1618 53.1767 32.5637 52.8831 32.7703L52.8832 32.773ZM70.5056 29.3895C70.4123 29.7352 70.0538 29.9399 69.7082 29.8466C68.6418 29.5571 67.5334 29.3588 66.4135 29.2549C66.0566 29.2228 65.795 28.9058 65.8271 28.5489C65.8408 28.4003 65.904 28.2673 65.9999 28.165C66.1329 28.0231 66.326 27.9428 66.5331 27.9625C67.7272 28.072 68.9102 28.2863 70.0473 28.5934C70.3929 28.6868 70.5989 29.0439 70.5044 29.3909L70.5056 29.3895ZM60.9784 29.4786C59.8747 29.6718 58.7806 29.9533 57.7301 30.3194C57.3913 30.4375 57.0217 30.2577 56.9036 29.9189C56.8219 29.6834 56.8838 29.4314 57.0437 29.2608C57.1127 29.1872 57.2021 29.1274 57.3041 29.0923C58.4213 28.7042 59.5824 28.406 60.7558 28.2013C61.1083 28.1396 61.4454 28.3761 61.5058 28.73C61.5675 29.0825 61.331 29.4196 60.9771 29.48L60.9784 29.4786Z" fill="#FFAD1E"/>
<defs>
<clipPath id="clip0_1095_9366">
<rect width="46.0384" height="41.9821" fill="white" transform="translate(112.041 14.9219) rotate(-10.05)"/>
</clipPath>
</defs>
</svg>
