<svg width="304" height="239" viewBox="0 0 304 239" fill="none" xmlns="http://www.w3.org/2000/svg">
<path d="M139.407 211.457L132.348 218.765C127.629 223.65 121.509 226.207 115.327 226.432" stroke="#DDF6F6" stroke-width="5.61346" stroke-linecap="round" stroke-linejoin="round"/>
<path d="M99.5435 202.871L91.2497 211.457" stroke="#DDF6F6" stroke-width="5.61346" stroke-linecap="round" stroke-linejoin="round"/>
<path d="M91.2505 211.457L82.9568 202.871" stroke="#DDF6F6" stroke-width="5.61346" stroke-linecap="round" stroke-linejoin="round"/>
<path d="M91.2508 211.457L98.3096 218.765C103.029 223.65 109.148 226.207 115.331 226.432" stroke="#DDF6F6" stroke-width="5.61346" stroke-linecap="round" stroke-linejoin="round"/>
<path d="M91.2505 211.457L84.1917 218.765C79.4728 223.65 73.3531 226.207 67.1703 226.432" stroke="#DDF6F6" stroke-width="5.61346" stroke-linecap="round" stroke-linejoin="round"/>
<path d="M99.5433 202.87C104.124 198.128 104.124 190.44 99.5433 185.698C94.9625 180.955 87.5368 180.955 82.9559 185.698C78.375 190.44 78.375 198.128 82.9559 202.87" stroke="#DDF6F6" stroke-width="5.61346" stroke-linecap="round" stroke-linejoin="round"/>
<path d="M51.3882 202.871L43.0984 211.457" stroke="#DDF6F6" stroke-width="5.61346" stroke-linecap="round" stroke-linejoin="round"/>
<path d="M43.0981 211.457L34.8044 202.871" stroke="#DDF6F6" stroke-width="5.61346" stroke-linecap="round" stroke-linejoin="round"/>
<path d="M43.0966 211.457L50.1553 218.765C54.8743 223.65 60.9939 226.207 67.1768 226.432" stroke="#DDF6F6" stroke-width="5.61346" stroke-linecap="round" stroke-linejoin="round"/>
<path d="M43.0981 211.457L36.0394 218.765C31.3204 223.65 25.2007 226.207 19.0179 226.432" stroke="#DDF6F6" stroke-width="5.61346" stroke-linecap="round" stroke-linejoin="round"/>
<path d="M51.3881 202.87C55.969 198.128 55.969 190.44 51.3881 185.698C46.8072 180.955 39.3815 180.955 34.8006 185.698C30.2197 190.44 30.2197 198.128 34.8006 202.87" stroke="#DDF6F6" stroke-width="5.61346" stroke-linecap="round" stroke-linejoin="round"/>
<path d="M2.00002 218.764C6.719 223.649 12.8387 226.206 19.0215 226.431" stroke="#DDF6F6" stroke-width="5.61346" stroke-linecap="round" stroke-linejoin="round"/>
<path d="M165.368 73.5026C165.443 79.1957 167.615 84.8595 171.865 89.1426C180.369 97.711 193.974 97.5236 202.252 88.7161L208.215 82.375" stroke="#FFE5B8" stroke-width="5.61346" stroke-linecap="round" stroke-linejoin="round"/>
<path d="M79.9807 74.6979C80.0561 80.391 82.2282 86.0549 86.478 90.338C94.9814 98.9063 108.586 98.7189 116.865 89.9114L122.828 83.5703" stroke="#FFE5B8" stroke-width="5.61346" stroke-linecap="round" stroke-linejoin="round"/>
<path d="M129.764 76.1914L122.828 83.5704" stroke="#FFE5B8" stroke-width="5.61346" stroke-linecap="round" stroke-linejoin="round"/>
<path d="M122.83 83.5695L115.703 76.3883" stroke="#FFE5B8" stroke-width="5.61346" stroke-linecap="round" stroke-linejoin="round"/>
<path d="M122.827 83.5702L128.893 89.6838C137.396 98.2521 151.001 98.0647 159.28 89.2572C163.371 84.9048 165.396 79.2626 165.368 73.6328" stroke="#FFE5B8" stroke-width="5.61346" stroke-linecap="round" stroke-linejoin="round"/>
<path d="M129.764 76.1905C133.592 72.1162 133.512 65.5961 129.573 61.6303C125.637 57.6667 119.339 57.7498 115.509 61.8281C111.68 65.9024 111.76 72.4225 115.7 76.3883" stroke="#FFE5B8" stroke-width="5.61346" stroke-linecap="round" stroke-linejoin="round"/>
<path d="M257.371 23.1681C257.599 26.5001 255.175 29.3827 251.97 29.6174C248.764 29.8522 245.973 27.3516 245.745 24.0196C245.517 20.6876 247.941 17.805 251.146 17.5702C254.352 17.3355 257.143 19.8361 257.371 23.1681Z" fill="#FFECCC" stroke="#FFAD1E" stroke-width="0.320845"/>
<path d="M243.596 45.5767L243.596 45.5766L243.593 45.5739L225.614 31.5094L223.174 21.2314L229.499 11.1467L239.297 9.52435L248.613 14.3856L244.011 25.8125L243.965 25.9256L244.061 25.9994L251.741 31.8836L251.811 31.9367L251.893 31.9069L256.902 30.0964L257.011 30.057L257.008 29.9413L256.788 19.7374L256.787 19.6761L256.745 19.6315L251.013 13.5154L257.025 6.59093L267.449 3.75351L277.702 10.8169L279.469 20.5236L258.752 54.0239L255.005 55.0156L243.596 45.5767Z" fill="#FFECCC" stroke="#FFAD1E" stroke-width="0.320845"/>
<path d="M233.998 38.9844L229.346 35.6934C222.888 31.1272 221.229 22.0052 225.639 15.3169C230.05 8.63162 238.861 6.91337 245.321 11.4794L249.974 14.7703" stroke="#FFAD1E" stroke-width="5.61346" stroke-linecap="round" stroke-linejoin="round"/>
<path d="M255.385 18.5993L249.971 14.7734" stroke="#FFAD1E" stroke-width="5.61346" stroke-linecap="round" stroke-linejoin="round"/>
<path d="M249.97 14.775L246.275 20.3772" stroke="#FFAD1E" stroke-width="5.61346" stroke-linecap="round" stroke-linejoin="round"/>
<path d="M249.97 14.7742L253.117 10.0048C257.528 3.31949 266.339 1.60123 272.799 6.16726C279.257 10.7335 280.917 19.8555 276.506 26.5438L259.251 52.696C258.22 54.2574 256.163 54.6582 254.655 53.5932L233.998 38.985" stroke="#FFAD1E" stroke-width="5.61346" stroke-linecap="round" stroke-linejoin="round"/>
<path d="M255.385 18.6007C258.373 20.7146 259.142 24.938 257.101 28.032C255.059 31.1261 250.979 31.9222 247.991 29.8083C245.002 27.6945 244.233 23.4711 246.275 20.377" stroke="#FFAD1E" stroke-width="5.61346" stroke-linecap="round" stroke-linejoin="round"/>
<mask id="mask0_929_6405" style="mask-type:luminance" maskUnits="userSpaceOnUse" x="223" y="42" width="78" height="57">
<path d="M300.072 68.4771C300.407 76.1918 296.435 83.3886 289.716 88.7864C282.996 94.1842 273.538 97.7742 262.933 98.2671C252.328 98.7601 242.597 96.0622 235.438 91.3095C228.278 86.5569 223.699 79.7575 223.365 72.0428C223.03 64.3281 227.002 57.1313 233.721 51.7335C240.441 46.3357 249.899 42.7457 260.504 42.2528C271.109 41.7598 280.84 44.4577 287.999 49.2104C295.159 53.9631 299.738 60.7624 300.072 68.4771Z" fill="white" stroke="white" stroke-width="0.320845"/>
</mask>
<g mask="url(#mask0_929_6405)">
<path d="M311.178 64.2909C312.107 85.7222 291.01 104.17 263.971 105.427C236.932 106.684 214.322 90.2677 213.393 68.8364C212.463 47.4051 233.561 28.9573 260.6 27.7004C287.638 26.4435 310.248 42.8595 311.178 64.2909Z" fill="#FFAD1E" stroke="#FFAD1E" stroke-width="0.320845"/>
<path d="M243.82 57.2371C243.825 58.226 243.846 59.2142 243.874 60.2022C243.902 61.1997 243.939 62.2 243.988 63.1965C244.544 74.5191 246.433 85.888 249.513 97.2969L243.82 57.2371ZM243.82 57.2371C243.795 54.0329 243.874 50.8305 244.07 47.6321L243.82 57.2371ZM257.588 55.5287C257.576 54.3074 257.582 53.0792 257.597 51.851C257.597 51.7929 257.597 51.7338 257.597 51.673L257.597 51.6684C257.596 51.6095 257.596 51.549 257.596 51.4884L257.596 51.4874C257.618 49.898 257.666 48.3012 257.733 46.7007L257.733 46.7005C257.739 46.5745 257.746 46.4477 257.753 46.3221L257.753 46.3204C257.76 46.1938 257.767 46.0684 257.772 45.944L257.772 45.9435C257.903 43.1049 258.104 40.2509 258.373 37.3788C253.958 38.4653 249.72 40.09 245.799 42.1063L245.798 42.1067C245.405 42.3058 245.013 42.5071 244.627 42.716C244.468 44.3576 244.329 46.0006 244.23 47.6413L244.23 47.6415C244.034 50.8359 243.956 54.0346 243.98 57.2354L243.98 57.2357C243.986 58.223 244.007 59.2099 244.034 60.1972C244.062 61.1937 244.099 62.1929 244.148 63.1881L244.148 63.1882C244.705 74.5198 246.598 85.899 249.686 97.32C254.222 98.5212 259.063 99.1723 263.997 99.1506C259.869 85.1107 257.725 70.5713 257.588 55.5287ZM257.588 55.5287C257.588 55.5286 257.588 55.5285 257.588 55.5285L257.749 55.5265L257.588 55.5287ZM227.698 60.5253C227.45 69.6171 228.423 78.5599 230.663 87.342C226.221 83.2098 223.378 78.2689 222.909 72.95L222.879 72.6104C222.58 68.2899 223.847 63.8419 226.306 59.5926L226.306 59.5924C226.762 58.8017 227.265 58.021 227.804 57.2474C227.816 57.2298 227.828 57.2122 227.84 57.1947C227.838 57.2385 227.835 57.2822 227.833 57.3256C227.771 58.3931 227.727 59.4597 227.698 60.5253ZM275.239 36.1792L275.239 36.1792L275.241 36.1795C277.123 36.4246 278.924 36.8108 280.645 37.3253C292.123 40.7673 299.785 50.1053 300.96 63.3817C302.31 78.629 294.381 90.8816 280.584 96.2292C276.437 79.95 274.429 62.8729 274.79 44.9168C274.848 42.1031 274.961 39.2676 275.134 36.4133C275.14 36.3327 275.146 36.251 275.152 36.1688C275.182 36.172 275.211 36.1753 275.239 36.1792Z" fill="#FFE5B8" stroke="#FFAD1E" stroke-width="0.320845"/>
</g>
<path d="M264.889 99.2202C286.08 96.7047 301.832 81.7829 300.072 65.8914C298.312 49.9999 279.706 39.1565 258.515 41.6719C237.324 44.1874 221.572 59.1092 223.332 75.0007C225.092 90.8922 243.698 101.736 264.889 99.2202Z" stroke="#FFAD1E" stroke-width="5.61346" stroke-linecap="round" stroke-linejoin="round"/>
<path d="M291.423 61.1197C291.523 63.4368 289.791 65.39 287.566 65.4934C285.341 65.5968 283.447 63.8122 283.347 61.4951C283.246 59.178 284.978 57.2248 287.203 57.1214C289.428 57.0179 291.322 58.8025 291.423 61.1197Z" fill="#FFAD1E" stroke="#FFAD1E" stroke-width="0.320845"/>
<path d="M194.577 153.766C194.201 157.083 191.301 159.447 188.109 159.059C184.918 158.671 182.626 155.675 183.002 152.358C183.378 149.04 186.279 146.676 189.47 147.064C192.662 147.453 194.954 150.448 194.577 153.766Z" fill="#DDF6F6" stroke="#35D0BA" stroke-width="0.320845"/>
<path d="M177.007 173.121L177.008 173.121L177.005 173.118L161.875 155.829L161.328 145.261L169.36 136.574L179.278 136.872L187.555 143.446L180.975 153.784L180.909 153.886L180.991 153.978L187.476 161.241L187.535 161.307L187.621 161.293L192.868 160.482L192.982 160.464L193 160.35L194.622 150.282L194.632 150.222L194.599 150.17L190.069 143.055L197.223 137.412L207.976 136.637L216.777 145.556L216.764 155.434L190.376 184.347L186.516 184.597L177.007 173.121Z" fill="#DDF6F6" stroke="#35D0BA" stroke-width="0.320845"/>
<path d="M168.766 164.793L164.788 160.662C159.266 154.929 159.279 145.647 164.817 139.927C170.354 134.211 179.32 134.224 184.845 139.957L188.823 144.088" stroke="#35D0BA" stroke-width="5.61346" stroke-linecap="round" stroke-linejoin="round"/>
<path d="M193.45 148.894L188.82 144.09" stroke="#35D0BA" stroke-width="5.61346" stroke-linecap="round" stroke-linejoin="round"/>
<path d="M188.819 144.091L184.179 148.882" stroke="#35D0BA" stroke-width="5.61346" stroke-linecap="round" stroke-linejoin="round"/>
<path d="M188.819 144.09L192.77 140.012C198.308 134.296 207.274 134.309 212.798 140.042C218.32 145.775 218.307 155.057 212.77 160.777L191.107 183.139C189.812 184.474 187.719 184.47 186.429 183.133L168.766 164.793" stroke="#35D0BA" stroke-width="5.61346" stroke-linecap="round" stroke-linejoin="round"/>
<path d="M193.449 148.895C196.005 151.549 195.999 155.846 193.436 158.492C190.873 161.138 186.721 161.132 184.166 158.478C181.61 155.825 181.616 151.527 184.179 148.881" stroke="#35D0BA" stroke-width="5.61346" stroke-linecap="round" stroke-linejoin="round"/>
<mask id="mask1_929_6405" style="mask-type:luminance" maskUnits="userSpaceOnUse" x="152" y="172" width="77" height="58">
<path d="M228.368 206.524C227.307 214.168 222.108 220.472 214.535 224.478C206.961 228.484 197.022 230.185 186.514 228.621C176.006 227.058 166.932 222.529 160.754 216.477C154.576 210.426 151.302 202.862 152.363 195.218C153.424 187.574 158.623 181.27 166.196 177.264C173.77 173.259 183.709 171.558 194.217 173.121C204.725 174.684 213.799 179.213 219.977 185.265C226.155 191.316 229.429 198.88 228.368 206.524Z" fill="white" stroke="white" stroke-width="0.320845"/>
</mask>
<g mask="url(#mask1_929_6405)">
<path d="M240.032 204.555C237.085 225.79 213.034 239.841 186.243 235.856C159.452 231.87 140.196 211.377 143.143 190.142C146.09 168.908 170.141 154.857 196.932 158.842C223.723 162.827 242.979 183.321 240.032 204.555Z" fill="#35D0BA" stroke="#35D0BA" stroke-width="0.320845"/>
<path d="M179.75 169.983C179.3 170.111 178.85 170.241 178.404 170.383C177.943 171.993 177.502 173.61 177.102 175.232C176.333 178.337 175.679 181.468 175.126 184.621C174.953 185.593 174.796 186.568 174.645 187.544C174.492 188.529 174.349 189.519 174.218 190.508L179.75 169.983ZM179.75 169.983C183.994 168.751 188.481 167.969 193.047 167.757L179.75 169.983ZM188.961 185.6C189.168 184.398 189.395 183.193 189.631 181.989C189.642 181.932 189.653 181.874 189.663 181.814L189.664 181.809C189.674 181.751 189.685 181.692 189.696 181.632L189.697 181.632C190.004 180.074 190.339 178.515 190.693 176.955L190.694 176.955C190.722 176.832 190.751 176.708 190.781 176.585C190.811 176.462 190.84 176.34 190.868 176.219L190.868 176.219C191.508 173.455 192.22 170.69 193.001 167.92C188.467 168.135 184.011 168.913 179.796 170.137L179.795 170.138C179.373 170.257 178.951 170.379 178.535 170.51C178.082 172.092 177.65 173.68 177.257 175.272L177.257 175.273C176.489 178.373 175.836 181.501 175.283 184.65L175.283 184.65C175.111 185.621 174.954 186.595 174.803 187.57C174.651 188.555 174.507 189.543 174.377 190.531L174.377 190.531C172.882 201.771 172.692 213.316 173.669 225.133C177.909 227.189 182.548 228.763 187.399 229.694C185.873 215.104 186.385 200.405 188.961 185.6ZM188.961 185.6C188.961 185.6 188.961 185.6 188.961 185.6L189.119 185.629L188.961 185.6ZM158.695 184.739C156.813 193.623 156.158 202.597 156.777 211.657C153.158 206.74 151.254 201.337 151.751 196.021L151.783 195.681C152.268 191.379 154.313 187.254 157.495 183.554L157.495 183.553C158.086 182.865 158.721 182.195 159.389 181.539C159.404 181.524 159.419 181.509 159.434 181.494C159.424 181.536 159.414 181.579 159.404 181.621C159.15 182.658 158.915 183.697 158.695 184.739ZM193.17 167.913C192.384 170.698 191.667 173.478 191.024 176.256C190.996 176.379 190.966 176.502 190.937 176.624C190.907 176.747 190.878 176.87 190.85 176.992C190.496 178.551 190.16 180.108 189.854 181.664L193.17 167.913ZM209.787 169.998L209.787 169.998L209.789 169.999C211.594 170.603 213.294 171.33 214.891 172.168C225.549 177.765 231.394 188.419 230.157 201.689C228.737 216.929 218.74 227.437 204.221 230.026C203.08 213.232 204.183 196.067 207.772 178.496C208.336 175.742 208.957 172.978 209.642 170.208C209.662 170.13 209.683 170.05 209.703 169.971C209.732 169.98 209.76 169.989 209.787 169.998Z" fill="#B2EDE3" stroke="#35D0BA" stroke-width="0.320845"/>
</g>
<path d="M188.266 229.935C209.538 231.555 227.701 219.936 228.835 203.983C229.968 188.031 213.642 173.785 192.37 172.165C171.098 170.546 152.934 182.165 151.801 198.117C150.667 214.07 166.993 228.315 188.266 229.935Z" stroke="#35D0BA" stroke-width="5.61346" stroke-linecap="round" stroke-linejoin="round"/>
<path d="M221.196 197.626C220.877 199.921 218.824 201.506 216.619 201.178C214.414 200.85 212.875 198.731 213.194 196.436C213.512 194.14 215.566 192.555 217.77 192.883C219.975 193.211 221.514 195.33 221.196 197.626Z" fill="#35D0BA" stroke="#35D0BA" stroke-width="0.320845"/>
</svg>
