<svg width="390" height="448" viewBox="0 0 390 448" fill="none" xmlns="http://www.w3.org/2000/svg">
<path d="M231.813 147.956L223.946 152.328L232.205 167.187L240.072 162.815L231.813 147.956Z" fill="#7EE3D5"/>
<path d="M308.387 363.157L300 366.421L306.165 382.264L314.552 379L308.387 363.157Z" fill="#EEF9F9"/>
<path d="M138.59 64.5692L131.04 59.6719L121.789 73.9347L129.34 78.832L138.59 64.5692Z" fill="#B2EDE3"/>
<path d="M242.228 4.0004L233.885 0.625L227.509 16.3841L235.852 19.7595L242.228 4.0004Z" fill="#FFECCC"/>
<path d="M189.136 105.636L180.793 102.261L174.417 118.02L182.76 121.395L189.136 105.636Z" fill="#FFECCC"/>
<path d="M316.54 51.4398L307.784 53.5205L311.714 70.06L320.471 67.9793L316.54 51.4398Z" fill="#FFF5E4"/>
<path d="M6.36067 322.984L-2.39551 325.064L1.53469 341.604L10.2909 339.523L6.36067 322.984Z" fill="#FFF5E4"/>
<path d="M143.619 182.661L135.574 178.627L127.954 193.824L136 197.858L143.619 182.661Z" fill="#FFD285"/>
<path d="M363.34 385.768L354.469 384.247L351.597 401.003L360.468 402.523L363.34 385.768Z" fill="#FFD285"/>
<path d="M71.0072 13.9767L62.585 17.1494L68.5778 33.0581L77 29.8854L71.0072 13.9767Z" fill="#FFAD1E"/>
<path d="M351.597 162.223L344.556 156.618L333.968 169.919L341.01 175.524L351.597 162.223Z" fill="#FFAD1E"/>
<path d="M84.0072 363.091L75.585 366.264L81.5778 382.172L90 379L84.0072 363.091Z" fill="#FFAD1E"/>
<path d="M72.7673 69.2523L64 67.2188L60.1589 83.7791L68.9262 85.8126L72.7673 69.2523Z" fill="#DDF6F6"/>
<path d="M143.62 88.4698L134.621 88.6387L134.94 105.636L143.939 105.467L143.62 88.4698Z" fill="#DDF6F6"/>
<path d="M308.812 203.319L300.044 201.285L296.203 217.846L304.971 219.879L308.812 203.319Z" fill="#DDF6F6"/>
<path d="M67.6697 216.488L59.4131 212.906L52.6477 228.502L60.9043 232.084L67.6697 216.488Z" fill="#35D0BA"/>
<path d="M42.8155 411.662L48.1489 404.412L34.4555 394.338L29.1221 401.587L42.8155 411.662Z" fill="#35D0BA"/>
<path d="M390 51.4399L381.271 53.6318L385.412 70.1199L394.141 67.928L390 51.4399Z" fill="#B2EDE3"/>
<path d="M66.4631 429L57.7341 431.192L61.8744 447.68L70.6034 445.489L66.4631 429Z" fill="#B2EDE3"/>
<path d="M11.1373 73.1156L3.00879 69.252L-4.28925 84.6057L3.83923 88.4694L11.1373 73.1156Z" fill="#FFE5B8"/>
<path d="M394.005 280.039L385.876 276.176L378.578 291.53L386.707 295.393L394.005 280.039Z" fill="#FFE5B8"/>
</svg>
