<svg width="390" height="448" viewBox="0 0 390 448" fill="none" xmlns="http://www.w3.org/2000/svg">
<path d="M232.101 147.331L224.234 151.703L232.493 166.562L240.36 162.19L232.101 147.331Z" fill="#7EE3D5"/>
<path d="M308.676 362.533L300.289 365.797L306.454 381.64L314.841 378.376L308.676 362.533Z" fill="#EEF9F9"/>
<path d="M138.879 63.9442L131.328 59.0469L122.078 73.3097L129.629 78.207L138.879 63.9442Z" fill="#B2EDE3"/>
<path d="M242.517 3.3754L234.174 0L227.798 15.7591L236.141 19.1345L242.517 3.3754Z" fill="#FFECCC"/>
<path d="M189.425 105.01L181.082 101.635L174.706 117.394L183.049 120.769L189.425 105.01Z" fill="#FFECCC"/>
<path d="M316.829 50.8138L308.073 52.8945L312.003 69.434L320.76 67.3533L316.829 50.8138Z" fill="#FFF5E4"/>
<path d="M6.64974 322.359L-2.10645 324.439L1.82375 340.979L10.5799 338.898L6.64974 322.359Z" fill="#FFF5E4"/>
<path d="M143.909 182.036L135.863 178.002L128.243 193.199L136.289 197.233L143.909 182.036Z" fill="#FFD285"/>
<path d="M363.628 385.142L354.758 383.621L351.885 400.377L360.756 401.897L363.628 385.142Z" fill="#FFD285"/>
<path d="M71.2963 13.3508L62.874 16.5234L68.8669 32.4321L77.2891 29.2594L71.2963 13.3508Z" fill="#FFAD1E"/>
<path d="M351.886 161.599L344.845 155.994L334.257 169.295L341.299 174.9L351.886 161.599Z" fill="#FFAD1E"/>
<path d="M84.2963 362.466L75.874 365.639L81.8669 381.547L90.2891 378.375L84.2963 362.466Z" fill="#FFAD1E"/>
<path d="M73.0563 68.6273L64.2891 66.5938L60.448 83.1541L69.2152 85.1876L73.0563 68.6273Z" fill="#DDF6F6"/>
<path d="M143.909 87.8448L134.91 88.0137L135.229 105.011L144.228 104.842L143.909 87.8448Z" fill="#DDF6F6"/>
<path d="M309.101 202.694L300.334 200.66L296.493 217.221L305.26 219.254L309.101 202.694Z" fill="#DDF6F6"/>
<path d="M67.9588 215.863L59.7021 212.281L52.9368 227.877L61.1934 231.459L67.9588 215.863Z" fill="#35D0BA"/>
<path d="M43.1041 411.037L48.4375 403.787L34.7441 393.713L29.4107 400.962L43.1041 411.037Z" fill="#35D0BA"/>
<path d="M390.29 50.8159L381.561 53.0078L385.701 69.4959L394.43 67.304L390.29 50.8159Z" fill="#B2EDE3"/>
<path d="M66.7524 428.374L58.0234 430.566L62.1638 447.055L70.8928 444.863L66.7524 428.374Z" fill="#B2EDE3"/>
<path d="M11.4263 72.4906L3.29785 68.627L-4.00018 83.9807L4.12829 87.8444L11.4263 72.4906Z" fill="#FFE5B8"/>
<path d="M394.294 279.414L386.166 275.551L378.868 290.905L386.996 294.768L394.294 279.414Z" fill="#FFE5B8"/>
</svg>
