<svg width="31" height="30" viewBox="0 0 31 30" fill="none" xmlns="http://www.w3.org/2000/svg">
<g id="icon">
<path id="Vector" d="M23.3843 5.05642C19.0366 0.708734 11.9611 0.708734 7.61345 5.05642C5.50602 7.16385 4.3457 9.96329 4.3457 12.9427C4.3457 15.9221 5.50427 18.7198 7.60821 20.8255C7.60821 20.8255 7.60996 20.8272 7.61171 20.829L14.5701 27.7874C14.8252 28.0425 15.1607 28.1718 15.4962 28.1718C15.8318 28.1718 16.1673 28.0443 16.4224 27.7874L23.3808 20.829C27.7285 16.4813 27.7285 9.40584 23.3808 5.05642H23.3843ZM9.46576 6.91047C12.7912 3.58331 18.2031 3.58331 21.5302 6.91047C24.8574 10.2359 24.8574 15.6495 21.5302 18.9749L15.498 25.0072L9.46576 18.9749C7.8546 17.3638 6.96864 15.2214 6.96864 12.9445C6.96864 10.6675 7.85635 8.52338 9.46751 6.91222L9.46576 6.91047Z" fill="#C9CDD2"/>
<path id="Vector_2" d="M15.4979 17.0945C17.8657 17.0945 19.7932 15.1671 19.7932 12.7993C19.7932 10.4315 17.8657 8.50403 15.4979 8.50403C13.1301 8.50403 11.2026 10.4315 11.2026 12.7993C11.2026 15.1671 13.1301 17.0945 15.4979 17.0945ZM15.4979 11.127C16.4206 11.127 17.172 11.8784 17.172 12.801C17.172 13.7237 16.4206 14.4751 15.4979 14.4751C14.5752 14.4751 13.8238 13.7237 13.8238 12.801C13.8238 11.8784 14.5752 11.127 15.4979 11.127Z" fill="#C9CDD2"/>
</g>
</svg>
