<svg width="143" height="197" viewBox="0 0 143 197" fill="none" xmlns="http://www.w3.org/2000/svg">
<ellipse cx="63.3265" cy="170.649" rx="43.1171" ry="8.60468" fill="#FFC052"/>
<ellipse cx="47.9774" cy="169.12" rx="43.1171" ry="11.4094" fill="#FFC052"/>
<ellipse cx="71.984" cy="183.56" rx="43.1171" ry="12.9107" fill="#FFC052"/>
<ellipse cx="92.1153" cy="170.65" rx="43.1171" ry="15.0422" fill="#FFC052"/>
<path d="M112.167 96.8656C115.134 95.0361 116.789 93.0044 116.789 90.8663C116.789 87.6061 112.949 84.5958 106.449 82.1546C107.774 80.9845 108.486 79.74 108.486 78.4476C108.486 71.592 88.3663 66.0342 63.5448 66.0342C38.7233 66.0342 18.598 71.5974 18.598 78.4529C18.598 79.7453 19.3107 80.9899 20.635 82.1599C14.1358 84.5958 10.2958 87.6114 10.2958 90.8717C10.2958 93.0097 11.9499 95.0361 14.9176 96.871C8.29604 104.343 4.4082 113.417 4.4082 123.198C4.4082 148.748 30.8838 169.458 63.5448 169.458C96.2058 169.458 122.681 148.748 122.681 123.198C122.681 113.417 118.799 104.343 112.172 96.871L112.167 96.8656Z" fill="#FFECCC"/>
<path d="M63.3258 91.0148C88.1023 91.0148 108.188 85.4238 108.188 78.5269C108.188 71.6301 88.1023 66.0391 63.3258 66.0391C38.5494 66.0391 18.4641 71.6301 18.4641 78.5269C18.4641 85.4238 38.5494 91.0148 63.3258 91.0148Z" fill="#FFC052"/>
<path d="M63.5393 91.0135C83.6912 91.0135 100.742 87.349 106.444 82.3018" stroke="#FFAD1E" stroke-width="6.5" stroke-linecap="round" stroke-linejoin="round"/>
<path d="M63.5395 91.0135C43.3876 91.0135 26.3365 87.349 20.635 82.3018" stroke="#FFAD1E" stroke-width="6.5" stroke-linecap="round" stroke-linejoin="round"/>
<path d="M76.8038 138.141C89.2119 138.141 89.1056 137.923 97.2376 135.679" stroke="#FFAD1E" stroke-width="6.5" stroke-linecap="round" stroke-linejoin="round"/>
<path d="M76.8038 104.693C96.5089 104.693 103.843 101.05 113.05 96.6514" stroke="#FFAD1E" stroke-width="6.5" stroke-linecap="round" stroke-linejoin="round"/>
<path d="M76.8038 120.58C94.4081 120.58 98.6736 118.549 108.369 114.916" stroke="#FFAD1E" stroke-width="6.5" stroke-linecap="round" stroke-linejoin="round"/>
<path d="M111.949 96.8656C114.916 95.0361 116.57 93.0044 116.57 90.8663C116.57 87.6061 112.73 84.5958 106.231 82.1546C107.555 80.9845 108.268 79.74 108.268 78.4476C108.268 71.592 88.1481 66.0342 63.3266 66.0342C38.5051 66.0342 18.3851 71.5974 18.3851 78.4529C18.3851 79.7453 19.0978 80.9899 20.4221 82.1599C13.9229 84.5958 10.0829 87.6114 10.0829 90.8717C10.0829 93.0097 11.737 95.0361 14.7047 96.871C8.08315 104.343 4.19531 113.417 4.19531 123.198C4.19531 148.748 30.6709 169.458 63.3319 169.458C95.9929 169.458 122.469 148.748 122.469 123.198C122.469 113.417 118.586 104.343 111.959 96.871L111.949 96.8656Z" stroke="#FFAD1E" stroke-width="6.5" stroke-linecap="round" stroke-linejoin="round"/>
<path d="M95.0116 61.5244L80.5012 88.3665" stroke="#FFAD1E" stroke-width="6.5" stroke-linecap="round" stroke-linejoin="round"/>
<path d="M107.335 37.9031C119.224 44.3301 131.892 43.9354 135.629 37.0215C139.367 30.1076 132.759 19.2926 120.87 12.8656C108.981 6.43862 96.3131 6.83335 92.5756 13.7473C88.838 20.6612 95.4461 31.4761 107.335 37.9031Z" fill="#FFE5B8"/>
<path d="M87.7491 74.1326C99.6381 80.5596 112.306 80.1649 116.043 73.251C119.781 66.337 113.173 55.5221 101.284 49.0951C89.395 42.6681 76.7272 43.0628 72.9896 49.9768C69.2521 56.8907 75.8602 67.7056 87.7491 74.1326Z" fill="#FFE5B8"/>
<path d="M95.6818 59.4591C107.571 65.8861 121.072 63.9505 125.837 55.1359C130.602 46.3212 124.827 33.9655 112.938 27.5385C101.049 21.1115 87.5478 23.047 82.7828 31.8617C78.0177 40.6763 83.7928 53.0321 95.6818 59.4591Z" fill="#FFE5B8"/>
<path d="M109.994 33.8086L109.649 33.6221" stroke="#FFAD1E" stroke-width="6.5" stroke-linecap="round" stroke-linejoin="round"/>
<path d="M109.996 33.8047C109.883 33.7434 109.765 33.6795 109.649 33.6231" stroke="#FFAD1E" stroke-width="6.5" stroke-linecap="round" stroke-linejoin="round"/>
<path d="M70.7578 50.8857C72.2021 59.2931 78.7168 67.9503 88.6371 73.313" stroke="#FFAD1E" stroke-width="6.5" stroke-linecap="round" stroke-linejoin="round"/>
<path d="M88.6436 73.3028C100.1 79.6425 111.748 80.135 114.437 75.1726C117.318 69.8552 111.666 60.1221 99.3158 53.5607" stroke="#FFAD1E" stroke-width="6.5" stroke-linecap="round" stroke-linejoin="round"/>
<path d="M99.3211 53.5518C110.778 59.8915 122.426 60.3841 125.115 55.4216C127.996 50.1042 122.343 40.3711 109.993 33.8097" stroke="#FFAD1E" stroke-width="6.5" stroke-linecap="round" stroke-linejoin="round"/>
<path d="M92.1158 11.3769C99.941 7.98049 110.752 8.68954 120.673 14.0523" stroke="#FFAD1E" stroke-width="6.5" stroke-linecap="round" stroke-linejoin="round"/>
<path d="M110 33.7949C121.457 40.1347 133.105 40.6272 135.794 35.6648C138.675 30.3474 133.022 20.6143 120.673 14.0529" stroke="#FFAD1E" stroke-width="6.5" stroke-linecap="round" stroke-linejoin="round"/>
</svg>
