<svg width="166" height="170" viewBox="0 0 166 170" fill="none" xmlns="http://www.w3.org/2000/svg">
<path d="M58.3456 109.632C58.3456 109.632 53.23 113.705 45.0096 114.26C36.7893 114.815 24.4651 114.157 22.4122 119.536C20.3593 124.914 29.874 124.408 29.874 124.408C29.874 124.408 30.8965 124.581 29.9803 125.457C29.064 126.332 26.9193 127.637 22.9248 127.401C18.9303 127.165 18.1981 130.634 14.5177 131.47C10.8374 132.306 3.71825 136.071 3.65976 141.801C3.60128 147.532 6.66132 145.877 8.39009 148.897C10.1188 151.917 14.1473 153.041 14.1473 153.041C14.1473 153.041 22.1952 158.86 28.7486 159.386C35.302 159.911 40.2943 158.714 48.2461 160.222C56.1979 161.729 58.4548 163.519 65.525 164.089C72.5879 164.658 99.2287 165.534 99.2287 165.534C99.2287 165.534 116.104 166.214 119.271 165.248C122.439 164.282 135.73 160.538 137.551 160.889C139.373 161.241 146.617 159.261 148.15 157.764C149.684 156.267 160.795 151.968 161.651 144.939C162.507 137.91 159.097 140.328 159.235 137.122C159.372 133.915 142.775 120.527 132.306 120.445C121.837 120.364 94.2787 99.7349 58.3525 109.639L58.3456 109.632Z" fill="#FFE5B8"/>
<path d="M58.3456 109.632C58.3456 109.632 53.23 113.705 45.0096 114.26C36.7893 114.815 24.4651 114.157 22.4122 119.536C20.3593 124.914 29.874 124.408 29.874 124.408C29.874 124.408 30.8965 124.581 29.9803 125.457C29.064 126.332 26.9193 127.637 22.9248 127.401C18.9303 127.165 18.1981 130.634 14.5177 131.47C10.8374 132.306 3.71825 136.071 3.65976 141.801C3.60128 147.532 6.66132 145.877 8.39009 148.897C10.1188 151.917 14.1473 153.041 14.1473 153.041C14.1473 153.041 22.1952 158.86 28.7486 159.386C35.302 159.911 40.2943 158.714 48.2461 160.222C56.1979 161.729 58.4548 163.519 65.525 164.089C72.5879 164.658 99.2287 165.534 99.2287 165.534C99.2287 165.534 116.104 166.214 119.271 165.248C122.439 164.282 135.73 160.538 137.551 160.889C139.373 161.241 146.617 159.261 148.15 157.764C149.684 156.267 160.795 151.968 161.651 144.939C162.507 137.91 159.097 140.328 159.235 137.122C159.372 133.915 142.775 120.527 132.306 120.445C121.837 120.364 94.2787 99.7349 58.3525 109.639L58.3456 109.632Z" stroke="#FFAD1E" stroke-width="7" stroke-linecap="round" stroke-linejoin="round"/>
<path d="M98.309 78.4724L82.652 114.383" stroke="#FFAD1E" stroke-width="7" stroke-linecap="round" stroke-linejoin="round"/>
<path d="M148.372 41.0289C152.084 32.5193 142.2 19.9973 126.295 13.0603C110.391 6.12322 94.4889 7.39798 90.7773 15.9075C87.0656 24.4171 96.9498 36.939 112.854 43.8761C128.759 50.8132 144.661 49.5384 148.372 41.0289Z" fill="#FFE5B8"/>
<path d="M137.059 66.9751C140.77 58.4656 130.886 45.9436 114.982 39.0066C99.0774 32.0695 83.1754 33.3443 79.4638 41.8538C75.7522 50.3634 85.6364 62.8853 101.541 69.8224C117.445 76.7594 133.347 75.4847 137.059 66.9751Z" fill="#FFE5B8"/>
<path d="M125.529 93.398C129.241 84.8884 119.356 72.3665 103.452 65.4294C87.5476 58.4924 71.6456 59.7671 67.934 68.2767C64.2224 76.7862 74.1066 89.3082 90.011 96.2452C105.915 103.182 121.817 101.908 125.529 93.398Z" fill="#FFE5B8"/>
<path d="M114.477 41.4029L114.017 41.2031" stroke="#FFAD1E" stroke-width="7" stroke-linecap="round" stroke-linejoin="round"/>
<path d="M114.484 41.396C114.336 41.332 114.173 41.2602 114.017 41.2031" stroke="#FFAD1E" stroke-width="7" stroke-linecap="round" stroke-linejoin="round"/>
<path d="M66.131 67.4922C68.8889 78.0902 78.1603 88.4634 91.4315 94.2471" stroke="#FFAD1E" stroke-width="7" stroke-linecap="round" stroke-linejoin="round"/>
<path d="M91.439 94.2321C106.781 101.106 121.732 100.472 124.638 93.8336C127.752 86.7213 119.466 74.8778 102.958 67.8245" stroke="#FFAD1E" stroke-width="7" stroke-linecap="round" stroke-linejoin="round"/>
<path d="M102.958 67.8103C118.3 74.684 133.251 74.0503 136.157 67.4117C139.271 60.2994 130.985 48.456 114.477 41.4026" stroke="#FFAD1E" stroke-width="7" stroke-linecap="round" stroke-linejoin="round"/>
<path d="M89.1839 14.6342C98.8275 9.44413 112.732 9.18331 126.004 14.9671" stroke="#FFAD1E" stroke-width="7" stroke-linecap="round" stroke-linejoin="round"/>
<path d="M114.485 41.3747C129.827 48.2485 144.778 47.6147 147.685 40.9762C150.799 33.8639 142.512 22.0204 126.004 14.967" stroke="#FFAD1E" stroke-width="7" stroke-linecap="round" stroke-linejoin="round"/>
<path d="M138.704 138.712C138.36 146.721 121.748 152.505 101.56 151.639" stroke="#FFAD1E" stroke-width="7" stroke-linecap="round" stroke-linejoin="round"/>
</svg>
