<svg width="30" height="30" viewBox="0 0 30 30" fill="none" xmlns="http://www.w3.org/2000/svg">
<g id="icon">
<path id="Vector 315" d="M14.1046 11.314H15.8897L23.35 14.311V27.0634H6.00684V14.7573L14.1046 11.314Z" fill="#E8EBED"/>
<ellipse id="Ellipse 130" cx="14.9998" cy="6.70929" rx="2.73755" ry="3.20435" fill="#E8EBED"/>
<g id="Group 690">
<path id="Vector" d="M26.0835 13.0196C23.3335 12.9707 20.7663 12.4185 18.8581 11.4644L17.3047 10.6877L18.4326 9.55984C19.3451 8.64558 19.8484 7.43259 19.8484 6.13994C19.8484 4.84729 19.3451 3.63249 18.4326 2.72003C16.5461 0.833558 13.4793 0.833558 11.5928 2.72003C10.6803 3.6343 10.177 4.84729 10.177 6.13994C10.177 7.43259 10.6803 8.64558 11.5928 9.55984C11.5928 9.55984 11.5928 9.55984 11.5946 9.55984L12.7207 10.6859L11.1673 11.4626C9.25734 12.4167 6.69196 12.9707 3.94191 13.0178C3.19239 13.0304 2.59495 13.6496 2.60762 14.3991C2.62029 15.1414 3.22679 15.7334 3.96544 15.7334C3.97269 15.7334 3.98174 15.7334 3.98898 15.7334C4.27684 15.728 4.56108 15.7171 4.84531 15.7008V27.2749C4.84531 28.0244 5.45181 28.6309 6.20133 28.6309H23.5869C24.3364 28.6309 24.9429 28.0244 24.9429 27.2749V15.6882C25.305 15.7099 25.6707 15.7262 26.0382 15.7334C26.0455 15.7334 26.0545 15.7334 26.0618 15.7334C26.8004 15.7334 27.4051 15.1414 27.4196 14.3991C27.4323 13.6496 26.8348 13.0304 26.0853 13.0178L26.0835 13.0196ZM13.5119 4.63909C14.3392 3.81172 15.6844 3.81172 16.5117 4.63909C17.3391 5.46646 17.3391 6.81161 16.5117 7.63898L15.0127 9.13801L13.5155 7.64079C13.5155 7.64079 13.5155 7.64079 13.5155 7.63898C12.6881 6.81161 12.6881 5.46646 13.5155 4.63909H13.5119ZM22.2291 25.9207H7.55553V15.4039C9.34605 15.0961 10.9972 14.5838 12.3803 13.8922L15.0109 12.576L17.6415 13.8922C18.9631 14.553 20.5291 15.0491 22.2273 15.3605V25.9207H22.2291Z" fill="#6C7885"/>
</g>
</g>
</svg>
