<svg width="26" height="28" viewBox="0 0 26 28" fill="none" xmlns="http://www.w3.org/2000/svg">
<g id="Group 690">
<path id="Vector" d="M24.0835 12.0196C21.3335 11.9707 18.7663 11.4185 16.8581 10.4644L15.3047 9.68774L16.4326 8.55984C17.3451 7.64558 17.8484 6.43259 17.8484 5.13994C17.8484 3.84729 17.3451 2.63249 16.4326 1.72003C14.5461 -0.166442 11.4793 -0.166442 9.5928 1.72003C8.68034 2.6343 8.17704 3.84729 8.17704 5.13994C8.17704 6.43259 8.68034 7.64558 9.5928 8.55984C9.5928 8.55984 9.5928 8.55984 9.59461 8.55984L10.7207 9.68593L9.16735 10.4626C7.25734 11.4167 4.69196 11.9707 1.94191 12.0178C1.19239 12.0304 0.594947 12.6496 0.60762 13.3991C0.620293 14.1414 1.22679 14.7334 1.96544 14.7334C1.97269 14.7334 1.98174 14.7334 1.98898 14.7334C2.27684 14.728 2.56108 14.7171 2.84531 14.7008V26.2749C2.84531 27.0244 3.45181 27.6309 4.20133 27.6309H21.5869C22.3364 27.6309 22.9429 27.0244 22.9429 26.2749V14.6882C23.305 14.7099 23.6707 14.7262 24.0382 14.7334C24.0455 14.7334 24.0545 14.7334 24.0618 14.7334C24.8004 14.7334 25.4051 14.1414 25.4196 13.3991C25.4323 12.6496 24.8348 12.0304 24.0853 12.0178L24.0835 12.0196ZM11.5119 3.63909C12.3392 2.81172 13.6844 2.81172 14.5117 3.63909C15.3391 4.46646 15.3391 5.81161 14.5117 6.63898L13.0127 8.13801L11.5155 6.64079C11.5155 6.64079 11.5155 6.64079 11.5155 6.63898C10.6881 5.81161 10.6881 4.46646 11.5155 3.63909H11.5119ZM20.2291 24.9207H5.55553V14.4039C7.34605 14.0961 8.99717 13.5838 10.3803 12.8922L13.0109 11.576L15.6415 12.8922C16.9631 13.553 18.5291 14.0491 20.2273 14.3605V24.9207H20.2291Z" fill="#C9CDD2"/>
</g>
</svg>
