<svg width="22" height="25" viewBox="0 0 22 25" fill="none" xmlns="http://www.w3.org/2000/svg">
<g id="&#234;&#191;&#128;&#235;&#180;&#137;&#235;&#180;&#137; 4-1" clip-path="url(#clip0_2305_5805)">
<path id="Vector" d="M10.0527 14.447L6.87149 20.3318" stroke="#FFAD1E" stroke-width="1.72545" stroke-linecap="round" stroke-linejoin="round"/>
<path id="Vector_2" d="M12.7546 9.26816C15.3611 10.6772 18.1384 10.5907 18.9578 9.07486C19.7772 7.55907 18.3285 5.18801 15.722 3.77896C13.1154 2.36992 10.3382 2.45646 9.51876 3.97226C8.69934 5.48806 10.1481 7.85911 12.7546 9.26816Z" fill="#FFE5B8"/>
<path id="Vector_3" d="M8.46067 17.2111C11.0672 18.6202 13.8445 18.5336 14.6639 17.0178C15.4833 15.502 14.0346 13.131 11.428 11.7219C8.8215 10.3129 6.04423 10.3994 5.22481 11.9152C4.4054 13.431 5.85414 15.8021 8.46067 17.2111Z" fill="#FFE5B8"/>
<path id="Vector_4" d="M10.2001 13.9942C12.8066 15.4033 15.7665 14.9789 16.8112 13.0464C17.8559 11.1139 16.5897 8.40505 13.9832 6.99601C11.3767 5.58696 8.41679 6.01131 7.37211 7.94382C6.32743 9.87633 7.59355 12.5852 10.2001 13.9942Z" fill="#FFE5B8"/>
<path id="Vector_5" d="M13.3374 8.37074L13.2617 8.32983" stroke="#FFAD1E" stroke-width="1.84322" stroke-linecap="round" stroke-linejoin="round"/>
<path id="Vector_6" d="M13.3384 8.36967C13.3135 8.35623 13.2876 8.34221 13.2621 8.32985" stroke="#FFAD1E" stroke-width="1.84322" stroke-linecap="round" stroke-linejoin="round"/>
<path id="Vector_7" d="M4.73584 12.1145C5.05248 13.9577 6.48076 15.8557 8.65568 17.0314" stroke="#FFAD1E" stroke-width="1.72545" stroke-linecap="round" stroke-linejoin="round"/>
<path id="Vector_8" d="M8.65668 17.0293C11.1684 18.4193 13.7222 18.5272 14.3117 17.4393C14.9433 16.2735 13.704 14.1396 10.9964 12.7011" stroke="#FFAD1E" stroke-width="1.72545" stroke-linecap="round" stroke-linejoin="round"/>
<path id="Vector_9" d="M10.998 12.6991C13.5097 14.089 16.0635 14.197 16.653 13.109C17.2846 11.9432 16.0453 9.80937 13.3378 8.37085" stroke="#FFAD1E" stroke-width="1.72545" stroke-linecap="round" stroke-linejoin="round"/>
<path id="Vector_10" d="M9.4184 3.45273C11.134 2.7081 13.5043 2.86355 15.6792 4.03928" stroke="#FFAD1E" stroke-width="1.72545" stroke-linecap="round" stroke-linejoin="round"/>
<path id="Vector_11" d="M13.3393 8.36744C15.851 9.75736 18.4048 9.86534 18.9943 8.77739C19.6259 7.6116 18.3866 5.47773 15.6791 4.03922" stroke="#FFAD1E" stroke-width="1.72545" stroke-linecap="round" stroke-linejoin="round"/>
</g>
<defs>
<clipPath id="clip0_2305_5805">
<rect width="12.7981" height="20.3639" fill="white" transform="translate(10.2163 0.0384521) rotate(28.3949)"/>
</clipPath>
</defs>
</svg>
