<svg width="16" height="17" viewBox="0 0 16 17" fill="none" xmlns="http://www.w3.org/2000/svg">
<g clip-path="url(#clip0_1094_9007)">
<path d="M7.36914 9.63086L5.24831 13.5541" stroke="#FFAD1E" stroke-width="1.1503" stroke-linecap="round" stroke-linejoin="round"/>
<path d="M9.17007 6.17869C10.9078 7.11805 12.7593 7.06036 13.3055 6.04983C13.8518 5.0393 12.886 3.45859 11.1483 2.51923C9.41063 1.57986 7.55911 1.63756 7.01283 2.64809C6.46655 3.65862 7.43238 5.23933 9.17007 6.17869Z" fill="#FFE5B8"/>
<path d="M6.30776 11.4756C8.04545 12.4149 9.89696 12.3572 10.4432 11.3467C10.9895 10.3362 10.0237 8.75547 8.28601 7.8161C6.54832 6.87674 4.6968 6.93443 4.15053 7.94496C3.60425 8.9555 4.57008 10.5362 6.30776 11.4756Z" fill="#FFE5B8"/>
<path d="M7.46704 9.32925C9.20473 10.2686 11.178 9.98571 11.8744 8.69737C12.5709 7.40903 11.7268 5.60312 9.98913 4.66376C8.25145 3.7244 6.27819 4.0073 5.58173 5.29563C4.88528 6.58397 5.72936 8.38988 7.46704 9.32925Z" fill="#FFE5B8"/>
<path d="M9.55923 5.58L9.50879 5.55273" stroke="#FFAD1E" stroke-width="1.22881" stroke-linecap="round" stroke-linejoin="round"/>
<path d="M9.55923 5.58C9.54266 5.57104 9.52536 5.56169 9.5084 5.55345" stroke="#FFAD1E" stroke-width="1.22881" stroke-linecap="round" stroke-linejoin="round"/>
<path d="M3.82422 8.07617C4.03531 9.30499 4.9875 10.5703 6.43745 11.3541" stroke="#FFAD1E" stroke-width="1.1503" stroke-linecap="round" stroke-linejoin="round"/>
<path d="M6.43811 11.3524C8.11259 12.2791 9.81511 12.351 10.2081 11.6257C10.6292 10.8485 9.80299 9.42597 7.99796 8.46696" stroke="#FFAD1E" stroke-width="1.1503" stroke-linecap="round" stroke-linejoin="round"/>
<path d="M7.99866 8.46573C9.67314 9.39234 11.3757 9.46433 11.7687 8.73902C12.1897 7.96183 11.3635 6.53925 9.5585 5.58024" stroke="#FFAD1E" stroke-width="1.1503" stroke-linecap="round" stroke-linejoin="round"/>
<path d="M6.94527 2.30284C8.089 1.80642 9.66918 1.91005 11.1191 2.69387" stroke="#FFAD1E" stroke-width="1.1503" stroke-linecap="round" stroke-linejoin="round"/>
<path d="M9.56018 5.57901C11.2347 6.50562 12.9372 6.57761 13.3302 5.8523C13.7513 5.07511 12.9251 3.65253 11.12 2.69352" stroke="#FFAD1E" stroke-width="1.1503" stroke-linecap="round" stroke-linejoin="round"/>
</g>
<defs>
<clipPath id="clip0_1094_9007">
<rect width="8.53205" height="13.5759" fill="white" transform="translate(7.47754 0.0253906) rotate(28.3949)"/>
</clipPath>
</defs>
</svg>
