<svg width="24" height="25" viewBox="0 0 24 25" fill="none" xmlns="http://www.w3.org/2000/svg">
<g clip-path="url(#clip0_929_6226)">
<path d="M9.58301 17.5488L7.56052 20.9247" stroke="#E8EBED" stroke-width="1.77964" stroke-linecap="round" stroke-linejoin="round"/>
<path d="M14.4109 8.61641L14.3329 8.57422" stroke="#E8EBED" stroke-width="1.9011" stroke-linecap="round" stroke-linejoin="round"/>
<path d="M14.4115 8.61446C14.3859 8.60059 14.3591 8.58613 14.3329 8.57338" stroke="#E8EBED" stroke-width="1.9011" stroke-linecap="round" stroke-linejoin="round"/>
<path d="M5.53906 12.4766C5.86565 14.3777 7.33878 16.3353 9.58201 17.5479" stroke="#E8EBED" stroke-width="1.77964" stroke-linecap="round" stroke-linejoin="round"/>
<path d="M9.58326 17.5464C12.1739 18.98 14.8078 19.0914 15.4159 17.9693C16.0673 16.7669 14.7891 14.566 11.9965 13.0823" stroke="#E8EBED" stroke-width="1.77964" stroke-linecap="round" stroke-linejoin="round"/>
<path d="M11.9977 13.0796C14.5883 14.5132 17.2223 14.6246 17.8303 13.5025C18.4817 12.3001 17.2035 10.0992 14.4109 8.61549" stroke="#E8EBED" stroke-width="1.77964" stroke-linecap="round" stroke-linejoin="round"/>
<path d="M10.3685 3.54374C12.1379 2.77572 14.5826 2.93605 16.8259 4.1487" stroke="#E8EBED" stroke-width="1.77964" stroke-linecap="round" stroke-linejoin="round"/>
<path d="M14.4126 8.61284C17.0032 10.0464 19.6372 10.1578 20.2452 9.03566C20.8967 7.83326 19.6184 5.63238 16.8259 4.14869" stroke="#E8EBED" stroke-width="1.77964" stroke-linecap="round" stroke-linejoin="round"/>
</g>
<defs>
<clipPath id="clip0_929_6226">
<rect width="13.2" height="21.0034" fill="white" transform="translate(11.1917 0.0214844) rotate(28.3949)"/>
</clipPath>
</defs>
</svg>
