<svg width="150" height="98" viewBox="0 0 150 98" fill="none" xmlns="http://www.w3.org/2000/svg">
<g clip-path="url(#clip0_4754_65363)">
<path d="M145 48.9976L74.8169 91.9588C69.4042 94.1265 63.2366 92.8462 59.1181 88.7073C56.8465 86.4244 55.1209 83.8096 53.9346 81.0119C52.7482 78.221 52.1011 75.2472 52 72.2598C52.209 66.2918 54.5817 60.3781 59.1181 55.8191L65.8991 48.9976L73.8732 57.0114C78.2748 61.4348 85.4199 61.4348 89.8215 57.0114C94.2231 52.5879 94.2231 45.4141 89.8215 40.9907C85.4199 36.5604 78.2748 36.5604 73.8732 40.9907L65.8991 48.9976L59.1181 42.1829C54.5817 37.624 52.209 31.7102 52 25.7354C52.209 19.7607 54.5817 13.8537 59.1181 9.29476C61.9087 6.4903 65.6362 5 69.4312 5C71.2444 5 73.0711 5.3387 74.8169 6.03643L145 48.9976Z" fill="#FFF5E4"/>
<path d="M65.8991 48.9976L59.1181 55.8191C54.5817 60.3781 52.209 66.2918 52 72.2598C52.1011 75.2472 52.7482 78.221 53.9346 81.0119C55.1209 83.8096 56.8465 86.4244 59.1181 88.7073C63.2366 92.8462 69.4042 94.1265 74.8169 91.9588L145 48.9976L74.8169 6.03643C73.0711 5.3387 71.2444 5 69.4312 5C65.6362 5 61.9087 6.4903 59.1181 9.29476C54.5817 13.8537 52.209 19.7607 52 25.7354C52.209 31.7102 54.5817 37.6239 59.1181 42.1829L65.8991 48.9976ZM65.8991 48.9976L73.8732 57.0114C78.2748 61.4348 85.4199 61.4348 89.8215 57.0114C94.2231 52.5879 94.2231 45.4141 89.8215 40.9907C85.4199 36.5604 78.2748 36.5604 73.8732 40.9907L65.8991 48.9976Z" stroke="#FFAD1E" stroke-width="8" stroke-linecap="round" stroke-linejoin="round"/>
<path d="M5 30H33" stroke="#FFAD1E" stroke-width="10.1128" stroke-linecap="round" stroke-linejoin="round"/>
<path d="M5 68H33" stroke="#FFAD1E" stroke-width="8" stroke-linecap="round" stroke-linejoin="round"/>
<path d="M21 49H34" stroke="#FFAD1E" stroke-width="10.1128" stroke-linecap="round" stroke-linejoin="round"/>
</g>
<defs>
<clipPath id="clip0_4754_65363">
<rect width="150" height="98" fill="white"/>
</clipPath>
</defs>
</svg>
