<svg width="150" height="40" viewBox="0 0 150 40" fill="none" xmlns="http://www.w3.org/2000/svg">
<g id="Logo">
<path id="Vector" d="M130.324 38.8808C125.783 38.8808 123.296 36.3942 123.296 31.8534V8.0684C123.296 3.52763 125.783 1.04102 130.324 1.04102H143.189C147.027 1.04102 149.135 2.60866 149.135 5.52773C149.135 8.4468 147.027 10.0685 143.189 10.0685H134.918V15.312H142.811C146.324 15.312 148.216 16.7715 148.216 19.4203C148.216 22.1232 146.324 23.5827 142.811 23.5827H134.918V29.8533H144.054C147.892 29.8533 150 31.4209 150 34.34C150 37.2591 147.892 38.8808 144.054 38.8808H130.324Z" fill="#FFAD1E"/>
<path id="Vector_2" d="M101.057 38.8808C96.5159 38.8808 94.0293 36.3942 94.0293 31.8534V8.0684C94.0293 3.52763 96.5159 1.04102 101.057 1.04102H113.922C117.76 1.04102 119.868 2.60866 119.868 5.52773C119.868 8.4468 117.76 10.0685 113.922 10.0685H105.651V15.312H113.543C117.057 15.312 118.949 16.7715 118.949 19.4203C118.949 22.1232 117.057 23.5827 113.543 23.5827H105.651V29.8533H114.787C118.625 29.8533 120.733 31.4209 120.733 34.34C120.733 37.2591 118.625 38.8808 114.787 38.8808H101.057Z" fill="#FFAD1E"/>
<path id="Vector_3" d="M67.8817 38.8808C63.3411 38.8808 60.8545 36.3942 60.8545 31.8534V8.0684C60.8545 3.52763 63.3411 1.04102 67.8817 1.04102H77.3956C86.1526 1.04102 89.7743 5.3115 89.7743 11.0415C89.7743 14.5552 87.6121 17.4202 84.639 18.5554C88.5851 20.015 91.1798 23.2043 91.1798 27.7991C91.1798 33.5832 87.2878 38.8808 77.774 38.8808H67.8817ZM73.99 30.6641C77.6658 30.6641 79.0713 29.3127 79.0713 26.6099C79.0713 24.0692 77.774 22.88 74.3684 22.88H72.5305V30.6641H73.99ZM72.5305 16.0147H75.1252C77.5577 16.0147 79.0713 14.7714 79.0713 12.6092C79.0713 10.3388 77.6118 9.20359 75.0171 9.20359H72.5305V16.0147Z" fill="#FFAD1E"/>
<path id="Vector_4" d="M41.3865 39.5831C31.3861 39.5831 26.1968 34.772 26.1968 25.0418V7.52738C26.1968 2.98661 28.305 0.5 32.0348 0.5C35.7647 0.5 37.8188 2.98661 37.8188 7.52738V25.5824C37.8188 28.2852 39.1702 29.961 41.3865 29.961C43.5487 29.961 44.9541 28.2852 44.9541 25.5824V7.52738C44.9541 2.98661 46.9542 0.5 50.7381 0.5C54.522 0.5 56.5761 2.98661 56.5761 7.52738V25.0418C56.5761 34.772 51.3868 39.5831 41.3865 39.5831Z" fill="#FFAD1E"/>
<path id="Vector_5" d="M7.02725 38.8803C2.48657 38.8803 0 36.3937 0 31.8529V7.52738C0 2.98661 2.10818 0.5 5.83802 0.5C9.56787 0.5 11.622 2.98661 11.622 7.52738V29.8528H18.5411C22.5413 29.8528 24.7575 31.4205 24.7575 34.3396C24.7575 37.2586 22.5413 38.8803 18.5411 38.8803H7.02725Z" fill="#FFAD1E"/>
</g>
</svg>
