<svg width="205" height="128" viewBox="0 0 205 128" fill="none" xmlns="http://www.w3.org/2000/svg">
<path d="M32.9776 20.5L14 7.79671V3.5H41.8089L73 5.55502L47.4458 20.5H32.9776Z" fill="#FFECCC"/>
<path d="M77 5.5L71.5117 34.5H3L12.2738 5.5L28.7393 18.1169H52.5857L77 5.5Z" fill="#FFECCC"/>
<path d="M205 30.6797C205 22.6403 201.876 15.0795 196.202 9.3942C190.528 3.70406 182.982 0.573264 174.959 0.573264C166.936 0.573264 159.39 3.70406 153.716 9.38932L148.954 14.1612L144.114 9.31117C138.44 3.6308 130.894 0.5 122.871 0.5C114.848 0.5 107.302 3.6308 101.629 9.31605C89.9154 21.0529 89.9154 40.1503 101.629 51.8871L109.052 59.3258L137.017 87.3467C137.728 88.0598 138.664 88.4212 139.6 88.4212C140.536 88.4212 141.472 88.0647 142.184 87.3467C143.612 85.9156 143.612 83.5956 142.184 82.1645L114.219 54.1436L106.795 46.7049C102.501 42.4019 100.137 36.6824 100.137 30.6016C100.137 24.5207 102.501 18.7964 106.795 14.4933C111.09 10.1903 116.798 7.82148 122.866 7.82148C128.935 7.82148 134.648 10.1903 138.937 14.4933L143.778 19.3434L137.728 25.4047C131.543 31.6028 131.543 41.6937 137.728 47.8918C140.726 50.8956 144.709 52.5513 148.949 52.5513C153.19 52.5513 157.172 50.8956 160.17 47.8918C163.168 44.888 164.82 40.8975 164.82 36.6483C164.82 32.399 163.168 28.4085 160.17 25.4047L154.121 19.3434L158.883 14.5715C163.178 10.2685 168.886 7.89962 174.954 7.89962C181.023 7.89962 186.736 10.2685 191.025 14.5715C195.319 18.8745 197.684 24.594 197.684 30.6748C197.684 36.7557 195.319 42.48 191.025 46.7782L146.361 91.5325L131.791 106.131C131.791 106.131 131.791 106.131 131.791 106.136L124.446 113.497C120.151 117.8 114.443 120.169 108.375 120.169C102.306 120.169 96.5933 117.8 92.3038 113.497C89.0429 110.229 86.8981 106.131 86.0548 101.682H94.2195C102.969 101.682 110.086 94.5509 110.086 85.7837C110.086 77.0165 102.969 69.8806 94.2195 69.8806C85.4699 69.8806 78.3533 77.0116 78.3533 85.7837V93.9257H72.0507C65.9772 93.9257 60.2693 91.5569 55.9798 87.2539C51.6854 82.9509 49.3214 77.2314 49.3214 71.1505C49.3214 65.0696 51.6367 59.4674 55.8433 55.1839C57.2569 53.7431 57.2374 51.4231 55.7994 50.0018C54.3615 48.5805 52.0461 48.6049 50.6277 50.0457C45.0611 55.7163 42 63.2088 42 71.1554C42 79.1949 45.1245 86.7557 50.7983 92.4409C56.4721 98.1262 64.0177 101.257 72.0409 101.257H78.5824C79.4208 107.836 82.3795 113.927 87.1272 118.684C92.801 124.369 100.347 127.5 108.37 127.5C116.393 127.5 123.939 124.369 129.613 118.684L136.958 111.323C136.958 111.323 136.958 111.323 136.963 111.323L151.533 96.7244L160.185 88.0549L196.197 51.9701C201.871 46.2849 204.995 38.7241 204.995 30.6846L205 30.6797ZM157.587 27.9983L155.003 30.5869C156.622 32.2085 157.509 34.3576 157.509 36.6483C157.509 38.939 156.617 41.0929 155.003 42.7096C153.39 44.3263 151.24 45.2201 148.954 45.2201C146.668 45.2201 144.518 44.3263 142.905 42.7096C139.571 39.3688 139.571 33.9277 142.905 30.582L148.954 24.5207L155.003 30.582L157.587 27.9934V27.9983ZM94.2146 77.2168C98.933 77.2168 102.769 81.0655 102.769 85.7935C102.769 90.5214 98.9281 94.3653 94.2146 94.3653H85.66V85.7935C85.66 81.0655 89.501 77.2168 94.2146 77.2168Z" fill="#FFAD1E"/>
<path d="M78.7075 2.37129C77.6365 1.17892 76.0298 0.5 74.2961 0.5H14.0064C10.9247 0.5 8.05637 2.60467 7.33021 5.39675L0.177498 32.9314C-0.253662 34.5905 0.10942 36.2709 1.17143 37.5354C2.21983 38.7829 3.84462 39.5 5.62372 39.5H68.0738C71.2598 39.5 74.1917 37.1874 74.7454 34.2341L79.9103 6.70368C80.2053 5.13366 79.765 3.55516 78.7075 2.37977V2.37129ZM39.0772 17.3246C31.3708 17.0912 24.8897 14.7023 20.8232 10.582L17.1516 6.86492H67.1842L62.1646 10.128C55.3932 14.5283 47.1966 17.0827 39.0772 17.3246ZM68.0511 33.0842C68.0511 33.0842 68.0148 33.1181 67.9966 33.1351H7.13051L12.6902 11.732L15.8218 14.9059C21.1545 20.3076 29.3783 23.4307 38.9728 23.6938C39.0046 23.6938 39.0363 23.6938 39.0681 23.6938C39.0999 23.6938 39.1316 23.6938 39.1634 23.6938C48.6217 23.4349 58.1662 20.4774 66.0405 15.36L72.0995 11.4222L68.0375 33.0884L68.0511 33.0842Z" fill="#FFAD1E"/>
</svg>
