<svg width="172" height="173" viewBox="0 0 172 173" fill="none" xmlns="http://www.w3.org/2000/svg">
<circle cx="86" cy="86.5" r="83" transform="rotate(180 86 86.5)" fill="#EEF9F9" stroke="#7EE3D5" stroke-width="6"/>
<path d="M39.4481 82.9307C40.9329 82.9307 42.138 84.1358 42.138 85.6206C42.138 88.3321 42.3532 90.9897 42.7657 93.5506H64.6582C66.1431 93.5506 67.3482 94.7557 67.3482 96.2405C67.3482 97.7254 66.1431 98.9304 64.6582 98.9304H43.9779C45.0252 102.521 46.4957 105.817 48.3643 108.664C52.1482 114.432 57.0618 117.606 62.205 117.606C67.3482 117.606 72.2618 114.432 76.0456 108.664C80.059 102.549 82.2684 94.3647 82.2684 85.6206C82.2684 84.1358 83.4735 82.9307 84.9583 82.9307C84.9583 82.9307 84.9619 82.9307 84.9655 82.9307C84.9691 82.9307 84.9691 82.9307 84.9727 82.9307C86.4575 82.9307 87.6626 84.1358 87.6626 85.6206C87.6626 88.3321 87.8778 90.9897 88.2903 93.5506H111.216C112.701 93.5506 113.906 94.7557 113.906 96.2405C113.906 97.7254 112.701 98.9304 111.216 98.9304H89.5025C90.5498 102.521 92.0203 105.817 93.8889 108.664C97.6728 114.432 102.586 117.606 107.73 117.606C112.873 117.606 117.786 114.432 121.57 108.664C125.584 102.546 127.793 94.3647 127.793 85.6206C127.793 84.1358 128.998 82.9307 130.483 82.9307C131.968 82.9307 133.173 84.1358 133.173 85.6206C133.173 95.4012 130.648 104.633 126.068 111.613C121.255 118.944 114.745 122.982 107.73 122.982C100.714 122.982 94.201 118.944 89.3913 111.613C87.5873 108.862 86.106 105.756 84.9691 102.413C83.8321 105.759 82.3509 108.862 80.5468 111.613C75.7336 118.944 69.2239 122.982 62.2086 122.982C55.1932 122.982 48.6799 118.944 43.8703 111.613C39.2867 104.63 36.7653 95.3977 36.7653 85.6206C36.7653 84.1358 37.9704 82.9307 39.4552 82.9307H39.4481Z" fill="#35D0BA"/>
<path d="M35.4074 75.2838C41.3243 75.0742 46.8869 72.6525 51.0761 68.4633L56.411 63.1283L49.8038 56.5211C44.0459 50.7632 44.0459 41.3981 49.8038 35.6403C52.5906 32.8499 56.299 31.3174 60.2424 31.3174C64.1858 31.3174 67.8942 32.8535 70.681 35.6403C76.4388 41.3981 76.4388 50.7632 70.681 56.5211L64.0737 63.1283L69.4087 68.4633C73.5726 72.6272 79.0991 75.0416 84.9762 75.2766C90.8533 75.0453 96.3799 72.6272 100.544 68.4633L105.879 63.1283L99.2715 56.5211C93.5136 50.7632 93.5136 41.3981 99.2715 35.6403C102.058 32.8499 105.767 31.3174 109.71 31.3174C113.653 31.3174 117.362 32.8535 120.149 35.6403C125.906 41.3981 125.906 50.7632 120.149 56.5211L113.541 63.1283L118.876 68.4633C123.066 72.6525 128.628 75.0742 134.545 75.2838C136.041 75.338 137.213 76.5923 137.158 78.0886C137.108 79.5525 135.904 80.7055 134.451 80.7055C134.419 80.7055 134.386 80.7055 134.354 80.7055C127.063 80.4489 120.203 77.4633 115.041 72.3019L109.706 66.9669L104.371 72.3019C99.21 77.4633 92.3497 80.4489 85.0594 80.7055C85.0377 80.7055 85.0124 80.7055 84.9907 80.7055C84.9907 80.7055 84.9835 80.7055 84.9798 80.7055C84.9798 80.7055 84.9726 80.7055 84.969 80.7055C84.9654 80.7055 84.9618 80.7055 84.9581 80.7055C84.9581 80.7055 84.9509 80.7055 84.9473 80.7055C84.9256 80.7055 84.9003 80.7055 84.8786 80.7055C77.5882 80.4489 70.728 77.4633 65.5665 72.3019L60.2316 66.9669L54.8966 72.3019C49.7351 77.4633 42.8749 80.4489 35.5845 80.7055C35.5519 80.7055 35.5194 80.7055 35.4869 80.7055C34.0339 80.7055 32.8302 79.5525 32.7796 78.0886C32.7254 76.5923 33.8965 75.338 35.3929 75.2838H35.4074ZM116.325 39.4789C114.561 37.715 112.215 36.7427 109.717 36.7427C107.22 36.7427 104.878 37.715 103.11 39.4789C99.4666 43.1222 99.4666 49.05 103.11 52.6898L109.717 59.297L116.325 52.6898C119.968 49.0464 119.968 43.1186 116.325 39.4789ZM66.8496 39.4789C65.0858 37.715 62.74 36.7427 60.2424 36.7427C57.7448 36.7427 55.4026 37.715 53.6351 39.4789C49.9918 43.1222 49.9918 49.05 53.6351 52.6898L60.2424 59.297L66.8496 52.6898C70.493 49.0464 70.493 43.1186 66.8496 39.4789Z" fill="#35D0BA"/>
<path d="M79.8379 132.462L81.6116 132.736C81.6116 132.736 81.6116 132.736 81.6151 132.735C82.8794 132.93 84.1471 132.799 85.3144 132.366C85.9543 132.129 86.5652 131.802 87.1281 131.39C88.7251 130.217 89.7746 128.496 90.0757 126.536C90.6999 122.493 87.9184 118.693 83.875 118.069C81.9153 117.768 79.9568 118.246 78.3585 119.415C76.8054 120.555 75.7776 122.216 75.4434 124.108C75.4309 124.161 75.4184 124.213 75.4108 124.268L75.1367 126.042L74.0417 125.872C72.1571 125.579 70.4954 124.571 69.3689 123.033C68.2424 121.495 67.7817 119.606 68.0711 117.723C68.36 115.86 69.3491 114.213 70.86 113.088C72.1033 112.159 72.3624 110.399 71.432 109.152C70.5028 107.909 68.7427 107.65 67.4959 108.58C64.7985 110.593 63.0292 113.533 62.5129 116.865C61.4381 123.823 66.2263 130.359 73.1848 131.434L74.2797 131.603L74.1054 132.74C73.5833 136.11 74.4069 139.484 76.4236 142.236C78.4403 144.988 81.4041 146.788 84.7772 147.309C86.9575 147.644 89.1381 147.42 91.1493 146.674C92.2498 146.265 93.2978 145.705 94.2695 144.992C95.5216 144.076 95.7926 142.315 94.8748 141.06C93.9571 139.804 92.1967 139.533 90.9424 140.454C89.4043 141.581 87.5153 142.042 85.632 141.752C83.7474 141.459 82.0856 140.452 80.9591 138.914C79.8326 137.376 79.3719 135.487 79.6614 133.603L79.837 132.47L79.8379 132.462ZM83.0202 123.626C83.4949 123.697 83.9092 123.952 84.1927 124.339C84.4762 124.725 84.5917 125.199 84.5197 125.673C84.4478 126.148 84.1935 126.562 83.8067 126.846C83.4198 127.129 82.9467 127.245 82.472 127.173L80.6984 126.899L80.9725 125.125C81.1261 124.148 82.0411 123.477 83.0202 123.626Z" fill="#7EE3D5"/>
</svg>
