<svg width="170" height="171" viewBox="0 0 170 171" fill="none" xmlns="http://www.w3.org/2000/svg">
<circle cx="80" cy="80" r="82.5" transform="matrix(1 0 0 -1 5 165.5)" fill="#EEF9F9" stroke="#7EE3D5" stroke-width="5"/>
<path d="M143.504 54.7077C141.875 54.7077 140.553 56.0296 140.553 57.6583C140.553 60.8016 139.33 63.7561 137.107 65.9828C132.52 70.5739 125.053 70.5739 120.462 65.9828L118.408 63.9292L121.139 61.199C122.984 59.3539 123.999 56.903 123.999 54.2947C123.999 51.6864 122.984 49.2354 121.139 47.3904C119.294 45.5453 116.843 44.5303 114.234 44.5303C111.626 44.5303 109.175 45.5453 107.33 47.3904C105.485 49.2354 104.47 51.6864 104.47 54.2947C104.47 56.903 105.481 59.346 107.322 61.1911C107.322 61.1911 107.326 61.195 107.33 61.199L110.06 63.9292L108.046 65.9435C105.823 68.1662 102.869 69.3897 99.7255 69.3897C96.5822 69.3897 93.6277 68.1662 91.401 65.9435C89.2058 63.7483 87.9823 60.8292 87.9547 57.7213C87.9547 57.7134 87.9547 57.7094 87.9547 57.7055C87.9547 57.6898 87.9547 57.678 87.9547 57.6622C87.9547 56.0335 86.6329 54.7117 85.0042 54.7117C83.3755 54.7117 82.0536 56.0335 82.0536 57.6622C82.0536 60.8056 80.8301 63.7601 78.6073 65.9868C74.0202 70.5778 66.5533 70.5778 61.9622 65.9868L59.9086 63.9332L62.6389 61.2029C64.484 59.3578 65.499 56.9069 65.499 54.2986C65.499 51.6903 64.484 49.2394 62.6389 47.3943C60.7938 45.5492 58.3429 44.5342 55.7346 44.5342C53.1263 44.5342 50.6754 45.5492 48.8303 47.3943C46.9852 49.2394 45.9702 51.6903 45.9702 54.2986C45.9702 56.9069 46.9852 59.3578 48.8303 61.2029L51.5605 63.9332L49.5463 65.9474C47.3235 68.1702 44.369 69.3937 41.2257 69.3937C38.0824 69.3937 35.1279 68.1702 32.9012 65.9474C30.706 63.7522 29.4825 60.8331 29.4549 57.7252C29.4392 56.1043 28.1213 54.7982 26.5044 54.7982H26.4768C24.8481 54.8061 23.542 56.1398 23.5538 57.7685C23.5931 62.4303 25.4303 66.8129 28.7271 70.1097C32.0632 73.4458 36.5009 75.2869 41.2218 75.2869C45.9427 75.2869 50.3803 73.4497 53.7164 70.1097L55.7307 68.0954L57.7842 70.149C61.2305 73.5953 65.7547 75.3145 70.2789 75.3145C74.8031 75.3145 79.3273 73.5913 82.7735 70.149C83.6194 69.3032 84.3668 68.3905 85.012 67.4188C85.6533 68.3747 86.389 69.2757 87.223 70.1097C90.5591 73.4458 94.9967 75.2869 99.7176 75.2869C104.439 75.2869 108.876 73.4497 112.212 70.1097L114.227 68.0954L116.28 70.149C119.726 73.5953 124.251 75.3145 128.775 75.3145C133.299 75.3145 137.823 73.5913 141.269 70.149C144.606 66.8129 146.447 62.3753 146.447 57.6544C146.447 56.0257 145.125 54.7038 143.496 54.7038L143.504 54.7077ZM53.0004 51.5605C53.7282 50.8327 54.6999 50.4275 55.7307 50.4275C56.7614 50.4275 57.7331 50.8287 58.4609 51.5605C59.1887 52.2922 59.5939 53.26 59.5939 54.2907C59.5939 55.3215 59.1926 56.2932 58.4609 57.021L55.7307 59.7512L53.0004 57.021C52.2726 56.2932 51.8674 55.3215 51.8674 54.2907C51.8674 53.26 52.2687 52.2883 53.0004 51.5605ZM111.5 51.5605C112.228 50.8327 113.2 50.4275 114.23 50.4275C115.261 50.4275 116.233 50.8287 116.961 51.5605C117.689 52.2922 118.094 53.26 118.094 54.2907C118.094 55.3215 117.692 56.2932 116.961 57.021L114.23 59.7512L111.5 57.021C110.772 56.2932 110.371 55.3215 110.371 54.2907C110.371 53.26 110.772 52.2883 111.504 51.5605H111.5Z" fill="#35D0BA"/>
<path d="M134.755 77.4453C133.126 77.4453 131.804 78.7672 131.804 80.3959C131.804 89.9872 129.381 98.9608 124.978 105.672C120.828 111.998 115.438 115.48 109.797 115.48C104.155 115.48 98.7656 111.998 94.6152 105.672C90.2129 98.9647 87.7895 89.9872 87.7895 80.3959C87.7895 78.7672 86.4677 77.4453 84.839 77.4453C84.839 77.4453 84.835 77.4453 84.8311 77.4453C84.8272 77.4453 84.8272 77.4453 84.8232 77.4453C83.1945 77.4453 81.8727 78.7672 81.8727 80.3959C81.8727 89.9872 79.4493 98.9608 75.047 105.672C70.8966 111.998 65.5069 115.48 59.8654 115.48C54.2239 115.48 48.8342 111.998 44.6838 105.672C40.2815 98.9647 37.8582 89.9872 37.8582 80.3959C37.8582 78.7672 36.5363 77.4453 34.9076 77.4453C33.2789 77.4453 31.957 78.7672 31.957 80.3959C31.957 91.1241 34.7266 101.25 39.7504 108.906C45.03 116.947 52.1703 121.377 59.8654 121.377C67.5605 121.377 74.7048 116.947 79.9804 108.906C81.9592 105.889 83.584 102.482 84.8311 98.8153C86.0782 102.486 87.703 105.889 89.6818 108.906C94.9614 116.947 102.102 121.377 109.797 121.377C117.492 121.377 124.636 116.947 129.912 108.906C134.939 101.247 137.705 91.1202 137.705 80.3959C137.705 78.7672 136.383 77.4453 134.755 77.4453Z" fill="#35D0BA"/>
<path d="M101.189 107.649C108.8 107.649 114.97 101.479 114.97 93.8675C114.97 86.2564 108.8 80.0864 101.189 80.0864C93.5782 80.0864 87.4082 86.2564 87.4082 93.8675C87.4082 101.479 93.5782 107.649 101.189 107.649Z" fill="#35D0BA"/>
<path d="M51.2537 107.649C58.8648 107.649 65.0348 101.479 65.0348 93.8675C65.0348 86.2564 58.8648 80.0864 51.2537 80.0864C43.6427 80.0864 37.4727 86.2564 37.4727 93.8675C37.4727 101.479 43.6427 107.649 51.2537 107.649Z" fill="#35D0BA"/>
<path d="M81.1716 125.841L82.893 126.182C82.893 126.182 82.893 126.182 82.8965 126.181C84.1235 126.424 85.3673 126.349 86.5257 125.974C87.1607 125.769 87.7674 125.476 88.3379 125.095C89.9466 124.016 91.0432 122.378 91.4184 120.476C91.7937 118.574 91.4074 116.641 90.3316 115.031C89.2524 113.422 87.6143 112.326 85.7124 111.95C83.8104 111.575 81.8773 111.961 80.2674 113.037C78.6832 114.097 77.5997 115.704 77.2085 117.568C77.2025 117.597 77.1929 117.627 77.1869 117.656L76.8457 119.378L75.783 119.167C73.9506 118.803 72.3724 117.749 71.3355 116.2C70.2987 114.651 69.9268 112.786 70.2875 110.958C70.6469 109.15 71.6813 107.582 73.2027 106.543C74.4558 105.687 74.7818 103.978 73.9244 102.721C73.0682 101.468 71.356 101.143 70.1029 102C67.3844 103.854 65.5307 106.654 64.892 109.886C63.5539 116.64 67.9611 123.223 74.7145 124.561L75.7772 124.772L75.5598 125.875C74.2217 132.629 78.6289 139.212 85.3824 140.55C87.4985 140.968 89.638 140.838 91.6337 140.193C92.7257 139.84 93.7728 139.335 94.7515 138.679C96.0126 137.836 96.3537 136.126 95.5068 134.866C94.6622 133.602 92.9536 133.264 91.6936 134.111C90.1444 135.148 88.2799 135.52 86.452 135.159C84.6195 134.796 83.0414 133.742 82.0045 132.193C80.9677 130.643 80.5958 128.779 80.9565 126.951L81.1739 125.848L81.1716 125.841ZM84.6473 117.344C85.1081 117.434 85.5023 117.699 85.7632 118.089C86.0242 118.478 86.1174 118.945 86.0275 119.406C85.9376 119.867 85.672 120.261 85.2824 120.522C84.8927 120.783 84.4257 120.876 83.965 120.786L82.2436 120.445L82.5848 118.724C82.7753 117.776 83.7004 117.157 84.6473 117.344Z" fill="#7EE3D5"/>
</svg>
