<svg width="170" height="171" viewBox="0 0 170 171" fill="none" xmlns="http://www.w3.org/2000/svg">
<circle cx="80" cy="80" r="82.5" transform="matrix(1 0 0 -1 5 165.5)" fill="#EEF9F9" stroke="#7EE3D5" stroke-width="5"/>
<path d="M47.084 73.0973C51.6162 73.0973 55.8765 71.3335 59.0793 68.1269L61.0131 66.1932L62.9846 68.1647C66.2931 71.4732 70.6365 73.1237 74.9799 73.1237C78.5151 73.1237 82.0502 72.0284 85.0264 69.8378C87.9119 71.9491 91.3753 73.0935 95.02 73.0935C99.5523 73.0935 103.813 71.3297 107.015 68.1231L108.949 66.1894L110.921 68.1609C114.229 71.4695 118.573 73.1199 122.916 73.1199C127.259 73.1199 131.603 71.4657 134.911 68.1609C138.114 64.9581 139.882 60.6978 139.882 56.1656C139.882 54.6019 138.613 53.3329 137.049 53.3329C135.485 53.3329 134.216 54.6019 134.216 56.1656C134.216 59.1833 133.042 62.0197 130.908 64.1574C126.5 68.565 119.336 68.5613 114.928 64.1574L112.956 62.1859L115.578 59.5648C115.593 59.5496 115.604 59.5345 115.615 59.5232C115.668 59.4666 115.721 59.4099 115.77 59.3495C119.218 55.6821 119.162 49.896 115.574 46.3079C111.918 42.6519 105.973 42.6519 102.317 46.3079C98.7327 49.8922 98.6722 55.6783 102.121 59.3495C102.17 59.4099 102.223 59.4666 102.275 59.5232C102.29 59.5383 102.302 59.5534 102.313 59.5648L104.934 62.1859L103.001 64.1197C100.867 66.2536 98.0302 67.4282 95.0087 67.4282C92.8483 67.4282 90.7861 66.8239 89.0035 65.7022C90.907 62.9111 91.9305 59.6214 91.9305 56.1693C91.9305 54.6057 90.6615 53.3367 89.0979 53.3367C87.5343 53.3367 86.2652 54.6057 86.2652 56.1693C86.2652 58.0125 85.8233 59.7876 84.9962 61.3776C84.1691 59.8065 83.7234 58.0502 83.7083 56.2298C83.6932 54.6737 82.4279 53.4198 80.8756 53.4198H80.8492C79.2856 53.4349 78.0279 54.7115 78.0392 56.2751C78.0694 59.6932 79.1081 62.9564 81.0078 65.7173C79.2176 66.8579 77.1365 67.4697 74.961 67.4697C71.9433 67.4697 69.1069 66.2951 66.973 64.1612L65.0014 62.1897L67.6188 59.5723C67.6188 59.5723 67.6188 59.5723 67.6226 59.5723C71.2786 55.9163 71.2786 49.9715 67.6226 46.3155C65.8512 44.5441 63.4982 43.5697 60.9942 43.5697C58.4901 43.5697 56.1371 44.5441 54.3658 46.3155C50.7815 49.8997 50.7211 55.6897 54.1694 59.357C54.2298 59.4326 54.294 59.5043 54.3658 59.5723L56.9869 62.1935L55.0532 64.1272C52.9192 66.2611 50.0828 67.4358 47.0651 67.4358C44.0473 67.4358 41.2109 66.2611 39.0732 64.1272C36.9657 62.0197 35.7911 59.2173 35.7647 56.2335C35.7496 54.6775 34.4843 53.4236 32.932 53.4236H32.9056C31.3608 53.4349 30.1069 54.7152 30.1182 56.2789C30.156 60.7545 31.9198 64.9619 35.0848 68.1269C38.2876 71.3297 42.5479 73.0973 47.0802 73.0973H47.084ZM106.328 50.319C107.775 48.8724 110.128 48.8724 111.57 50.319C113.017 51.7655 113.017 54.1185 111.57 55.565L108.949 58.1862L106.328 55.565C104.881 54.1185 104.881 51.7655 106.328 50.319ZM58.3881 50.319C59.0868 49.6202 60.0197 49.2312 61.0093 49.2312C61.9988 49.2312 62.9317 49.6165 63.6304 50.319C65.077 51.7655 65.077 54.1185 63.6304 55.5613C63.6304 55.5613 63.6304 55.5613 63.6304 55.565L61.0131 58.1824L58.3919 55.5613C57.6894 54.8625 57.3042 53.9297 57.3042 52.9401C57.3042 51.9506 57.6894 51.0177 58.3919 50.319H58.3881Z" fill="#35D0BA"/>
<path d="M132.937 75.8228C131.373 75.8228 130.104 77.0918 130.104 78.6554C130.104 87.8634 127.777 96.4785 123.551 102.918C119.566 108.991 114.388 112.334 108.976 112.334C103.564 112.334 98.3857 108.991 94.4011 102.918C92.5617 100.116 91.085 96.9015 90.001 93.4079H114.486C116.05 93.4079 117.319 92.1388 117.319 90.5752C117.319 89.0116 116.05 87.7426 114.486 87.7426H89.8084C89.408 87.7426 89.0266 87.8257 88.6791 87.9767C88.1352 84.9854 87.8444 81.8544 87.8444 78.6554C87.8444 77.0918 86.5754 75.8228 85.0118 75.8228C85.0118 75.8228 85.008 75.8228 85.0042 75.8228C85.0004 75.8228 85.0004 75.8228 84.9967 75.8228C83.433 75.8228 82.164 77.0918 82.164 78.6554C82.164 87.8634 79.8374 96.4785 75.6111 102.918C71.6265 108.991 66.4484 112.334 61.0362 112.334C55.6239 112.334 50.4458 108.991 46.4612 102.918C44.6219 100.116 43.1451 96.9015 42.0612 93.4079H63.0606C64.6242 93.4079 65.8932 92.1388 65.8932 90.5752C65.8932 89.0116 64.6242 87.7426 63.0606 87.7426H40.6939C40.1765 84.8193 39.9046 81.7713 39.9046 78.6554C39.9046 77.0918 38.6355 75.8228 37.0719 75.8228C35.5083 75.8228 34.2393 77.0918 34.2393 78.6554C34.2393 82.9573 34.7076 87.1571 35.6027 91.1266C35.6027 91.1455 35.6103 91.1644 35.614 91.1833C36.8566 96.6938 38.9226 101.762 41.7212 106.03C46.7898 113.75 53.6448 118.003 61.0324 118.003C68.42 118.003 75.2788 113.75 80.3435 106.03C82.2433 103.133 83.8032 99.8625 85.0004 96.3425C86.1977 99.8663 87.7575 103.133 89.6573 106.03C94.7259 113.75 101.581 118.003 108.968 118.003C116.356 118.003 123.215 113.75 128.28 106.03C133.106 98.6766 135.762 88.9549 135.762 78.6592C135.762 77.0956 134.493 75.8265 132.929 75.8265L132.937 75.8228Z" fill="#35D0BA"/>
<path d="M80.4779 125.757L82.3458 126.045C82.3458 126.045 82.3458 126.045 82.3495 126.044C83.681 126.249 85.016 126.112 86.2454 125.656C86.9193 125.406 87.5626 125.062 88.1554 124.627C89.8373 123.393 90.9426 121.58 91.2597 119.516C91.917 115.258 88.9877 111.256 84.7294 110.599C82.6657 110.282 80.6031 110.785 78.9198 112.016C77.2842 113.217 76.2018 114.966 75.8498 116.959C75.8367 117.014 75.8236 117.07 75.8155 117.128L75.5268 118.995L74.3737 118.817C72.3889 118.508 70.6389 117.447 69.4526 115.827C68.2662 114.207 67.781 112.218 68.0858 110.234C68.3901 108.272 69.4317 106.538 71.0229 105.354C72.3323 104.375 72.6052 102.522 71.6253 101.209C70.6467 99.8993 68.7931 99.6264 67.4801 100.606C64.6393 102.726 62.776 105.822 62.2323 109.331C61.1003 116.659 66.143 123.542 73.4712 124.674L74.6244 124.853L74.4407 126.05C73.8909 129.598 74.7583 133.152 76.8822 136.05C79.006 138.948 82.1273 140.844 85.6796 141.393C87.9758 141.746 90.2722 141.509 92.3903 140.724C93.5493 140.294 94.653 139.703 95.6763 138.953C96.9949 137.988 97.2803 136.134 96.3138 134.811C95.3473 133.489 93.4933 133.204 92.1724 134.174C90.5526 135.36 88.5632 135.846 86.5798 135.541C84.595 135.232 82.845 134.171 81.6587 132.551C80.4723 130.931 79.9871 128.942 80.2919 126.959L80.4769 125.765L80.4779 125.757ZM83.8293 116.451C84.3292 116.527 84.7655 116.794 85.064 117.202C85.3626 117.609 85.4842 118.107 85.4085 118.607C85.3327 119.107 85.0649 119.544 84.6575 119.842C84.2501 120.141 83.7518 120.262 83.252 120.187L81.3841 119.898L81.6727 118.03C81.8345 117.001 82.7981 116.294 83.8293 116.451Z" fill="#7EE3D5"/>
</svg>
