<svg width="160" height="161" viewBox="0 0 160 161" fill="none" xmlns="http://www.w3.org/2000/svg">
<circle cx="80" cy="80" r="80" transform="matrix(1 0 0 -1 0 160.5)" fill="#EEF9F9"/>
<path d="M56.0648 47.4295C57.2883 47.4295 58.2801 46.4377 58.2801 45.2142C58.2801 43.9908 57.2883 42.999 56.0648 42.999C54.8414 42.999 53.8496 43.9908 53.8496 45.2142C53.8496 46.4377 54.8414 47.4295 56.0648 47.4295Z" fill="#35D0BA"/>
<path d="M105.993 47.4295C107.216 47.4295 108.208 46.4377 108.208 45.2142C108.208 43.9908 107.216 42.999 105.993 42.999C104.769 42.999 103.777 43.9908 103.777 45.2142C103.777 46.4377 104.769 47.4295 105.993 47.4295Z" fill="#35D0BA"/>
<path d="M130.954 65.1587C129.325 65.1587 128.003 66.4807 128.003 68.1097C128.003 77.7024 125.579 86.6774 121.176 93.39C117.025 99.717 111.634 103.199 105.992 103.199C100.35 103.199 94.9592 99.717 90.8081 93.39C86.4052 86.6814 83.9814 77.7024 83.9814 68.1097C83.9814 66.4807 82.6594 65.1587 81.0304 65.1587C79.4015 65.1587 78.0794 66.4807 78.0794 68.1097C78.0794 77.7024 75.6557 86.6774 71.2528 93.39C67.1017 99.717 61.7072 103.199 56.0688 103.199C50.4304 103.199 45.036 99.717 40.8849 93.39C36.482 86.6814 34.0583 77.7024 34.0583 68.1097C34.0583 66.4807 32.7362 65.1587 31.1073 65.1587C29.4783 65.1587 28.1562 66.4807 28.1562 68.1097C28.1562 78.8396 30.9263 88.9674 35.9508 96.6243C41.2312 104.667 48.3726 109.097 56.0688 109.097C63.7651 109.097 70.9104 104.667 76.1868 96.6243C78.162 93.6143 79.7831 90.2147 81.0304 86.5555C82.2777 90.2147 83.8988 93.6143 85.874 96.6243C91.1543 104.667 98.2958 109.097 105.992 109.097C113.688 109.097 120.834 104.667 126.11 96.6243C131.139 88.9635 133.905 78.8356 133.905 68.1097C133.905 66.4807 132.583 65.1587 130.954 65.1587Z" fill="#35D0BA"/>
<path d="M96.7295 100.91C104.342 100.91 110.513 94.7387 110.513 87.1264C110.513 79.5142 104.342 73.3433 96.7295 73.3433C89.1172 73.3433 82.9463 79.5142 82.9463 87.1264C82.9463 94.7387 89.1172 100.91 96.7295 100.91Z" fill="#35D0BA"/>
<path d="M46.7871 100.91C54.3993 100.91 60.5702 94.7387 60.5702 87.1264C60.5702 79.5142 54.3993 73.3433 46.7871 73.3433C39.1748 73.3433 33.0039 79.5142 33.0039 87.1264C33.0039 94.7387 39.1748 100.91 46.7871 100.91Z" fill="#35D0BA"/>
<path d="M94.1285 122.125H67.9315C66.3025 122.125 64.9805 120.803 64.9805 119.174C64.9805 117.545 66.3025 116.223 67.9315 116.223H94.1285C95.7575 116.223 97.0796 117.545 97.0796 119.174C97.0796 120.803 95.7575 122.125 94.1285 122.125Z" fill="#7EE3D5"/>
</svg>
