<svg width="24" height="24" viewBox="0 0 24 24" fill="none" xmlns="http://www.w3.org/2000/svg">
<path d="M13.4443 12.7941V4.1692C13.4443 3.21493 14.3265 2.44238 15.4138 2.44238C16.502 2.44238 17.3832 3.21595 17.3832 4.1692V12.7941C17.3832 13.7484 16.501 14.5209 15.4138 14.5209C14.3255 14.5209 13.4443 13.7474 13.4443 12.7941Z" fill="#DDF6F6"/>
<path d="M6.61719 12.7941V4.1692C6.61719 3.21595 7.49937 2.44238 8.58663 2.44238C9.6749 2.44238 10.5561 3.21595 10.5561 4.1692V12.7941C10.5561 13.7484 9.67388 14.5209 8.58663 14.5209C7.49836 14.5209 6.61719 13.7474 6.61719 12.7941Z" fill="#DDF6F6"/>
<path d="M15.4145 21.0126C16.385 21.0126 17.1718 20.2258 17.1718 19.2553C17.1718 18.2848 16.385 17.498 15.4145 17.498C14.444 17.498 13.6572 18.2848 13.6572 19.2553C13.6572 20.2258 14.444 21.0126 15.4145 21.0126Z" fill="#DDF6F6"/>
<path d="M8.79877 21.0126C9.76928 21.0126 10.556 20.2258 10.556 19.2553C10.556 18.2848 9.76928 17.498 8.79877 17.498C7.82826 17.498 7.0415 18.2848 7.0415 19.2553C7.0415 20.2258 7.82826 21.0126 8.79877 21.0126Z" fill="#DDF6F6"/>
<path d="M10.1916 18.1946L8.79883 16.8018" stroke="#35D0BA" stroke-width="1.37132" stroke-linecap="round" stroke-linejoin="round"/>
<path d="M8.79858 16.8018L7.40576 18.1946" stroke="#35D0BA" stroke-width="1.37132" stroke-linecap="round" stroke-linejoin="round"/>
<path d="M10.1914 18.1953C10.9609 18.9648 10.9609 20.2115 10.1914 20.981C9.42188 21.7505 8.17524 21.7505 7.40574 20.981C6.63624 20.2115 6.63624 18.9648 7.40574 18.1953" stroke="#35D0BA" stroke-width="1.37132" stroke-linecap="round" stroke-linejoin="round"/>
<path d="M6.8291 12.7941V4.1692C6.8291 3.21493 7.71129 2.44238 8.79854 2.44238C9.88681 2.44238 10.768 3.21595 10.768 4.1692V12.7941C10.768 13.7484 9.88579 14.5209 8.79854 14.5209C7.71027 14.5209 6.8291 13.7474 6.8291 12.7941Z" stroke="#35D0BA" stroke-width="1.37132" stroke-linecap="round" stroke-linejoin="round"/>
<path d="M16.7791 18.1946L15.3862 16.8018" stroke="#35D0BA" stroke-width="1.37132" stroke-linecap="round" stroke-linejoin="round"/>
<path d="M15.386 16.8018L13.9932 18.1946" stroke="#35D0BA" stroke-width="1.37132" stroke-linecap="round" stroke-linejoin="round"/>
<path d="M16.7788 18.1953C17.5483 18.9648 17.5483 20.2115 16.7788 20.981C16.0093 21.7505 14.7626 21.7505 13.9931 20.981C13.2236 20.2115 13.2236 18.9648 13.9931 18.1953" stroke="#35D0BA" stroke-width="1.37132" stroke-linecap="round" stroke-linejoin="round"/>
<path d="M13.4165 12.7941V4.1692C13.4165 3.21493 14.2987 2.44238 15.3859 2.44238C16.4742 2.44238 17.3554 3.21595 17.3554 4.1692V12.7941C17.3554 13.7484 16.4732 14.5209 15.3859 14.5209C14.2977 14.5209 13.4165 13.7474 13.4165 12.7941Z" stroke="#35D0BA" stroke-width="1.37132" stroke-linecap="round" stroke-linejoin="round"/>
</svg>
