<svg width="160" height="161" viewBox="0 0 160 161" fill="none" xmlns="http://www.w3.org/2000/svg">
<circle cx="80" cy="80" r="80" transform="matrix(1 0 0 -1 0 160.5)" fill="#EEF9F9"/>
<path d="M42.084 68.0973C46.6162 68.0973 50.8765 66.3335 54.0793 63.1269L56.0131 61.1932L57.9846 63.1647C61.2931 66.4732 65.6365 68.1237 69.9799 68.1237C73.5151 68.1237 77.0502 67.0284 80.0264 64.8378C82.9119 66.9491 86.3753 68.0935 90.02 68.0935C94.5523 68.0935 98.8126 66.3297 102.015 63.1231L103.949 61.1894L105.921 63.1609C109.229 66.4695 113.573 68.1199 117.916 68.1199C122.259 68.1199 126.603 66.4657 129.911 63.1609C133.114 59.9581 134.882 55.6978 134.882 51.1656C134.882 49.6019 133.613 48.3329 132.049 48.3329C130.485 48.3329 129.216 49.6019 129.216 51.1656C129.216 54.1833 128.042 57.0197 125.908 59.1574C121.5 63.565 114.336 63.5613 109.928 59.1574L107.956 57.1859L110.578 54.5648C110.593 54.5496 110.604 54.5345 110.615 54.5232C110.668 54.4666 110.721 54.4099 110.77 54.3495C114.218 50.6821 114.162 44.896 110.574 41.3079C106.918 37.6519 100.973 37.6519 97.3169 41.3079C93.7327 44.8922 93.6722 50.6783 97.1205 54.3495C97.1696 54.4099 97.2225 54.4666 97.2754 54.5232C97.2905 54.5383 97.3018 54.5534 97.3132 54.5648L99.9343 57.1859L98.0005 59.1197C95.8666 61.2536 93.0302 62.4282 90.0087 62.4282C87.8483 62.4282 85.7861 61.8239 84.0035 60.7022C85.907 57.9111 86.9305 54.6214 86.9305 51.1693C86.9305 49.6057 85.6615 48.3367 84.0979 48.3367C82.5343 48.3367 81.2652 49.6057 81.2652 51.1693C81.2652 53.0125 80.8233 54.7876 79.9962 56.3776C79.1691 54.8065 78.7234 53.0502 78.7083 51.2298C78.6932 49.6737 77.4279 48.4198 75.8756 48.4198H75.8492C74.2856 48.4349 73.0279 49.7115 73.0392 51.2751C73.0694 54.6932 74.1081 57.9564 76.0078 60.7173C74.2176 61.8579 72.1365 62.4697 69.961 62.4697C66.9433 62.4697 64.1069 61.2951 61.973 59.1612L60.0014 57.1897L62.6188 54.5723C62.6188 54.5723 62.6188 54.5723 62.6226 54.5723C66.2786 50.9163 66.2786 44.9715 62.6226 41.3155C60.8512 39.5441 58.4982 38.5697 55.9942 38.5697C53.4901 38.5697 51.1371 39.5441 49.3658 41.3155C45.7815 44.8997 45.7211 50.6897 49.1694 54.357C49.2298 54.4326 49.294 54.5043 49.3658 54.5723L51.9869 57.1935L50.0532 59.1272C47.9192 61.2611 45.0828 62.4358 42.0651 62.4358C39.0473 62.4358 36.2109 61.2611 34.0732 59.1272C31.9657 57.0197 30.7911 54.2173 30.7647 51.2335C30.7496 49.6775 29.4843 48.4236 27.932 48.4236H27.9056C26.3608 48.4349 25.1069 49.7152 25.1182 51.2789C25.156 55.7545 26.9198 59.9619 30.0848 63.1269C33.2876 66.3297 37.5479 68.0973 42.0802 68.0973H42.084ZM101.328 45.319C102.775 43.8724 105.128 43.8724 106.57 45.319C108.017 46.7655 108.017 49.1185 106.57 50.565L103.949 53.1862L101.328 50.565C99.8814 49.1185 99.8814 46.7655 101.328 45.319ZM53.3881 45.319C54.0868 44.6202 55.0197 44.2312 56.0093 44.2312C56.9988 44.2312 57.9317 44.6165 58.6304 45.319C60.077 46.7655 60.077 49.1185 58.6304 50.5613C58.6304 50.5613 58.6304 50.5613 58.6304 50.565L56.0131 53.1824L53.3919 50.5613C52.6894 49.8625 52.3042 48.9297 52.3042 47.9401C52.3042 46.9506 52.6894 46.0177 53.3919 45.319H53.3881Z" fill="#35D0BA"/>
<path d="M127.937 70.8228C126.373 70.8228 125.104 72.0918 125.104 73.6554C125.104 82.8634 122.777 91.4785 118.551 97.918C114.566 103.991 109.388 107.334 103.976 107.334C98.5638 107.334 93.3857 103.991 89.4011 97.918C87.5617 95.1156 86.085 91.9015 85.001 88.4079H109.486C111.05 88.4079 112.319 87.1388 112.319 85.5752C112.319 84.0116 111.05 82.7426 109.486 82.7426H84.8084C84.408 82.7426 84.0266 82.8257 83.6791 82.9767C83.1352 79.9854 82.8444 76.8544 82.8444 73.6554C82.8444 72.0918 81.5754 70.8228 80.0118 70.8228C80.0118 70.8228 80.008 70.8228 80.0042 70.8228C80.0004 70.8228 80.0004 70.8228 79.9967 70.8228C78.433 70.8228 77.164 72.0918 77.164 73.6554C77.164 82.8634 74.8374 91.4785 70.6111 97.918C66.6265 103.991 61.4484 107.334 56.0362 107.334C50.6239 107.334 45.4458 103.991 41.4612 97.918C39.6219 95.1156 38.1451 91.9015 37.0612 88.4079H58.0606C59.6242 88.4079 60.8932 87.1388 60.8932 85.5752C60.8932 84.0116 59.6242 82.7426 58.0606 82.7426H35.6939C35.1765 79.8193 34.9046 76.7713 34.9046 73.6554C34.9046 72.0918 33.6355 70.8228 32.0719 70.8228C30.5083 70.8228 29.2393 72.0918 29.2393 73.6554C29.2393 77.9573 29.7076 82.1571 30.6027 86.1266C30.6027 86.1455 30.6103 86.1644 30.614 86.1833C31.8566 91.6938 33.9226 96.7623 36.7212 101.03C41.7898 108.75 48.6448 113.003 56.0324 113.003C63.42 113.003 70.2788 108.75 75.3435 101.03C77.2433 98.1333 78.8032 94.8625 80.0004 91.3425C81.1977 94.8663 82.7575 98.1333 84.6573 101.03C89.7259 108.75 96.5809 113.003 103.968 113.003C111.356 113.003 118.215 108.75 123.28 101.03C128.106 93.6766 130.762 83.9549 130.762 73.6592C130.762 72.0956 129.493 70.8265 127.929 70.8265L127.937 70.8228Z" fill="#35D0BA"/>
<path d="M75.4779 120.757L77.3458 121.045C77.3458 121.045 77.3458 121.045 77.3495 121.044C78.681 121.249 80.016 121.112 81.2454 120.656C81.9193 120.406 82.5626 120.062 83.1554 119.627C84.8373 118.393 85.9426 116.58 86.2597 114.516C86.917 110.258 83.9877 106.256 79.7294 105.599C77.6657 105.282 75.6031 105.785 73.9198 107.016C72.2842 108.217 71.2018 109.966 70.8498 111.959C70.8367 112.014 70.8236 112.07 70.8155 112.128L70.5268 113.995L69.3737 113.817C67.3889 113.508 65.6389 112.447 64.4526 110.827C63.2662 109.207 62.781 107.218 63.0858 105.234C63.3901 103.272 64.4317 101.538 66.0229 100.354C67.3323 99.3753 67.6052 97.5217 66.6253 96.2086C65.6467 94.8993 63.7931 94.6264 62.4801 95.6063C59.6393 97.7257 57.776 100.822 57.2323 104.331C56.1003 111.659 61.143 118.542 68.4712 119.674L69.6244 119.853L69.4407 121.05C68.8909 124.598 69.7583 128.152 71.8822 131.05C74.006 133.948 77.1273 135.844 80.6796 136.393C82.9758 136.746 85.2722 136.509 87.3903 135.724C88.5493 135.294 89.653 134.703 90.6763 133.953C91.9949 132.988 92.2803 131.134 91.3138 129.811C90.3473 128.489 88.4933 128.204 87.1724 129.174C85.5526 130.36 83.5632 130.846 81.5798 130.541C79.595 130.232 77.845 129.171 76.6587 127.551C75.4723 125.931 74.9871 123.942 75.2919 121.959L75.4769 120.765L75.4779 120.757ZM78.8293 111.451C79.3292 111.527 79.7655 111.794 80.064 112.202C80.3626 112.609 80.4842 113.107 80.4085 113.607C80.3327 114.107 80.0649 114.544 79.6575 114.842C79.2501 115.141 78.7518 115.262 78.252 115.187L76.3841 114.898L76.6727 113.03C76.8345 112.001 77.7981 111.294 78.8293 111.451Z" fill="#7EE3D5"/>
</svg>
