<svg width="24" height="24" viewBox="0 0 24 24" fill="none" xmlns="http://www.w3.org/2000/svg">
<path d="M12.0002 22.0054C17.5259 22.0054 22.0054 17.5259 22.0054 12.0002C22.0054 6.47457 17.5259 1.99512 12.0002 1.99512C6.47457 1.99512 1.99512 6.47457 1.99512 12.0002C1.99512 17.5259 6.47457 22.0054 12.0002 22.0054Z" fill="#DDF6F6"/>
<path d="M12.2185 18.8982C14.0214 18.8982 15.483 18.4848 15.483 17.975C15.483 17.4651 14.0214 17.0518 12.2185 17.0518C10.4156 17.0518 8.9541 17.4651 8.9541 17.975C8.9541 18.4848 10.4156 18.8982 12.2185 18.8982Z" fill="#B2EDE3"/>
<path d="M6.53223 15.5303C7.21323 17.7366 9.61146 19.263 12.2709 19.2069C14.8277 19.1537 17.0692 17.6502 17.7227 15.5303H6.53223Z" stroke="#35D0BA" stroke-width="1.4" stroke-linecap="round" stroke-linejoin="round"/>
<path d="M12.0002 5.91699C12.0002 6.46502 11.7912 7.0121 11.3733 7.43001C10.5375 8.26583 9.1831 8.26583 8.34729 7.43001L7.74512 6.82784" stroke="#35D0BA" stroke-width="1.4" stroke-linecap="round" stroke-linejoin="round"/>
<path d="M7.04492 6.12793L7.74492 6.82793" stroke="#35D0BA" stroke-width="1.4" stroke-linecap="round" stroke-linejoin="round"/>
<path d="M7.74512 6.82793L8.44512 6.12793" stroke="#35D0BA" stroke-width="1.4" stroke-linecap="round" stroke-linejoin="round"/>
<path d="M7.74501 6.82817L7.14949 7.42369C6.31367 8.2595 4.95926 8.2595 4.12345 7.42369C3.71029 7.01053 3.50133 6.47104 3.49658 5.92871" stroke="#35D0BA" stroke-width="1.4" stroke-linecap="round" stroke-linejoin="round"/>
<path d="M7.0453 6.12837C6.65873 5.7418 6.65873 5.11494 7.0453 4.72742C7.43186 4.34086 8.05873 4.34086 8.44624 4.72742C8.83281 5.11399 8.83281 5.74085 8.44624 6.12837" stroke="#35D0BA" stroke-width="1.4" stroke-linecap="round" stroke-linejoin="round"/>
<path d="M20.5031 5.91699C20.5031 6.46502 20.2942 7.0121 19.8763 7.43001C19.0404 8.26583 17.686 8.26583 16.8502 7.43001L16.248 6.82784" stroke="#35D0BA" stroke-width="1.4" stroke-linecap="round" stroke-linejoin="round"/>
<path d="M15.5479 6.12793L16.2478 6.82793" stroke="#35D0BA" stroke-width="1.4" stroke-linecap="round" stroke-linejoin="round"/>
<path d="M16.249 6.82793L16.949 6.12793" stroke="#35D0BA" stroke-width="1.4" stroke-linecap="round" stroke-linejoin="round"/>
<path d="M16.2479 6.82817L15.6524 7.42369C14.8166 8.2595 13.4622 8.2595 12.6264 7.42369C12.2132 7.01053 12.0043 6.47104 11.9995 5.92871" stroke="#35D0BA" stroke-width="1.4" stroke-linecap="round" stroke-linejoin="round"/>
<path d="M15.5482 6.12837C15.1617 5.7418 15.1617 5.11494 15.5482 4.72742C15.9348 4.34086 16.5617 4.34086 16.9492 4.72742C17.3357 5.11399 17.3357 5.74085 16.9492 6.12837" stroke="#35D0BA" stroke-width="1.4" stroke-linecap="round" stroke-linejoin="round"/>
<path d="M4.70264 12.2486C4.81186 12.0843 5.53181 11.0424 6.87387 10.8733C8.00697 10.7309 9.14672 11.2656 9.82677 12.2486" stroke="#35D0BA" stroke-width="1.4" stroke-linecap="round" stroke-linejoin="round"/>
<path d="M14.1733 12.2486C14.2826 12.0843 15.0025 11.0424 16.3446 10.8733C17.4777 10.7309 18.6174 11.2656 19.2975 12.2486" stroke="#35D0BA" stroke-width="1.4" stroke-linecap="round" stroke-linejoin="round"/>
</svg>
