<svg width="170" height="171" viewBox="0 0 170 171" fill="none" xmlns="http://www.w3.org/2000/svg">
<circle cx="85" cy="85.5" r="82.5" transform="rotate(180 85 85.5)" fill="#EEF9F9" stroke="#7EE3D5" stroke-width="5"/>
<path d="M108.933 52.4295C107.71 52.4295 106.718 51.4377 106.718 50.2142C106.718 48.9908 107.71 47.999 108.933 47.999C110.157 47.999 111.148 48.9908 111.148 50.2142C111.148 51.4377 110.157 52.4295 108.933 52.4295Z" fill="#35D0BA"/>
<path d="M59.0055 52.4295C57.782 52.4295 56.7903 51.4377 56.7903 50.2142C56.7903 48.9908 57.782 47.999 59.0055 47.999C60.2289 47.999 61.2207 48.9908 61.2207 50.2142C61.2207 51.4377 60.2289 52.4295 59.0055 52.4295Z" fill="#35D0BA"/>
<path d="M34.0445 70.1587C35.6734 70.1587 36.9955 71.4807 36.9955 73.1097C36.9955 82.7024 39.4192 91.6774 43.8221 98.39C47.9732 104.717 53.3637 108.199 59.006 108.199C64.6484 108.199 70.0389 104.717 74.1899 98.39C78.5929 91.6814 81.0166 82.7024 81.0166 73.1097C81.0166 71.4807 82.3387 70.1587 83.9676 70.1587C85.5966 70.1587 86.9186 71.4807 86.9186 73.1097C86.9186 82.7024 89.3424 91.6774 93.7453 98.39C97.8964 104.717 103.291 108.199 108.929 108.199C114.568 108.199 119.962 104.717 124.113 98.39C128.516 91.6814 130.94 82.7024 130.94 73.1097C130.94 71.4807 132.262 70.1587 133.891 70.1587C135.52 70.1587 136.842 71.4807 136.842 73.1097C136.842 83.8396 134.072 93.9674 129.047 101.624C123.767 109.667 116.625 114.097 108.929 114.097C101.233 114.097 94.0876 109.667 88.8112 101.624C86.836 98.6143 85.2149 95.2147 83.9676 91.5555C82.7203 95.2147 81.0992 98.6143 79.124 101.624C73.8437 109.667 66.7023 114.097 59.006 114.097C51.3098 114.097 44.1644 109.667 38.888 101.624C33.8595 93.9635 31.0935 83.8356 31.0935 73.1097C31.0935 71.4807 32.4155 70.1587 34.0445 70.1587Z" fill="#35D0BA"/>
<path d="M68.2686 105.91C60.6564 105.91 54.4854 99.7387 54.4854 92.1264C54.4854 84.5142 60.6564 78.3433 68.2686 78.3433C75.8808 78.3433 82.0518 84.5142 82.0518 92.1264C82.0518 99.7387 75.8808 105.91 68.2686 105.91Z" fill="#35D0BA"/>
<path d="M118.211 105.91C110.599 105.91 104.428 99.7387 104.428 92.1264C104.428 84.5142 110.599 78.3433 118.211 78.3433C125.823 78.3433 131.994 84.5142 131.994 92.1264C131.994 99.7387 125.823 105.91 118.211 105.91Z" fill="#35D0BA"/>
<path d="M91.1621 131.462L89.3884 131.736C89.3884 131.736 89.3884 131.736 89.3849 131.735C88.1206 131.93 86.8529 131.799 85.6856 131.366C85.0457 131.129 84.4348 130.802 83.8719 130.39C82.2749 129.217 81.2254 127.496 80.9243 125.536C80.3001 121.493 83.0816 117.693 87.125 117.069C89.0847 116.768 91.0432 117.246 92.6415 118.415C94.1946 119.555 95.2224 121.216 95.5566 123.108C95.5691 123.161 95.5816 123.213 95.5892 123.268L95.8633 125.042L96.9583 124.872C98.8429 124.579 100.505 123.571 101.631 122.033C102.758 120.495 103.218 118.606 102.929 116.723C102.64 114.86 101.651 113.213 100.14 112.088C98.8967 111.159 98.6376 109.399 99.568 108.152C100.497 106.909 102.257 106.65 103.504 107.58C106.202 109.593 107.971 112.533 108.487 115.865C109.562 122.823 104.774 129.359 97.8152 130.434L96.7203 130.603L96.8946 131.74C97.4167 135.11 96.5931 138.484 94.5764 141.236C92.5597 143.988 89.5959 145.788 86.2228 146.309C84.0425 146.644 81.8619 146.42 79.8507 145.674C78.7502 145.265 77.7022 144.705 76.7305 143.992C75.4784 143.076 75.2074 141.315 76.1252 140.06C77.0429 138.804 78.8033 138.533 80.0576 139.454C81.5957 140.581 83.4847 141.042 85.368 140.752C87.2526 140.459 88.9144 139.452 90.0409 137.914C91.1674 136.376 91.6281 134.487 91.3386 132.603L91.163 131.47L91.1621 131.462ZM87.9798 122.626C87.5051 122.697 87.0908 122.952 86.8073 123.339C86.5238 123.725 86.4083 124.199 86.4803 124.673C86.5522 125.148 86.8065 125.562 87.1933 125.846C87.5802 126.129 88.0533 126.245 88.528 126.173L90.3016 125.899L90.0275 124.125C89.8739 123.148 88.9589 122.477 87.9798 122.626Z" fill="#7EE3D5"/>
</svg>
