<svg width="170" height="171" viewBox="0 0 170 171" fill="none" xmlns="http://www.w3.org/2000/svg">
<circle cx="80" cy="80" r="82.5" transform="matrix(1 0 0 -1 5 165.5)" fill="#EEF9F9" stroke="#7EE3D5" stroke-width="5"/>
<path d="M61.0648 52.4295C62.2883 52.4295 63.2801 51.4377 63.2801 50.2142C63.2801 48.9908 62.2883 47.999 61.0648 47.999C59.8414 47.999 58.8496 48.9908 58.8496 50.2142C58.8496 51.4377 59.8414 52.4295 61.0648 52.4295Z" fill="#35D0BA"/>
<path d="M110.993 52.4295C112.216 52.4295 113.208 51.4377 113.208 50.2142C113.208 48.9908 112.216 47.999 110.993 47.999C109.769 47.999 108.777 48.9908 108.777 50.2142C108.777 51.4377 109.769 52.4295 110.993 52.4295Z" fill="#35D0BA"/>
<path d="M135.954 70.1587C134.325 70.1587 133.003 71.4807 133.003 73.1097C133.003 82.7024 130.579 91.6774 126.176 98.39C122.025 104.717 116.634 108.199 110.992 108.199C105.35 108.199 99.9592 104.717 95.8081 98.39C91.4052 91.6814 88.9814 82.7024 88.9814 73.1097C88.9814 71.4807 87.6594 70.1587 86.0304 70.1587C84.4015 70.1587 83.0794 71.4807 83.0794 73.1097C83.0794 82.7024 80.6557 91.6774 76.2528 98.39C72.1017 104.717 66.7072 108.199 61.0688 108.199C55.4304 108.199 50.036 104.717 45.8849 98.39C41.482 91.6814 39.0583 82.7024 39.0583 73.1097C39.0583 71.4807 37.7362 70.1587 36.1073 70.1587C34.4783 70.1587 33.1562 71.4807 33.1562 73.1097C33.1562 83.8396 35.9263 93.9674 40.9508 101.624C46.2312 109.667 53.3726 114.097 61.0688 114.097C68.7651 114.097 75.9104 109.667 81.1868 101.624C83.162 98.6143 84.7831 95.2147 86.0304 91.5555C87.2777 95.2147 88.8988 98.6143 90.874 101.624C96.1543 109.667 103.296 114.097 110.992 114.097C118.688 114.097 125.834 109.667 131.11 101.624C136.139 93.9635 138.905 83.8356 138.905 73.1097C138.905 71.4807 137.583 70.1587 135.954 70.1587Z" fill="#35D0BA"/>
<path d="M101.729 105.91C109.342 105.91 115.513 99.7387 115.513 92.1264C115.513 84.5142 109.342 78.3433 101.729 78.3433C94.1172 78.3433 87.9463 84.5142 87.9463 92.1264C87.9463 99.7387 94.1172 105.91 101.729 105.91Z" fill="#35D0BA"/>
<path d="M51.7871 105.91C59.3993 105.91 65.5702 99.7387 65.5702 92.1264C65.5702 84.5142 59.3993 78.3433 51.7871 78.3433C44.1748 78.3433 38.0039 84.5142 38.0039 92.1264C38.0039 99.7387 44.1748 105.91 51.7871 105.91Z" fill="#35D0BA"/>
<path d="M99.1285 127.125H72.9315C71.3025 127.125 69.9805 125.803 69.9805 124.174C69.9805 122.545 71.3025 121.223 72.9315 121.223H99.1285C100.757 121.223 102.08 122.545 102.08 124.174C102.08 125.803 100.757 127.125 99.1285 127.125Z" fill="#7EE3D5"/>
</svg>
