<svg width="160" height="161" viewBox="0 0 160 161" fill="none" xmlns="http://www.w3.org/2000/svg">
<circle cx="80" cy="80.5" r="80" transform="rotate(180 80 80.5)" fill="#EEF9F9"/>
<path d="M33.4481 76.9307C34.9329 76.9307 36.138 78.1358 36.138 79.6206C36.138 82.3321 36.3532 84.9897 36.7657 87.5506H58.6582C60.1431 87.5506 61.3482 88.7557 61.3482 90.2405C61.3482 91.7254 60.1431 92.9304 58.6582 92.9304H37.9779C39.0252 96.5206 40.4957 99.8167 42.3643 102.664C46.1482 108.432 51.0618 111.606 56.205 111.606C61.3482 111.606 66.2618 108.432 70.0456 102.664C74.059 96.5493 76.2684 88.3647 76.2684 79.6206C76.2684 78.1358 77.4735 76.9307 78.9583 76.9307C78.9583 76.9307 78.9619 76.9307 78.9655 76.9307C78.9691 76.9307 78.9691 76.9307 78.9727 76.9307C80.4575 76.9307 81.6626 78.1358 81.6626 79.6206C81.6626 82.3321 81.8778 84.9897 82.2903 87.5506H105.216C106.701 87.5506 107.906 88.7557 107.906 90.2405C107.906 91.7254 106.701 92.9304 105.216 92.9304H83.5025C84.5498 96.5206 86.0203 99.8167 87.8889 102.664C91.6728 108.432 96.5864 111.606 101.73 111.606C106.873 111.606 111.786 108.432 115.57 102.664C119.584 96.5457 121.793 88.3647 121.793 79.6206C121.793 78.1358 122.998 76.9307 124.483 76.9307C125.968 76.9307 127.173 78.1358 127.173 79.6206C127.173 89.4012 124.648 98.6331 120.068 105.613C115.255 112.944 108.745 116.982 101.73 116.982C94.7142 116.982 88.201 112.944 83.3913 105.613C81.5873 102.862 80.106 99.7557 78.9691 96.413C77.8321 99.7593 76.3509 102.862 74.5468 105.613C69.7336 112.944 63.2239 116.982 56.2086 116.982C49.1932 116.982 42.6799 112.944 37.8703 105.613C33.2867 98.6295 30.7653 89.3977 30.7653 79.6206C30.7653 78.1358 31.9704 76.9307 33.4552 76.9307H33.4481Z" fill="#35D0BA"/>
<path d="M29.4074 69.2838C35.3243 69.0742 40.8869 66.6525 45.0761 62.4633L50.411 57.1283L43.8038 50.5211C38.0459 44.7632 38.0459 35.3981 43.8038 29.6403C46.5906 26.8499 50.299 25.3174 54.2424 25.3174C58.1858 25.3174 61.8942 26.8535 64.681 29.6403C70.4388 35.3981 70.4388 44.7632 64.681 50.5211L58.0737 57.1283L63.4087 62.4633C67.5726 66.6272 73.0991 69.0416 78.9762 69.2766C84.8533 69.0453 90.3799 66.6272 94.5438 62.4633L99.8787 57.1283L93.2715 50.5211C87.5136 44.7632 87.5136 35.3981 93.2715 29.6403C96.0582 26.8499 99.7667 25.3174 103.71 25.3174C107.653 25.3174 111.362 26.8535 114.149 29.6403C119.906 35.3981 119.906 44.7632 114.149 50.5211L107.541 57.1283L112.876 62.4633C117.066 66.6525 122.628 69.0742 128.545 69.2838C130.041 69.338 131.213 70.5923 131.158 72.0886C131.108 73.5525 129.904 74.7055 128.451 74.7055C128.419 74.7055 128.386 74.7055 128.354 74.7055C121.063 74.4489 114.203 71.4633 109.041 66.3019L103.706 60.9669L98.3715 66.3019C93.21 71.4633 86.3497 74.4489 79.0594 74.7055C79.0377 74.7055 79.0124 74.7055 78.9907 74.7055C78.9907 74.7055 78.9835 74.7055 78.9798 74.7055C78.9798 74.7055 78.9726 74.7055 78.969 74.7055C78.9654 74.7055 78.9618 74.7055 78.9581 74.7055C78.9581 74.7055 78.9509 74.7055 78.9473 74.7055C78.9256 74.7055 78.9003 74.7055 78.8786 74.7055C71.5882 74.4489 64.728 71.4633 59.5665 66.3019L54.2316 60.9669L48.8966 66.3019C43.7351 71.4633 36.8749 74.4489 29.5845 74.7055C29.5519 74.7055 29.5194 74.7055 29.4869 74.7055C28.0339 74.7055 26.8302 73.5525 26.7796 72.0886C26.7254 70.5923 27.8965 69.338 29.3929 69.2838H29.4074ZM110.325 33.4789C108.561 31.715 106.215 30.7427 103.717 30.7427C101.22 30.7427 98.8775 31.715 97.11 33.4789C93.4666 37.1222 93.4666 43.05 97.11 46.6898L103.717 53.297L110.325 46.6898C113.968 43.0464 113.968 37.1186 110.325 33.4789ZM60.8496 33.4789C59.0858 31.715 56.74 30.7427 54.2424 30.7427C51.7448 30.7427 49.4026 31.715 47.6351 33.4789C43.9918 37.1222 43.9918 43.05 47.6351 46.6898L54.2424 53.297L60.8496 46.6898C64.493 43.0464 64.493 37.1186 60.8496 33.4789Z" fill="#35D0BA"/>
<path d="M73.8379 126.462L75.6116 126.736C75.6116 126.736 75.6116 126.736 75.6151 126.735C76.8794 126.93 78.1471 126.799 79.3144 126.366C79.9543 126.129 80.5652 125.802 81.1281 125.39C82.7251 124.217 83.7746 122.496 84.0757 120.536C84.6999 116.493 81.9184 112.693 77.875 112.069C75.9153 111.768 73.9568 112.246 72.3585 113.415C70.8054 114.555 69.7776 116.216 69.4434 118.108C69.4309 118.161 69.4184 118.213 69.4108 118.268L69.1367 120.042L68.0417 119.872C66.1571 119.579 64.4954 118.571 63.3689 117.033C62.2424 115.495 61.7817 113.606 62.0711 111.723C62.36 109.86 63.3491 108.213 64.86 107.088C66.1033 106.159 66.3624 104.399 65.432 103.152C64.5028 101.909 62.7427 101.65 61.4959 102.58C58.7985 104.593 57.0292 107.533 56.5129 110.865C55.4381 117.823 60.2263 124.359 67.1848 125.434L68.2797 125.603L68.1054 126.74C67.5833 130.11 68.4069 133.484 70.4236 136.236C72.4403 138.988 75.4041 140.788 78.7772 141.309C80.9575 141.644 83.1381 141.42 85.1493 140.674C86.2498 140.265 87.2978 139.705 88.2695 138.992C89.5216 138.076 89.7926 136.315 88.8748 135.06C87.9571 133.804 86.1967 133.533 84.9424 134.454C83.4043 135.581 81.5153 136.042 79.632 135.752C77.7474 135.459 76.0856 134.452 74.9591 132.914C73.8326 131.376 73.3719 129.487 73.6614 127.603L73.837 126.47L73.8379 126.462ZM77.0202 117.626C77.4949 117.697 77.9092 117.952 78.1927 118.339C78.4762 118.725 78.5917 119.199 78.5197 119.673C78.4478 120.148 78.1935 120.562 77.8067 120.846C77.4198 121.129 76.9467 121.245 76.472 121.173L74.6984 120.899L74.9725 119.125C75.1261 118.148 76.0411 117.477 77.0202 117.626Z" fill="#7EE3D5"/>
</svg>
