<svg width="160" height="161" viewBox="0 0 160 161" fill="none" xmlns="http://www.w3.org/2000/svg">
<circle cx="80" cy="80.5" r="80" transform="rotate(180 80 80.5)" fill="#EEF9F9"/>
<path d="M116.798 70.2511C112.266 70.2511 108.005 68.4873 104.803 65.2807L102.869 63.347L100.897 65.3185C97.5887 68.627 93.2453 70.2775 88.9019 70.2775C85.3668 70.2775 81.8316 69.1822 78.8554 66.9917C75.9699 69.1029 72.5065 70.2473 68.8618 70.2473C64.3296 70.2473 60.0693 68.4835 56.8665 65.277L54.9327 63.3432L52.9612 65.3147C49.6526 68.6233 45.3092 70.2738 40.9658 70.2738C36.6224 70.2738 32.279 68.6195 28.9705 65.3147C25.7677 62.1119 24.0001 57.8516 24.0001 53.3194C24.0001 51.7557 25.2692 50.4867 26.8328 50.4867C28.3964 50.4867 29.6654 51.7557 29.6654 53.3194C29.6654 56.3371 30.84 59.1735 32.974 61.3112C37.3816 65.7188 44.5463 65.7151 48.9539 61.3112L50.9255 59.3397L48.3043 56.7186C48.2892 56.7035 48.2779 56.6883 48.2665 56.677C48.2137 56.6204 48.1608 56.5637 48.1117 56.5033C44.6634 52.8359 44.7201 47.0498 48.3081 43.4617C51.9641 39.8057 57.9089 39.8057 61.5649 43.4617C65.1492 47.046 65.2096 52.8322 61.7613 56.5033C61.7122 56.5637 61.6593 56.6204 61.6064 56.677C61.5913 56.6921 61.58 56.7072 61.5687 56.7186L58.9475 59.3397L60.8813 61.2735C63.0152 63.4074 65.8517 64.582 68.8732 64.582C71.0335 64.582 73.0957 63.9777 74.8784 62.856C72.9748 60.0649 71.9513 56.7752 71.9513 53.3232C71.9513 51.7595 73.2203 50.4905 74.784 50.4905C76.3476 50.4905 77.6166 51.7595 77.6166 53.3232C77.6166 55.1663 78.0585 56.9414 78.8856 58.5315C79.7128 56.9603 80.1584 55.204 80.1736 53.3836C80.1887 51.8275 81.4539 50.5736 83.0062 50.5736H83.0326C84.5963 50.5887 85.854 51.8653 85.8426 53.4289C85.8124 56.847 84.7738 60.1102 82.874 62.8711C84.6643 64.0117 86.7453 64.6236 88.9208 64.6236C91.9385 64.6236 94.7749 63.4489 96.9089 61.315L98.8804 59.3435L96.263 56.7261C96.263 56.7261 96.263 56.7261 96.2593 56.7261C92.6032 53.0701 92.6032 47.1253 96.2593 43.4693C98.0306 41.6979 100.384 40.7235 102.888 40.7235C105.392 40.7235 107.745 41.6979 109.516 43.4693C113.1 47.0535 113.161 52.8435 109.712 56.5108C109.652 56.5864 109.588 56.6581 109.516 56.7261L106.895 59.3473L108.829 61.281C110.963 63.415 113.799 64.5896 116.817 64.5896C119.834 64.5896 122.671 63.415 124.809 61.281C126.916 59.1735 128.091 56.3711 128.117 53.3874C128.132 51.8313 129.398 50.5774 130.95 50.5774H130.976C132.521 50.5887 133.775 51.8691 133.764 53.4327C133.726 57.9083 131.962 62.1157 128.797 65.2807C125.594 68.4835 121.334 70.2511 116.802 70.2511H116.798ZM57.5539 47.4728C56.1073 46.0262 53.7543 46.0262 52.3116 47.4728C50.865 48.9193 50.865 51.2723 52.3116 52.7189L54.9327 55.34L57.5539 52.7189C59.0004 51.2723 59.0004 48.9193 57.5539 47.4728ZM105.494 47.4728C104.795 46.7741 103.862 46.385 102.873 46.385C101.883 46.385 100.95 46.7703 100.251 47.4728C98.8049 48.9193 98.8049 51.2723 100.251 52.7151C100.251 52.7151 100.251 52.7151 100.251 52.7189L102.869 55.3362L105.49 52.7151C106.192 52.0164 106.578 51.0835 106.578 50.0939C106.578 49.1044 106.192 48.1715 105.49 47.4728H105.494Z" fill="#35D0BA"/>
<path d="M29.0464 65.1582C30.6754 65.1582 31.9974 66.4803 31.9974 68.1092C31.9974 77.7019 34.4212 86.6769 38.8241 93.3895C42.9752 99.7165 48.3657 103.199 54.008 103.199C59.6503 103.199 65.0408 99.7165 69.1919 93.3895C73.5948 86.6809 76.0186 77.7019 76.0186 68.1092C76.0186 66.4803 77.3406 65.1582 78.9696 65.1582C80.5985 65.1582 81.9206 66.4803 81.9206 68.1092C81.9206 77.7019 84.3443 86.6769 88.7472 93.3895C92.8983 99.7165 98.2928 103.199 103.931 103.199C109.57 103.199 114.964 99.7165 119.115 93.3895C123.518 86.6809 125.942 77.7019 125.942 68.1092C125.942 66.4803 127.264 65.1582 128.893 65.1582C130.522 65.1582 131.844 66.4803 131.844 68.1092C131.844 78.8391 129.074 88.9669 124.049 96.6238C118.769 104.666 111.627 109.097 103.931 109.097C96.2349 109.097 89.0896 104.666 83.8132 96.6238C81.838 93.6138 80.2169 90.2142 78.9696 86.555C77.7223 90.2142 76.1012 93.6138 74.126 96.6238C68.8457 104.666 61.7042 109.097 54.008 109.097C46.3118 109.097 39.1664 104.666 33.89 96.6238C28.8615 88.963 26.0954 78.8351 26.0954 68.1092C26.0954 66.4803 27.4175 65.1582 29.0464 65.1582Z" fill="#35D0BA"/>
<path d="M63.2696 100.909C55.6573 100.909 49.4864 94.7382 49.4864 87.1259C49.4864 79.5137 55.6573 73.3428 63.2696 73.3428C70.8818 73.3428 77.0527 79.5137 77.0527 87.1259C77.0527 94.7382 70.8818 100.909 63.2696 100.909Z" fill="#35D0BA"/>
<path d="M113.213 100.909C105.601 100.909 99.4298 94.7382 99.4298 87.1259C99.4298 79.5137 105.601 73.3428 113.213 73.3428C120.825 73.3428 126.996 79.5137 126.996 87.1259C126.996 94.7382 120.825 100.909 113.213 100.909Z" fill="#35D0BA"/>
<path d="M65.8715 122.125H92.0685C93.6975 122.125 95.0195 120.803 95.0195 119.174C95.0195 117.545 93.6975 116.223 92.0685 116.223H65.8715C64.2425 116.223 62.9204 117.545 62.9204 119.174C62.9204 120.803 64.2425 122.125 65.8715 122.125Z" fill="#7EE3D5"/>
</svg>
