<svg width="160" height="161" viewBox="0 0 160 161" fill="none" xmlns="http://www.w3.org/2000/svg">
<circle cx="80" cy="80.5" r="80" transform="rotate(180 80 80.5)" fill="#EEF9F9"/>
<path d="M103.933 47.4295C102.71 47.4295 101.718 46.4377 101.718 45.2142C101.718 43.9908 102.71 42.999 103.933 42.999C105.157 42.999 106.148 43.9908 106.148 45.2142C106.148 46.4377 105.157 47.4295 103.933 47.4295Z" fill="#35D0BA"/>
<path d="M54.0055 47.4295C52.782 47.4295 51.7903 46.4377 51.7903 45.2142C51.7903 43.9908 52.782 42.999 54.0055 42.999C55.2289 42.999 56.2207 43.9908 56.2207 45.2142C56.2207 46.4377 55.2289 47.4295 54.0055 47.4295Z" fill="#35D0BA"/>
<path d="M29.0445 65.1587C30.6734 65.1587 31.9955 66.4807 31.9955 68.1097C31.9955 77.7024 34.4192 86.6774 38.8221 93.39C42.9732 99.717 48.3637 103.199 54.006 103.199C59.6484 103.199 65.0389 99.717 69.1899 93.39C73.5929 86.6814 76.0166 77.7024 76.0166 68.1097C76.0166 66.4807 77.3387 65.1587 78.9676 65.1587C80.5966 65.1587 81.9186 66.4807 81.9186 68.1097C81.9186 77.7024 84.3424 86.6774 88.7453 93.39C92.8964 99.717 98.2908 103.199 103.929 103.199C109.568 103.199 114.962 99.717 119.113 93.39C123.516 86.6814 125.94 77.7024 125.94 68.1097C125.94 66.4807 127.262 65.1587 128.891 65.1587C130.52 65.1587 131.842 66.4807 131.842 68.1097C131.842 78.8396 129.072 88.9674 124.047 96.6243C118.767 104.667 111.625 109.097 103.929 109.097C96.233 109.097 89.0876 104.667 83.8112 96.6243C81.836 93.6143 80.2149 90.2147 78.9676 86.5555C77.7203 90.2147 76.0992 93.6143 74.124 96.6243C68.8437 104.667 61.7023 109.097 54.006 109.097C46.3098 109.097 39.1644 104.667 33.888 96.6243C28.8595 88.9635 26.0935 78.8356 26.0935 68.1097C26.0935 66.4807 27.4155 65.1587 29.0445 65.1587Z" fill="#35D0BA"/>
<path d="M63.2686 100.91C55.6564 100.91 49.4854 94.7387 49.4854 87.1264C49.4854 79.5142 55.6564 73.3433 63.2686 73.3433C70.8808 73.3433 77.0518 79.5142 77.0518 87.1264C77.0518 94.7387 70.8808 100.91 63.2686 100.91Z" fill="#35D0BA"/>
<path d="M113.211 100.91C105.599 100.91 99.4278 94.7387 99.4278 87.1264C99.4278 79.5142 105.599 73.3433 113.211 73.3433C120.823 73.3433 126.994 79.5142 126.994 87.1264C126.994 94.7387 120.823 100.91 113.211 100.91Z" fill="#35D0BA"/>
<path d="M86.1621 126.462L84.3884 126.736C84.3884 126.736 84.3884 126.736 84.3849 126.735C83.1206 126.93 81.8529 126.799 80.6856 126.366C80.0457 126.129 79.4348 125.802 78.8719 125.39C77.2749 124.217 76.2254 122.496 75.9243 120.536C75.3001 116.493 78.0816 112.693 82.125 112.069C84.0847 111.768 86.0432 112.246 87.6415 113.415C89.1946 114.555 90.2224 116.216 90.5566 118.108C90.5691 118.161 90.5816 118.213 90.5892 118.268L90.8633 120.042L91.9583 119.872C93.8429 119.579 95.5046 118.571 96.6311 117.033C97.7576 115.495 98.2183 113.606 97.9289 111.723C97.64 109.86 96.6509 108.213 95.14 107.088C93.8967 106.159 93.6376 104.399 94.568 103.152C95.4972 101.909 97.2573 101.65 98.5041 102.58C101.202 104.593 102.971 107.533 103.487 110.865C104.562 117.823 99.7737 124.359 92.8152 125.434L91.7203 125.603L91.8946 126.74C92.4167 130.11 91.5931 133.484 89.5764 136.236C87.5597 138.988 84.5959 140.788 81.2228 141.309C79.0425 141.644 76.8619 141.42 74.8507 140.674C73.7502 140.265 72.7022 139.705 71.7305 138.992C70.4784 138.076 70.2074 136.315 71.1252 135.06C72.0429 133.804 73.8033 133.533 75.0576 134.454C76.5957 135.581 78.4847 136.042 80.368 135.752C82.2526 135.459 83.9144 134.452 85.0409 132.914C86.1674 131.376 86.6281 129.487 86.3386 127.603L86.163 126.47L86.1621 126.462ZM82.9798 117.626C82.5051 117.697 82.0908 117.952 81.8073 118.339C81.5238 118.725 81.4083 119.199 81.4803 119.673C81.5522 120.148 81.8065 120.562 82.1933 120.846C82.5802 121.129 83.0533 121.245 83.528 121.173L85.3016 120.899L85.0275 119.125C84.8739 118.148 83.9589 117.477 82.9798 117.626Z" fill="#7EE3D5"/>
</svg>
