<svg width="26" height="27" viewBox="0 0 26 27" fill="none" xmlns="http://www.w3.org/2000/svg">
<g id="Group 817">
<path id="Vector 314" d="M3.96436 20.6261L12.5542 16.3125L23.2821 20.6261L18.2557 24.2646H7.60287L3.96436 20.6261Z" fill="#E8EBED"/>
<circle id="Ellipse 127" cx="13.1052" cy="7.58813" r="4.99535" fill="#E8EBED"/>
<g id="Group 814">
<path id="Vector" d="M24.5114 19.0591C21.6465 18.9987 18.9677 18.3099 16.9696 17.1215L13.6069 15.1185C13.571 15.0973 13.5351 15.0777 13.4975 15.0597C13.4877 15.0548 13.4763 15.0516 13.4665 15.0467C13.442 15.0352 13.4175 15.0255 13.3914 15.0157C13.3718 15.0091 13.3522 15.0026 13.331 14.9977C13.3147 14.9928 13.2984 14.9879 13.282 14.983C13.2608 14.9781 13.2396 14.9732 13.2167 14.97C13.2004 14.9667 13.1841 14.9634 13.1694 14.9602C13.1498 14.9569 13.1302 14.9553 13.109 14.9536C13.091 14.952 13.0714 14.9504 13.0535 14.9487C13.0372 14.9487 13.0208 14.9487 13.0045 14.9487C12.9817 14.9487 12.9588 14.9487 12.936 14.9487C12.9245 14.9487 12.9115 14.9504 12.9 14.952C12.8739 14.9536 12.8478 14.9569 12.8217 14.9602C12.8119 14.9602 12.8037 14.9634 12.7939 14.9651C12.7662 14.97 12.7368 14.9749 12.7091 14.983C12.7009 14.9846 12.6911 14.9879 12.6829 14.9912C12.6552 14.9993 12.6274 15.0059 12.6013 15.0157C12.585 15.0206 12.5703 15.0287 12.5556 15.0336C12.536 15.0418 12.5164 15.0483 12.4968 15.0581C12.4609 15.0744 12.425 15.094 12.3891 15.1152L9.02471 17.1182C7.02664 18.3082 4.34786 18.9955 1.48298 19.0559C0.830018 19.0689 0.310912 19.6109 0.323972 20.2639C0.337031 20.9087 0.864299 21.4229 1.50747 21.4229C1.51563 21.4229 1.52379 21.4229 1.53359 21.4229C1.7458 21.418 1.95801 21.4098 2.17023 21.4C4.21727 24.3547 8.45173 26.1046 12.9474 26.1046C14.4541 26.1046 15.9902 25.9087 17.4822 25.4941C20.2802 24.7187 22.5084 23.2707 23.8062 21.3984C24.0249 21.4098 24.2453 21.418 24.4657 21.4229C24.4738 21.4229 24.482 21.4229 24.4918 21.4229C25.1333 21.4229 25.6606 20.9087 25.6753 20.2639C25.6883 19.6109 25.1709 19.0689 24.5163 19.0559L24.5114 19.0591ZM16.8456 23.2169C12.5556 24.4053 7.57676 23.4177 5.00572 21.0637C6.95318 20.6915 8.74557 20.0435 10.2343 19.1554L12.9964 17.51L15.7584 19.1554C17.2423 20.0386 19.0281 20.685 20.9658 21.0588C19.9423 21.9958 18.5123 22.7549 16.8439 23.2169H16.8456Z" fill="#6C7885"/>
<path id="Vector_2" d="M12.9967 13.7931C16.5798 13.7931 19.4953 10.8777 19.4953 7.29451C19.4953 3.71138 16.5798 0.795898 12.9967 0.795898C9.41353 0.795898 6.49805 3.71138 6.49805 7.29451C6.49805 10.8777 9.41353 13.7931 12.9967 13.7931ZM12.9967 3.16289C15.2755 3.16289 17.1283 5.01567 17.1283 7.29451C17.1283 9.57336 15.2755 11.4261 12.9967 11.4261C10.7178 11.4261 8.86504 9.57336 8.86504 7.29451C8.86504 5.01567 10.7178 3.16289 12.9967 3.16289Z" fill="#6C7885"/>
</g>
</g>
</svg>
