<svg width="26" height="27" viewBox="0 0 26 27" fill="none" xmlns="http://www.w3.org/2000/svg">
<g id="Group 817">
<g id="Group 814">
<path id="Vector" d="M24.5114 19.0591C21.6465 18.9987 18.9677 18.3098 16.9696 17.1214L13.6069 15.1184C13.571 15.0972 13.5351 15.0776 13.4975 15.0597C13.4877 15.0548 13.4763 15.0515 13.4665 15.0466C13.442 15.0352 13.4175 15.0254 13.3914 15.0156C13.3718 15.0091 13.3522 15.0025 13.331 14.9976C13.3147 14.9927 13.2984 14.9878 13.282 14.983C13.2608 14.9781 13.2396 14.9732 13.2167 14.9699C13.2004 14.9666 13.1841 14.9634 13.1694 14.9601C13.1498 14.9568 13.1302 14.9552 13.109 14.9536C13.091 14.9519 13.0714 14.9503 13.0535 14.9487C13.0372 14.9487 13.0208 14.9487 13.0045 14.9487C12.9817 14.9487 12.9588 14.9487 12.936 14.9487C12.9245 14.9487 12.9115 14.9503 12.9 14.9519C12.8739 14.9536 12.8478 14.9568 12.8217 14.9601C12.8119 14.9601 12.8037 14.9634 12.7939 14.965C12.7662 14.9699 12.7368 14.9748 12.7091 14.983C12.7009 14.9846 12.6911 14.9878 12.6829 14.9911C12.6552 14.9993 12.6274 15.0058 12.6013 15.0156C12.585 15.0205 12.5703 15.0287 12.5556 15.0336C12.536 15.0417 12.5164 15.0482 12.4968 15.058C12.4609 15.0744 12.425 15.094 12.3891 15.1152L9.02471 17.1181C7.02664 18.3082 4.34786 18.9954 1.48298 19.0558C0.830018 19.0689 0.310912 19.6108 0.323972 20.2638C0.337031 20.9086 0.864299 21.4228 1.50747 21.4228C1.51563 21.4228 1.52379 21.4228 1.53359 21.4228C1.7458 21.4179 1.95801 21.4097 2.17023 21.3999C4.21727 24.3546 8.45173 26.1045 12.9474 26.1045C14.4541 26.1045 15.9902 25.9087 17.4822 25.494C20.2802 24.7186 22.5084 23.2707 23.8062 21.3983C24.0249 21.4097 24.2453 21.4179 24.4657 21.4228C24.4738 21.4228 24.482 21.4228 24.4918 21.4228C25.1333 21.4228 25.6606 20.9086 25.6753 20.2638C25.6883 19.6108 25.1709 19.0689 24.5163 19.0558L24.5114 19.0591ZM16.8456 23.2168C12.5556 24.4052 7.57676 23.4176 5.00572 21.0637C6.95318 20.6915 8.74557 20.0434 10.2343 19.1554L12.9964 17.5099L15.7584 19.1554C17.2423 20.0385 19.0281 20.685 20.9658 21.0588C19.9423 21.9958 18.5123 22.7548 16.8439 23.2168H16.8456Z" fill="#C9CDD2"/>
<path id="Vector_2" d="M12.9967 13.7931C16.5798 13.7931 19.4953 10.8777 19.4953 7.29451C19.4953 3.71138 16.5798 0.795898 12.9967 0.795898C9.41353 0.795898 6.49805 3.71138 6.49805 7.29451C6.49805 10.8777 9.41353 13.7931 12.9967 13.7931ZM12.9967 3.16289C15.2755 3.16289 17.1283 5.01567 17.1283 7.29451C17.1283 9.57336 15.2755 11.4261 12.9967 11.4261C10.7178 11.4261 8.86504 9.57336 8.86504 7.29451C8.86504 5.01567 10.7178 3.16289 12.9967 3.16289Z" fill="#C9CDD2"/>
</g>
</g>
</svg>
