<svg width="80" height="80" viewBox="0 0 80 80" fill="none" xmlns="http://www.w3.org/2000/svg">
<circle cx="40" cy="40" r="40" transform="matrix(1 0 0 -1 0 80)" fill="#EEF9F9"/>
<path d="M28.0324 23.4642C28.6441 23.4642 29.14 22.9684 29.14 22.3566C29.14 21.7449 28.6441 21.249 28.0324 21.249C27.4207 21.249 26.9248 21.7449 26.9248 22.3566C26.9248 22.9684 27.4207 23.4642 28.0324 23.4642Z" fill="#35D0BA"/>
<path d="M52.9963 23.4642C53.608 23.4642 54.1039 22.9684 54.1039 22.3566C54.1039 21.7449 53.608 21.249 52.9963 21.249C52.3846 21.249 51.8887 21.7449 51.8887 22.3566C51.8887 22.9684 52.3846 23.4642 52.9963 23.4642Z" fill="#35D0BA"/>
<path d="M65.4768 32.3291C64.6623 32.3291 64.0013 32.9901 64.0013 33.8046C64.0013 38.601 62.7894 43.0885 60.588 46.4448C58.5124 49.6082 55.8172 51.3493 52.996 51.3493C50.1748 51.3493 47.4796 49.6082 45.404 46.4448C43.2026 43.0904 41.9907 38.601 41.9907 33.8046C41.9907 32.9901 41.3297 32.3291 40.5152 32.3291C39.7007 32.3291 39.0397 32.9901 39.0397 33.8046C39.0397 38.601 37.8278 43.0885 35.6264 46.4448C33.5508 49.6082 30.8536 51.3493 28.0344 51.3493C25.2152 51.3493 22.518 49.6082 20.4425 46.4448C18.241 43.0904 17.0291 38.601 17.0291 33.8046C17.0291 32.9901 16.3681 32.3291 15.5536 32.3291C14.7392 32.3291 14.0781 32.9901 14.0781 33.8046C14.0781 39.1695 15.4631 44.2335 17.9754 48.0619C20.6156 52.0831 24.1863 54.2984 28.0344 54.2984C31.8825 54.2984 35.4552 52.0831 38.0934 48.0619C39.081 46.5569 39.8916 44.8571 40.5152 43.0275C41.1389 44.8571 41.9494 46.5569 42.937 48.0619C45.5772 52.0831 49.1479 54.2984 52.996 54.2984C56.8441 54.2984 60.4168 52.0831 63.055 48.0619C65.5693 44.2315 66.9523 39.1676 66.9523 33.8046C66.9523 32.9901 66.2913 32.3291 65.4768 32.3291Z" fill="#35D0BA"/>
<path d="M48.3647 50.2041C52.1708 50.2041 55.2563 47.1186 55.2563 43.3125C55.2563 39.5064 52.1708 36.4209 48.3647 36.4209C44.5586 36.4209 41.4731 39.5064 41.4731 43.3125C41.4731 47.1186 44.5586 50.2041 48.3647 50.2041Z" fill="#35D0BA"/>
<path d="M23.3935 50.2041C27.1997 50.2041 30.2851 47.1186 30.2851 43.3125C30.2851 39.5064 27.1997 36.4209 23.3935 36.4209C19.5874 36.4209 16.502 39.5064 16.502 43.3125C16.502 47.1186 19.5874 50.2041 23.3935 50.2041Z" fill="#35D0BA"/>
<path d="M47.0643 60.8123H33.9657C33.1513 60.8123 32.4902 60.1513 32.4902 59.3368C32.4902 58.5224 33.1513 57.8613 33.9657 57.8613H47.0643C47.8787 57.8613 48.5398 58.5224 48.5398 59.3368C48.5398 60.1513 47.8787 60.8123 47.0643 60.8123Z" fill="#7EE3D5"/>
</svg>
