<svg width="160" height="161" viewBox="0 0 160 161" fill="none" xmlns="http://www.w3.org/2000/svg">
<circle cx="80" cy="80.5" r="80" transform="rotate(180 80 80.5)" fill="#FFF5E4"/>
<path d="M21.495 49.7077C23.1238 49.7077 24.4456 51.0296 24.4456 52.6583C24.4456 55.8016 25.6691 58.7561 27.8919 60.9828C32.479 65.5739 39.9459 65.5739 44.537 60.9828L46.5906 58.9292L43.8603 56.199C42.0152 54.3539 41.0002 51.903 41.0002 49.2947C41.0002 46.6864 42.0152 44.2354 43.8603 42.3904C45.7054 40.5453 48.1563 39.5303 50.7646 39.5303C53.3729 39.5303 55.8239 40.5453 57.6689 42.3904C59.514 44.2354 60.529 46.6864 60.529 49.2947C60.529 51.903 59.518 54.346 57.6768 56.1911C57.6768 56.1911 57.6729 56.195 57.6689 56.199L54.9387 58.9292L56.9529 60.9435C59.1757 63.1662 62.1302 64.3897 65.2735 64.3897C68.4169 64.3897 71.3714 63.1662 73.598 60.9435C75.7933 58.7483 77.0168 55.8292 77.0443 52.7213C77.0443 52.7134 77.0443 52.7094 77.0443 52.7055C77.0443 52.6898 77.0443 52.678 77.0443 52.6622C77.0443 51.0335 78.3662 49.7117 79.9949 49.7117C81.6236 49.7117 82.9454 51.0335 82.9454 52.6622C82.9454 55.8056 84.1689 58.7601 86.3917 60.9868C90.9788 65.5778 98.4457 65.5778 103.037 60.9868L105.09 58.9332L102.36 56.2029C100.515 54.3578 99.5 51.9069 99.5 49.2986C99.5 46.6903 100.515 44.2394 102.36 42.3943C104.205 40.5492 106.656 39.5342 109.264 39.5342C111.873 39.5342 114.324 40.5492 116.169 42.3943C118.014 44.2394 119.029 46.6903 119.029 49.2986C119.029 51.9069 118.014 54.3578 116.169 56.2029L113.438 58.9332L115.453 60.9474C117.676 63.1702 120.63 64.3937 123.773 64.3937C126.917 64.3937 129.871 63.1702 132.098 60.9474C134.293 58.7522 135.517 55.8331 135.544 52.7252C135.56 51.1043 136.878 49.7982 138.495 49.7982H138.522C140.151 49.8061 141.457 51.1398 141.445 52.7685C141.406 57.4303 139.569 61.8129 136.272 65.1097C132.936 68.4458 128.498 70.2869 123.777 70.2869C119.056 70.2869 114.619 68.4497 111.283 65.1097L109.268 63.0954L107.215 65.149C103.769 68.5953 99.2443 70.3145 94.7201 70.3145C90.1959 70.3145 85.6717 68.5913 82.2255 65.149C81.3797 64.3032 80.6322 63.3905 79.987 62.4188C79.3457 63.3747 78.6101 64.2757 77.776 65.1097C74.4399 68.4458 70.0023 70.2869 65.2814 70.2869C60.5605 70.2869 56.1228 68.4497 52.7867 65.1097L50.7725 63.0954L48.7189 65.149C45.2727 68.5953 40.7485 70.3145 36.2243 70.3145C31.7001 70.3145 27.1759 68.5913 23.7296 65.149C20.3935 61.8129 18.5524 57.3753 18.5524 52.6544C18.5524 51.0257 19.8742 49.7038 21.5029 49.7038L21.495 49.7077ZM111.999 46.5605C111.271 45.8327 110.299 45.4275 109.268 45.4275C108.238 45.4275 107.266 45.8287 106.538 46.5605C105.81 47.2922 105.405 48.26 105.405 49.2907C105.405 50.3215 105.806 51.2932 106.538 52.021L109.268 54.7512L111.999 52.021C112.726 51.2932 113.132 50.3215 113.132 49.2907C113.132 48.26 112.73 47.2883 111.999 46.5605ZM53.4988 46.5605C52.771 45.8327 51.7993 45.4275 50.7686 45.4275C49.7378 45.4275 48.7661 45.8287 48.0383 46.5605C47.3105 47.2922 46.9053 48.26 46.9053 49.2907C46.9053 50.3215 47.3066 51.2932 48.0383 52.021L50.7686 54.7512L53.4988 52.021C54.2266 51.2932 54.6279 50.3215 54.6279 49.2907C54.6279 48.26 54.2266 47.2883 53.4949 46.5605H53.4988Z" fill="#FFAD1E"/>
<path d="M30.2444 72.4453C31.8731 72.4453 33.195 73.7672 33.195 75.3959C33.195 84.9872 35.6184 93.9608 40.0206 100.672C44.1711 106.998 49.5608 110.48 55.2022 110.48C60.8437 110.48 66.2334 106.998 70.3839 100.672C74.7861 93.9647 77.2095 84.9872 77.2095 75.3959C77.2095 73.7672 78.5314 72.4453 80.1601 72.4453C80.1601 72.4453 80.164 72.4453 80.1679 72.4453C80.1719 72.4453 80.1719 72.4453 80.1758 72.4453C81.8045 72.4453 83.1264 73.7672 83.1264 75.3959C83.1264 84.9872 85.5498 93.9608 89.952 100.672C94.1024 106.998 99.4921 110.48 105.134 110.48C110.775 110.48 116.165 106.998 120.315 100.672C124.717 93.9647 127.141 84.9872 127.141 75.3959C127.141 73.7672 128.463 72.4453 130.091 72.4453C131.72 72.4453 133.042 73.7672 133.042 75.3959C133.042 86.1241 130.272 96.2504 125.249 103.906C119.969 111.947 112.829 116.377 105.134 116.377C97.4385 116.377 90.2943 111.947 85.0187 103.906C83.0398 100.889 81.415 97.4818 80.1679 93.8153C78.9208 97.4857 77.2961 100.889 75.3172 103.906C70.0377 111.947 62.8973 116.377 55.2022 116.377C47.5072 116.377 40.3629 111.947 35.0873 103.906C30.0595 96.2465 27.2939 86.1202 27.2939 75.3959C27.2939 73.7672 28.6157 72.4453 30.2444 72.4453Z" fill="#FFAD1E"/>
<path d="M63.8107 102.649C56.1996 102.649 50.0296 96.4786 50.0296 88.8675C50.0296 81.2564 56.1996 75.0864 63.8107 75.0864C71.4218 75.0864 77.5918 81.2564 77.5918 88.8675C77.5918 96.4786 71.4218 102.649 63.8107 102.649Z" fill="#FFAD1E"/>
<path d="M113.745 102.649C106.134 102.649 99.9642 96.4786 99.9642 88.8675C99.9642 81.2564 106.134 75.0864 113.745 75.0864C121.356 75.0864 127.526 81.2564 127.526 88.8675C127.526 96.4786 121.356 102.649 113.745 102.649Z" fill="#FFAD1E"/>
<path d="M83.8284 120.841L82.107 121.182C82.107 121.182 82.107 121.182 82.1035 121.181C80.8765 121.424 79.6327 121.349 78.4743 120.974C77.8393 120.769 77.2326 120.476 76.6621 120.095C75.0534 119.016 73.9568 117.378 73.5816 115.476C73.2063 113.574 73.5926 111.641 74.6684 110.031C75.7476 108.422 77.3857 107.326 79.2876 106.95C81.1896 106.575 83.1227 106.961 84.7326 108.037C86.3168 109.097 87.4003 110.704 87.7915 112.568C87.7975 112.597 87.8071 112.627 87.8131 112.656L88.1543 114.378L89.217 114.167C91.0494 113.803 92.6276 112.749 93.6645 111.2C94.7013 109.651 95.0732 107.786 94.7125 105.958C94.3531 104.15 93.3187 102.582 91.7973 101.543C90.5442 100.687 90.2182 98.9779 91.0756 97.7213C91.9318 96.4682 93.644 96.1434 94.8971 96.9996C97.6156 98.854 99.4693 101.654 100.108 104.886C101.446 111.64 97.0389 118.223 90.2855 119.561L89.2228 119.772L89.4402 120.875C90.7783 127.629 86.3711 134.212 79.6176 135.55C77.5015 135.968 75.362 135.838 73.3663 135.193C72.2743 134.84 71.2272 134.335 70.2485 133.679C68.9874 132.836 68.6463 131.126 69.4932 129.866C70.3378 128.602 72.0464 128.264 73.3064 129.111C74.8556 130.148 76.7201 130.52 78.548 130.159C80.3805 129.796 81.9586 128.742 82.9955 127.193C84.0323 125.643 84.4042 123.779 84.0435 121.951L83.8261 120.848L83.8284 120.841ZM80.3527 112.344C79.8919 112.434 79.4977 112.699 79.2368 113.089C78.9758 113.478 78.8826 113.945 78.9725 114.406C79.0624 114.867 79.328 115.261 79.7176 115.522C80.1073 115.783 80.5743 115.876 81.035 115.786L82.7564 115.445L82.4152 113.724C82.2247 112.776 81.2996 112.157 80.3527 112.344Z" fill="#FFD285"/>
</svg>
