<svg width="160" height="161" viewBox="0 0 160 161" fill="none" xmlns="http://www.w3.org/2000/svg">
<circle cx="80" cy="80" r="80" transform="matrix(1 0 0 -1 0 160.5)" fill="#FFF5E4"/>
<path d="M126.552 76.9307C125.067 76.9307 123.862 78.1358 123.862 79.6206C123.862 82.3321 123.647 84.9897 123.234 87.5506H101.342C99.8569 87.5506 98.6518 88.7557 98.6518 90.2405C98.6518 91.7254 99.8569 92.9304 101.342 92.9304H122.022C120.975 96.5206 119.504 99.8167 117.636 102.664C113.852 108.432 108.938 111.606 103.795 111.606C98.6518 111.606 93.7382 108.432 89.9544 102.664C85.941 96.5493 83.7316 88.3647 83.7316 79.6206C83.7316 78.1358 82.5265 76.9307 81.0417 76.9307C81.0417 76.9307 81.0381 76.9307 81.0345 76.9307C81.0309 76.9307 81.0309 76.9307 81.0273 76.9307C79.5425 76.9307 78.3374 78.1358 78.3374 79.6206C78.3374 82.3321 78.1222 84.9897 77.7097 87.5506H54.7843C53.2994 87.5506 52.0943 88.7557 52.0943 90.2405C52.0943 91.7254 53.2994 92.9304 54.7843 92.9304H76.4975C75.4502 96.5206 73.9797 99.8167 72.1111 102.664C68.3272 108.432 63.4136 111.606 58.2704 111.606C53.1273 111.606 48.2136 108.432 44.4298 102.664C40.4164 96.5457 38.207 88.3647 38.207 79.6206C38.207 78.1358 37.0019 76.9307 35.5171 76.9307C34.0322 76.9307 32.8271 78.1358 32.8271 79.6206C32.8271 89.4012 35.3521 98.6331 39.9322 105.613C44.7454 112.944 51.2551 116.982 58.2704 116.982C65.2858 116.982 71.799 112.944 76.6087 105.613C78.4127 102.862 79.894 99.7557 81.0309 96.413C82.1679 99.7593 83.6491 102.862 85.4532 105.613C90.2664 112.944 96.7761 116.982 103.791 116.982C110.807 116.982 117.32 112.944 122.13 105.613C126.713 98.6295 129.235 89.3977 129.235 79.6206C129.235 78.1358 128.03 76.9307 126.545 76.9307H126.552Z" fill="#FFAD1E"/>
<path d="M130.593 69.2838C124.676 69.0742 119.113 66.6525 114.924 62.4633L109.589 57.1283L116.196 50.5211C121.954 44.7632 121.954 35.3981 116.196 29.6403C113.409 26.8499 109.701 25.3174 105.758 25.3174C101.814 25.3174 98.1058 26.8535 95.319 29.6403C89.5612 35.3981 89.5612 44.7632 95.319 50.5211L101.926 57.1283L96.5913 62.4633C92.4274 66.6272 86.9009 69.0416 81.0238 69.2766C75.1467 69.0453 69.6201 66.6272 65.4562 62.4633L60.1213 57.1283L66.7285 50.5211C72.4864 44.7632 72.4864 35.3981 66.7285 29.6403C63.9418 26.8499 60.2333 25.3174 56.29 25.3174C52.3466 25.3174 48.6381 26.8535 45.8514 29.6403C40.0935 35.3981 40.0935 44.7632 45.8514 50.5211L52.4586 57.1283L47.1236 62.4633C42.9345 66.6525 37.3718 69.0742 31.4549 69.2838C29.9585 69.338 28.7874 70.5923 28.8417 72.0886C28.8923 73.5525 30.0959 74.7055 31.5489 74.7055C31.5814 74.7055 31.614 74.7055 31.6465 74.7055C38.9369 74.4489 45.7971 71.4633 50.9586 66.3019L56.2936 60.9669L61.6285 66.3019C66.79 71.4633 73.6503 74.4489 80.9406 74.7055C80.9623 74.7055 80.9876 74.7055 81.0093 74.7055C81.0093 74.7055 81.0165 74.7055 81.0202 74.7055C81.0202 74.7055 81.0274 74.7055 81.031 74.7055C81.0346 74.7055 81.0382 74.7055 81.0419 74.7055C81.0419 74.7055 81.0491 74.7055 81.0527 74.7055C81.0744 74.7055 81.0997 74.7055 81.1214 74.7055C88.4118 74.4489 95.272 71.4633 100.433 66.3019L105.768 60.9669L111.103 66.3019C116.265 71.4633 123.125 74.4489 130.416 74.7055C130.448 74.7055 130.481 74.7055 130.513 74.7055C131.966 74.7055 133.17 73.5525 133.22 72.0886C133.275 70.5923 132.103 69.338 130.607 69.2838H130.593ZM49.6755 33.4789C51.4393 31.715 53.7851 30.7427 56.2827 30.7427C58.7803 30.7427 61.1225 31.715 62.89 33.4789C66.5334 37.1222 66.5334 43.05 62.89 46.6898L56.2827 53.297L49.6755 46.6898C46.0321 43.0464 46.0321 37.1186 49.6755 33.4789ZM99.1504 33.4789C100.914 31.715 103.26 30.7427 105.758 30.7427C108.255 30.7427 110.597 31.715 112.365 33.4789C116.008 37.1222 116.008 43.05 112.365 46.6898L105.758 53.297L99.1504 46.6898C95.507 43.0464 95.507 37.1186 99.1504 33.4789Z" fill="#FFAD1E"/>
<path d="M86.1621 126.462L84.3884 126.736C84.3884 126.736 84.3884 126.736 84.3849 126.735C83.1206 126.93 81.8529 126.799 80.6856 126.366C80.0457 126.129 79.4348 125.802 78.8719 125.39C77.2749 124.217 76.2254 122.496 75.9243 120.536C75.3001 116.493 78.0816 112.693 82.125 112.069C84.0847 111.768 86.0432 112.246 87.6415 113.415C89.1946 114.555 90.2224 116.216 90.5566 118.108C90.5691 118.161 90.5816 118.213 90.5892 118.268L90.8633 120.042L91.9583 119.872C93.8429 119.579 95.5046 118.571 96.6311 117.033C97.7576 115.495 98.2183 113.606 97.9289 111.723C97.64 109.86 96.6509 108.213 95.14 107.088C93.8967 106.159 93.6376 104.399 94.568 103.152C95.4972 101.909 97.2573 101.65 98.5041 102.58C101.202 104.593 102.971 107.533 103.487 110.865C104.562 117.823 99.7737 124.359 92.8152 125.434L91.7203 125.603L91.8946 126.74C92.4167 130.11 91.5931 133.484 89.5764 136.236C87.5597 138.988 84.5959 140.788 81.2228 141.309C79.0425 141.644 76.8619 141.42 74.8507 140.674C73.7502 140.265 72.7022 139.705 71.7305 138.992C70.4784 138.076 70.2074 136.315 71.1252 135.06C72.0429 133.804 73.8033 133.533 75.0576 134.454C76.5957 135.581 78.4847 136.042 80.368 135.752C82.2526 135.459 83.9144 134.452 85.0409 132.914C86.1674 131.376 86.6281 129.487 86.3386 127.603L86.163 126.47L86.1621 126.462ZM82.9798 117.626C82.5051 117.697 82.0908 117.952 81.8073 118.339C81.5238 118.725 81.4083 119.199 81.4803 119.673C81.5522 120.148 81.8065 120.562 82.1933 120.846C82.5802 121.129 83.0533 121.245 83.528 121.173L85.3016 120.899L85.0275 119.125C84.8739 118.148 83.9589 117.477 82.9798 117.626Z" fill="#FFD285"/>
</svg>
