<svg width="170" height="171" viewBox="0 0 170 171" fill="none" xmlns="http://www.w3.org/2000/svg">
<circle cx="85" cy="85.5" r="82.5" transform="rotate(180 85 85.5)" fill="#FFF5E4" stroke="#FFD285" stroke-width="5"/>
<path d="M108.933 52.4295C107.71 52.4295 106.718 51.4377 106.718 50.2142C106.718 48.9908 107.71 47.999 108.933 47.999C110.157 47.999 111.148 48.9908 111.148 50.2142C111.148 51.4377 110.157 52.4295 108.933 52.4295Z" fill="#FFAD1E"/>
<path d="M59.0055 52.4295C57.782 52.4295 56.7903 51.4377 56.7903 50.2142C56.7903 48.9908 57.782 47.999 59.0055 47.999C60.2289 47.999 61.2207 48.9908 61.2207 50.2142C61.2207 51.4377 60.2289 52.4295 59.0055 52.4295Z" fill="#FFAD1E"/>
<path d="M34.0445 70.1587C35.6734 70.1587 36.9955 71.4807 36.9955 73.1097C36.9955 82.7024 39.4192 91.6774 43.8221 98.39C47.9732 104.717 53.3637 108.199 59.006 108.199C64.6484 108.199 70.0389 104.717 74.1899 98.39C78.5929 91.6814 81.0166 82.7024 81.0166 73.1097C81.0166 71.4807 82.3387 70.1587 83.9676 70.1587C85.5966 70.1587 86.9186 71.4807 86.9186 73.1097C86.9186 82.7024 89.3424 91.6774 93.7453 98.39C97.8964 104.717 103.291 108.199 108.929 108.199C114.568 108.199 119.962 104.717 124.113 98.39C128.516 91.6814 130.94 82.7024 130.94 73.1097C130.94 71.4807 132.262 70.1587 133.891 70.1587C135.52 70.1587 136.842 71.4807 136.842 73.1097C136.842 83.8396 134.072 93.9674 129.047 101.624C123.767 109.667 116.625 114.097 108.929 114.097C101.233 114.097 94.0876 109.667 88.8112 101.624C86.836 98.6143 85.2149 95.2147 83.9676 91.5555C82.7203 95.2147 81.0992 98.6143 79.124 101.624C73.8437 109.667 66.7023 114.097 59.006 114.097C51.3098 114.097 44.1644 109.667 38.888 101.624C33.8595 93.9635 31.0935 83.8356 31.0935 73.1097C31.0935 71.4807 32.4155 70.1587 34.0445 70.1587Z" fill="#FFAD1E"/>
<path d="M68.2686 105.91C60.6564 105.91 54.4854 99.7387 54.4854 92.1264C54.4854 84.5142 60.6564 78.3433 68.2686 78.3433C75.8808 78.3433 82.0518 84.5142 82.0518 92.1264C82.0518 99.7387 75.8808 105.91 68.2686 105.91Z" fill="#FFAD1E"/>
<path d="M118.211 105.91C110.599 105.91 104.428 99.7387 104.428 92.1264C104.428 84.5142 110.599 78.3433 118.211 78.3433C125.823 78.3433 131.994 84.5142 131.994 92.1264C131.994 99.7387 125.823 105.91 118.211 105.91Z" fill="#FFAD1E"/>
<path d="M70.8695 127.125H97.0666C98.6955 127.125 100.018 125.803 100.018 124.174C100.018 122.545 98.6955 121.223 97.0666 121.223H70.8695C69.2405 121.223 67.9185 122.545 67.9185 124.174C67.9185 125.803 69.2405 127.125 70.8695 127.125Z" fill="#FFD285"/>
</svg>
