<svg width="160" height="161" viewBox="0 0 160 161" fill="none" xmlns="http://www.w3.org/2000/svg">
<circle cx="80" cy="80.5" r="80" transform="rotate(180 80 80.5)" fill="#FFF5E4"/>
<path d="M103.933 47.4295C102.71 47.4295 101.718 46.4377 101.718 45.2142C101.718 43.9908 102.71 42.999 103.933 42.999C105.157 42.999 106.148 43.9908 106.148 45.2142C106.148 46.4377 105.157 47.4295 103.933 47.4295Z" fill="#FFAD1E"/>
<path d="M54.0055 47.4295C52.782 47.4295 51.7903 46.4377 51.7903 45.2142C51.7903 43.9908 52.782 42.999 54.0055 42.999C55.2289 42.999 56.2207 43.9908 56.2207 45.2142C56.2207 46.4377 55.2289 47.4295 54.0055 47.4295Z" fill="#FFAD1E"/>
<path d="M29.0445 65.1587C30.6734 65.1587 31.9955 66.4807 31.9955 68.1097C31.9955 77.7024 34.4192 86.6774 38.8221 93.39C42.9732 99.717 48.3637 103.199 54.006 103.199C59.6484 103.199 65.0389 99.717 69.1899 93.39C73.5929 86.6814 76.0166 77.7024 76.0166 68.1097C76.0166 66.4807 77.3387 65.1587 78.9676 65.1587C80.5966 65.1587 81.9186 66.4807 81.9186 68.1097C81.9186 77.7024 84.3424 86.6774 88.7453 93.39C92.8964 99.717 98.2908 103.199 103.929 103.199C109.568 103.199 114.962 99.717 119.113 93.39C123.516 86.6814 125.94 77.7024 125.94 68.1097C125.94 66.4807 127.262 65.1587 128.891 65.1587C130.52 65.1587 131.842 66.4807 131.842 68.1097C131.842 78.8396 129.072 88.9674 124.047 96.6243C118.767 104.667 111.625 109.097 103.929 109.097C96.233 109.097 89.0876 104.667 83.8112 96.6243C81.836 93.6143 80.2149 90.2147 78.9676 86.5555C77.7203 90.2147 76.0992 93.6143 74.124 96.6243C68.8437 104.667 61.7023 109.097 54.006 109.097C46.3098 109.097 39.1644 104.667 33.888 96.6243C28.8595 88.9635 26.0935 78.8356 26.0935 68.1097C26.0935 66.4807 27.4155 65.1587 29.0445 65.1587Z" fill="#FFAD1E"/>
<path d="M63.2686 100.91C55.6564 100.91 49.4854 94.7387 49.4854 87.1264C49.4854 79.5142 55.6564 73.3433 63.2686 73.3433C70.8808 73.3433 77.0518 79.5142 77.0518 87.1264C77.0518 94.7387 70.8808 100.91 63.2686 100.91Z" fill="#FFAD1E"/>
<path d="M113.211 100.91C105.599 100.91 99.4278 94.7387 99.4278 87.1264C99.4278 79.5142 105.599 73.3433 113.211 73.3433C120.823 73.3433 126.994 79.5142 126.994 87.1264C126.994 94.7387 120.823 100.91 113.211 100.91Z" fill="#FFAD1E"/>
<path d="M65.8695 122.125H92.0666C93.6955 122.125 95.0176 120.803 95.0176 119.174C95.0176 117.545 93.6955 116.223 92.0666 116.223H65.8695C64.2405 116.223 62.9185 117.545 62.9185 119.174C62.9185 120.803 64.2405 122.125 65.8695 122.125Z" fill="#FFD285"/>
</svg>
