<svg width="160" height="161" viewBox="0 0 160 161" fill="none" xmlns="http://www.w3.org/2000/svg">
<circle cx="80" cy="80.5" r="80" transform="rotate(180 80 80.5)" fill="#FFF5E4"/>
<path d="M117.916 68.0973C113.384 68.0973 109.123 66.3335 105.921 63.1269L103.987 61.1932L102.015 63.1647C98.7069 66.4732 94.3635 68.1237 90.0201 68.1237C86.4849 68.1237 82.9498 67.0284 79.9736 64.8378C77.0881 66.9491 73.6247 68.0935 69.98 68.0935C65.4477 68.0935 61.1874 66.3297 57.9846 63.1231L56.0509 61.1894L54.0794 63.1609C50.7708 66.4695 46.4274 68.1199 42.084 68.1199C37.7406 68.1199 33.3972 66.4657 30.0887 63.1609C26.8859 59.9581 25.1183 55.6978 25.1183 51.1656C25.1183 49.6019 26.3873 48.3329 27.9509 48.3329C29.5146 48.3329 30.7836 49.6019 30.7836 51.1656C30.7836 54.1833 31.9582 57.0197 34.0921 59.1574C38.4998 63.565 45.6645 63.5613 50.0721 59.1574L52.0436 57.1859L49.4225 54.5648C49.4074 54.5496 49.396 54.5345 49.3847 54.5232C49.3318 54.4666 49.2789 54.4099 49.2299 54.3495C45.7816 50.6821 45.8382 44.896 49.4262 41.3079C53.0823 37.6519 59.0271 37.6519 62.6831 41.3079C66.2673 44.8922 66.3278 50.6783 62.8795 54.3495C62.8304 54.4099 62.7775 54.4666 62.7246 54.5232C62.7095 54.5383 62.6982 54.5534 62.6868 54.5648L60.0657 57.1859L61.9995 59.1197C64.1334 61.2536 66.9698 62.4282 69.9913 62.4282C72.1517 62.4282 74.2139 61.8239 75.9965 60.7022C74.093 57.9111 73.0695 54.6214 73.0695 51.1693C73.0695 49.6057 74.3385 48.3367 75.9021 48.3367C77.4657 48.3367 78.7348 49.6057 78.7348 51.1693C78.7348 53.0125 79.1767 54.7876 80.0038 56.3776C80.8309 54.8065 81.2766 53.0502 81.2917 51.2298C81.3068 49.6737 82.5721 48.4198 84.1244 48.4198H84.1508C85.7144 48.4349 86.9721 49.7115 86.9608 51.2751C86.9306 54.6932 85.8919 57.9564 83.9922 60.7173C85.7824 61.8579 87.8635 62.4697 90.039 62.4697C93.0567 62.4697 95.8931 61.2951 98.027 59.1612L99.9986 57.1897L97.3812 54.5723C97.3812 54.5723 97.3812 54.5723 97.3774 54.5723C93.7214 50.9163 93.7214 44.9715 97.3774 41.3155C99.1488 39.5441 101.502 38.5697 104.006 38.5697C106.51 38.5697 108.863 39.5441 110.634 41.3155C114.218 44.8997 114.279 50.6897 110.831 54.357C110.77 54.4326 110.706 54.5043 110.634 54.5723L108.013 57.1935L109.947 59.1272C112.081 61.2611 114.917 62.4358 117.935 62.4358C120.953 62.4358 123.789 61.2611 125.927 59.1272C128.034 57.0197 129.209 54.2173 129.235 51.2335C129.25 49.6775 130.516 48.4236 132.068 48.4236H132.094C133.639 48.4349 134.893 49.7152 134.882 51.2789C134.844 55.7545 133.08 59.9619 129.915 63.1269C126.712 66.3297 122.452 68.0973 117.92 68.0973H117.916ZM58.672 45.319C57.2255 43.8724 54.8725 43.8724 53.4297 45.319C51.9832 46.7655 51.9832 49.1185 53.4297 50.565L56.0509 53.1862L58.672 50.565C60.1186 49.1185 60.1186 46.7655 58.672 45.319ZM106.612 45.319C105.913 44.6202 104.98 44.2312 103.991 44.2312C103.001 44.2312 102.068 44.6165 101.37 45.319C99.923 46.7655 99.923 49.1185 101.37 50.5613C101.37 50.5613 101.37 50.5613 101.37 50.565L103.987 53.1824L106.608 50.5613C107.311 49.8625 107.696 48.9297 107.696 47.9401C107.696 46.9506 107.311 46.0177 106.608 45.319H106.612Z" fill="#FFAD1E"/>
<path d="M32.0635 70.8228C33.6271 70.8228 34.8962 72.0918 34.8962 73.6554C34.8962 82.8634 37.2227 91.4785 41.449 97.918C45.4336 103.991 50.6117 107.334 56.024 107.334C61.4362 107.334 66.6143 103.991 70.5989 97.918C72.4383 95.1156 73.915 91.9015 74.999 88.4079H50.5135C48.9499 88.4079 47.6809 87.1388 47.6809 85.5752C47.6809 84.0116 48.9499 82.7426 50.5135 82.7426H75.1916C75.592 82.7426 75.9734 82.8257 76.3209 82.9767C76.8648 79.9854 77.1556 76.8544 77.1556 73.6554C77.1556 72.0918 78.4246 70.8228 79.9882 70.8228C79.9882 70.8228 79.992 70.8228 79.9958 70.8228C79.9996 70.8228 79.9996 70.8228 80.0033 70.8228C81.567 70.8228 82.836 72.0918 82.836 73.6554C82.836 82.8634 85.1626 91.4785 89.3889 97.918C93.3735 103.991 98.5516 107.334 103.964 107.334C109.376 107.334 114.554 103.991 118.539 97.918C120.378 95.1156 121.855 91.9015 122.939 88.4079H101.939C100.376 88.4079 99.1068 87.1388 99.1068 85.5752C99.1068 84.0116 100.376 82.7426 101.939 82.7426H124.306C124.823 79.8193 125.095 76.7713 125.095 73.6554C125.095 72.0918 126.364 70.8228 127.928 70.8228C129.492 70.8228 130.761 72.0918 130.761 73.6554C130.761 77.9573 130.292 82.1571 129.397 86.1266C129.397 86.1455 129.39 86.1644 129.386 86.1833C128.143 91.6938 126.077 96.7623 123.279 101.03C118.21 108.75 111.355 113.003 103.968 113.003C96.58 113.003 89.7212 108.75 84.6565 101.03C82.7567 98.1333 81.1968 94.8625 79.9996 91.3425C78.8023 94.8663 77.2425 98.1333 75.3427 101.03C70.2741 108.75 63.4191 113.003 56.0315 113.003C48.644 113.003 41.7852 108.75 36.7204 101.03C31.8935 93.6766 29.2384 83.9549 29.2384 73.6592C29.2384 72.0956 30.5074 70.8265 32.0711 70.8265L32.0635 70.8228Z" fill="#FFAD1E"/>
<path d="M84.5211 120.757L82.6533 121.045C82.6533 121.045 82.6533 121.045 82.6496 121.044C81.3181 121.249 79.983 121.112 78.7537 120.656C78.0797 120.406 77.4364 120.062 76.8436 119.627C75.1617 118.393 74.0564 116.58 73.7393 114.516C73.082 110.258 76.0113 106.256 80.2696 105.599C82.3334 105.282 84.3959 105.785 86.0792 107.016C87.7148 108.217 88.7972 109.966 89.1492 111.959C89.1623 112.014 89.1755 112.07 89.1835 112.128L89.4722 113.995L90.6253 113.817C92.6101 113.508 94.3601 112.447 95.5464 110.827C96.7328 109.207 97.218 107.218 96.9132 105.234C96.6089 103.272 95.5673 101.538 93.9761 100.354C92.6668 99.3753 92.3939 97.5217 93.3738 96.2086C94.3523 94.8993 96.2059 94.6264 97.519 95.6063C100.36 97.7257 102.223 100.822 102.767 104.331C103.899 111.659 98.8561 118.542 91.5278 119.674L90.3747 119.853L90.5583 121.05C91.1082 124.598 90.2407 128.152 88.1169 131.05C85.993 133.948 82.8717 135.844 79.3194 136.393C77.0232 136.746 74.7268 136.509 72.6087 135.724C71.4497 135.294 70.346 134.703 69.3227 133.953C68.0041 132.988 67.7187 131.134 68.6852 129.811C69.6517 128.489 71.5057 128.204 72.8266 129.174C74.4464 130.36 76.4359 130.846 78.4192 130.541C80.404 130.232 82.154 129.171 83.3403 127.551C84.5267 125.931 85.0119 123.942 84.7071 121.959L84.5221 120.765L84.5211 120.757ZM81.1698 111.451C80.6699 111.527 80.2335 111.794 79.935 112.202C79.6364 112.609 79.5148 113.107 79.5905 113.607C79.6663 114.107 79.9341 114.544 80.3415 114.842C80.7489 115.141 81.2472 115.262 81.7471 115.187L83.6149 114.898L83.3263 113.03C83.1645 112.001 82.2009 111.294 81.1698 111.451Z" fill="#FFD285"/>
</svg>
