<svg width="170" height="171" viewBox="0 0 170 171" fill="none" xmlns="http://www.w3.org/2000/svg">
<circle cx="80" cy="80" r="82.5" transform="matrix(1 0 0 -1 5 165.5)" fill="#FFF5E4" stroke="#FFD285" stroke-width="5"/>
<path d="M131.552 81.9307C130.067 81.9307 128.862 83.1358 128.862 84.6206C128.862 87.3321 128.647 89.9897 128.234 92.5506H106.342C104.857 92.5506 103.652 93.7557 103.652 95.2405C103.652 96.7254 104.857 97.9304 106.342 97.9304H127.022C125.975 101.521 124.504 104.817 122.636 107.664C118.852 113.432 113.938 116.606 108.795 116.606C103.652 116.606 98.7382 113.432 94.9544 107.664C90.941 101.549 88.7316 93.3647 88.7316 84.6206C88.7316 83.1358 87.5265 81.9307 86.0417 81.9307C86.0417 81.9307 86.0381 81.9307 86.0345 81.9307C86.0309 81.9307 86.0309 81.9307 86.0273 81.9307C84.5425 81.9307 83.3374 83.1358 83.3374 84.6206C83.3374 87.3321 83.1222 89.9897 82.7097 92.5506H59.7843C58.2994 92.5506 57.0943 93.7557 57.0943 95.2405C57.0943 96.7254 58.2994 97.9304 59.7843 97.9304H81.4975C80.4502 101.521 78.9797 104.817 77.1111 107.664C73.3272 113.432 68.4136 116.606 63.2704 116.606C58.1273 116.606 53.2136 113.432 49.4298 107.664C45.4164 101.546 43.207 93.3647 43.207 84.6206C43.207 83.1358 42.0019 81.9307 40.5171 81.9307C39.0322 81.9307 37.8271 83.1358 37.8271 84.6206C37.8271 94.4012 40.3521 103.633 44.9322 110.613C49.7454 117.944 56.2551 121.982 63.2704 121.982C70.2858 121.982 76.799 117.944 81.6087 110.613C83.4127 107.862 84.894 104.756 86.0309 101.413C87.1679 104.759 88.6491 107.862 90.4532 110.613C95.2664 117.944 101.776 121.982 108.791 121.982C115.807 121.982 122.32 117.944 127.13 110.613C131.713 103.63 134.235 94.3977 134.235 84.6206C134.235 83.1358 133.03 81.9307 131.545 81.9307H131.552Z" fill="#FFAD1E"/>
<path d="M135.593 74.2838C129.676 74.0742 124.113 71.6525 119.924 67.4633L114.589 62.1283L121.196 55.5211C126.954 49.7632 126.954 40.3981 121.196 34.6403C118.409 31.8499 114.701 30.3174 110.758 30.3174C106.814 30.3174 103.106 31.8535 100.319 34.6403C94.5612 40.3981 94.5612 49.7632 100.319 55.5211L106.926 62.1283L101.591 67.4633C97.4274 71.6272 91.9009 74.0416 86.0238 74.2766C80.1467 74.0453 74.6201 71.6272 70.4562 67.4633L65.1213 62.1283L71.7285 55.5211C77.4864 49.7632 77.4864 40.3981 71.7285 34.6403C68.9418 31.8499 65.2333 30.3174 61.29 30.3174C57.3466 30.3174 53.6381 31.8535 50.8514 34.6403C45.0935 40.3981 45.0935 49.7632 50.8514 55.5211L57.4586 62.1283L52.1236 67.4633C47.9345 71.6525 42.3718 74.0742 36.4549 74.2838C34.9585 74.338 33.7874 75.5923 33.8417 77.0886C33.8923 78.5525 35.0959 79.7055 36.5489 79.7055C36.5814 79.7055 36.614 79.7055 36.6465 79.7055C43.9369 79.4489 50.7971 76.4633 55.9586 71.3019L61.2936 65.9669L66.6285 71.3019C71.79 76.4633 78.6503 79.4489 85.9406 79.7055C85.9623 79.7055 85.9876 79.7055 86.0093 79.7055C86.0093 79.7055 86.0165 79.7055 86.0202 79.7055C86.0202 79.7055 86.0274 79.7055 86.031 79.7055C86.0346 79.7055 86.0382 79.7055 86.0419 79.7055C86.0419 79.7055 86.0491 79.7055 86.0527 79.7055C86.0744 79.7055 86.0997 79.7055 86.1214 79.7055C93.4118 79.4489 100.272 76.4633 105.433 71.3019L110.768 65.9669L116.103 71.3019C121.265 76.4633 128.125 79.4489 135.416 79.7055C135.448 79.7055 135.481 79.7055 135.513 79.7055C136.966 79.7055 138.17 78.5525 138.22 77.0886C138.275 75.5923 137.103 74.338 135.607 74.2838H135.593ZM54.6755 38.4789C56.4393 36.715 58.7851 35.7427 61.2827 35.7427C63.7803 35.7427 66.1225 36.715 67.89 38.4789C71.5334 42.1222 71.5334 48.05 67.89 51.6898L61.2827 58.297L54.6755 51.6898C51.0321 48.0464 51.0321 42.1186 54.6755 38.4789ZM104.15 38.4789C105.914 36.715 108.26 35.7427 110.758 35.7427C113.255 35.7427 115.597 36.715 117.365 38.4789C121.008 42.1222 121.008 48.05 117.365 51.6898L110.758 58.297L104.15 51.6898C100.507 48.0464 100.507 42.1186 104.15 38.4789Z" fill="#FFAD1E"/>
<path d="M91.1621 131.462L89.3884 131.736C89.3884 131.736 89.3884 131.736 89.3849 131.735C88.1206 131.93 86.8529 131.799 85.6856 131.366C85.0457 131.129 84.4348 130.802 83.8719 130.39C82.2749 129.217 81.2254 127.496 80.9243 125.536C80.3001 121.493 83.0816 117.693 87.125 117.069C89.0847 116.768 91.0432 117.246 92.6415 118.415C94.1946 119.555 95.2224 121.216 95.5566 123.108C95.5691 123.161 95.5816 123.213 95.5892 123.268L95.8633 125.042L96.9583 124.872C98.8429 124.579 100.505 123.571 101.631 122.033C102.758 120.495 103.218 118.606 102.929 116.723C102.64 114.86 101.651 113.213 100.14 112.088C98.8967 111.159 98.6376 109.399 99.568 108.152C100.497 106.909 102.257 106.65 103.504 107.58C106.202 109.593 107.971 112.533 108.487 115.865C109.562 122.823 104.774 129.359 97.8152 130.434L96.7203 130.603L96.8946 131.74C97.4167 135.11 96.5931 138.484 94.5764 141.236C92.5597 143.988 89.5959 145.788 86.2228 146.309C84.0425 146.644 81.8619 146.42 79.8507 145.674C78.7502 145.265 77.7022 144.705 76.7305 143.992C75.4784 143.076 75.2074 141.315 76.1252 140.06C77.0429 138.804 78.8033 138.533 80.0576 139.454C81.5957 140.581 83.4847 141.042 85.368 140.752C87.2526 140.459 88.9144 139.452 90.0409 137.914C91.1674 136.376 91.6281 134.487 91.3386 132.603L91.163 131.47L91.1621 131.462ZM87.9798 122.626C87.5051 122.697 87.0908 122.952 86.8073 123.339C86.5238 123.725 86.4083 124.199 86.4803 124.673C86.5522 125.148 86.8065 125.562 87.1933 125.846C87.5802 126.129 88.0533 126.245 88.528 126.173L90.3016 125.899L90.0275 124.125C89.8739 123.148 88.9589 122.477 87.9798 122.626Z" fill="#FFD285"/>
</svg>
