<svg width="160" height="161" viewBox="0 0 160 161" fill="none" xmlns="http://www.w3.org/2000/svg">
<g id="Property 1=1">
<circle id="Ellipse 110" cx="80" cy="80" r="80" transform="matrix(1 0 0 -1 0 160.5)" fill="#EEF9F9"/>
<path id="Vector" d="M138.504 49.7077C136.875 49.7077 135.553 51.0296 135.553 52.6583C135.553 55.8016 134.33 58.7561 132.107 60.9828C127.52 65.5739 120.053 65.5739 115.462 60.9828L113.408 58.9292L116.139 56.199C117.984 54.3539 118.999 51.903 118.999 49.2947C118.999 46.6864 117.984 44.2354 116.139 42.3904C114.294 40.5453 111.843 39.5303 109.234 39.5303C106.626 39.5303 104.175 40.5453 102.33 42.3904C100.485 44.2354 99.47 46.6864 99.47 49.2947C99.47 51.903 100.481 54.346 102.322 56.1911C102.322 56.1911 102.326 56.195 102.33 56.199L105.06 58.9292L103.046 60.9435C100.823 63.1662 97.8688 64.3897 94.7255 64.3897C91.5822 64.3897 88.6277 63.1662 86.401 60.9435C84.2058 58.7483 82.9823 55.8292 82.9547 52.7213C82.9547 52.7134 82.9547 52.7094 82.9547 52.7055C82.9547 52.6898 82.9547 52.678 82.9547 52.6622C82.9547 51.0335 81.6329 49.7117 80.0042 49.7117C78.3755 49.7117 77.0536 51.0335 77.0536 52.6622C77.0536 55.8056 75.8301 58.7601 73.6073 60.9868C69.0202 65.5778 61.5533 65.5778 56.9622 60.9868L54.9086 58.9332L57.6389 56.2029C59.484 54.3578 60.499 51.9069 60.499 49.2986C60.499 46.6903 59.484 44.2394 57.6389 42.3943C55.7938 40.5492 53.3429 39.5342 50.7346 39.5342C48.1263 39.5342 45.6754 40.5492 43.8303 42.3943C41.9852 44.2394 40.9702 46.6903 40.9702 49.2986C40.9702 51.9069 41.9852 54.3578 43.8303 56.2029L46.5605 58.9332L44.5463 60.9474C42.3235 63.1702 39.369 64.3937 36.2257 64.3937C33.0824 64.3937 30.1279 63.1702 27.9012 60.9474C25.706 58.7522 24.4825 55.8331 24.4549 52.7252C24.4392 51.1043 23.1213 49.7982 21.5044 49.7982H21.4768C19.8481 49.8061 18.542 51.1398 18.5538 52.7685C18.5931 57.4303 20.4303 61.8129 23.7271 65.1097C27.0632 68.4458 31.5009 70.2869 36.2218 70.2869C40.9427 70.2869 45.3803 68.4497 48.7164 65.1097L50.7307 63.0954L52.7842 65.149C56.2305 68.5953 60.7547 70.3145 65.2789 70.3145C69.8031 70.3145 74.3273 68.5913 77.7735 65.149C78.6194 64.3032 79.3668 63.3905 80.012 62.4188C80.6533 63.3747 81.389 64.2757 82.223 65.1097C85.5591 68.4458 89.9967 70.2869 94.7176 70.2869C99.4385 70.2869 103.876 68.4497 107.212 65.1097L109.227 63.0954L111.28 65.149C114.726 68.5953 119.251 70.3145 123.775 70.3145C128.299 70.3145 132.823 68.5913 136.269 65.149C139.606 61.8129 141.447 57.3753 141.447 52.6544C141.447 51.0257 140.125 49.7038 138.496 49.7038L138.504 49.7077ZM48.0004 46.5605C48.7282 45.8327 49.6999 45.4275 50.7307 45.4275C51.7614 45.4275 52.7331 45.8287 53.4609 46.5605C54.1887 47.2922 54.5939 48.26 54.5939 49.2907C54.5939 50.3215 54.1926 51.2932 53.4609 52.021L50.7307 54.7512L48.0004 52.021C47.2726 51.2932 46.8674 50.3215 46.8674 49.2907C46.8674 48.26 47.2687 47.2883 48.0004 46.5605ZM106.5 46.5605C107.228 45.8327 108.2 45.4275 109.23 45.4275C110.261 45.4275 111.233 45.8287 111.961 46.5605C112.689 47.2922 113.094 48.26 113.094 49.2907C113.094 50.3215 112.692 51.2932 111.961 52.021L109.23 54.7512L106.5 52.021C105.772 51.2932 105.371 50.3215 105.371 49.2907C105.371 48.26 105.772 47.2883 106.504 46.5605H106.5Z" fill="#35D0BA"/>
<path id="Vector_2" d="M129.755 72.4453C128.126 72.4453 126.804 73.7672 126.804 75.3959C126.804 84.9872 124.381 93.9608 119.978 100.672C115.828 106.998 110.438 110.48 104.797 110.48C99.1553 110.48 93.7656 106.998 89.6152 100.672C85.2129 93.9647 82.7895 84.9872 82.7895 75.3959C82.7895 73.7672 81.4677 72.4453 79.839 72.4453C79.839 72.4453 79.835 72.4453 79.8311 72.4453C79.8272 72.4453 79.8272 72.4453 79.8232 72.4453C78.1945 72.4453 76.8727 73.7672 76.8727 75.3959C76.8727 84.9872 74.4493 93.9608 70.047 100.672C65.8966 106.998 60.5069 110.48 54.8654 110.48C49.2239 110.48 43.8342 106.998 39.6838 100.672C35.2815 93.9647 32.8582 84.9872 32.8582 75.3959C32.8582 73.7672 31.5363 72.4453 29.9076 72.4453C28.2789 72.4453 26.957 73.7672 26.957 75.3959C26.957 86.1241 29.7266 96.2504 34.7504 103.906C40.03 111.947 47.1703 116.377 54.8654 116.377C62.5605 116.377 69.7048 111.947 74.9804 103.906C76.9592 100.889 78.584 97.4818 79.8311 93.8153C81.0782 97.4857 82.703 100.889 84.6818 103.906C89.9614 111.947 97.1017 116.377 104.797 116.377C112.492 116.377 119.636 111.947 124.912 103.906C129.939 96.2465 132.705 86.1202 132.705 75.3959C132.705 73.7672 131.383 72.4453 129.755 72.4453Z" fill="#35D0BA"/>
<path id="Vector_3" d="M96.1893 102.649C103.8 102.649 109.97 96.4786 109.97 88.8675C109.97 81.2564 103.8 75.0864 96.1893 75.0864C88.5782 75.0864 82.4082 81.2564 82.4082 88.8675C82.4082 96.4786 88.5782 102.649 96.1893 102.649Z" fill="#35D0BA"/>
<path id="Vector_4" d="M46.2537 102.649C53.8648 102.649 60.0348 96.4786 60.0348 88.8675C60.0348 81.2564 53.8648 75.0864 46.2537 75.0864C38.6427 75.0864 32.4727 81.2564 32.4727 88.8675C32.4727 96.4786 38.6427 102.649 46.2537 102.649Z" fill="#35D0BA"/>
<path id="Vector_5" d="M76.6306 120.723L78.352 121.064C78.352 121.064 78.352 121.064 78.3554 121.063C79.5825 121.306 80.8263 121.231 81.9846 120.856C82.6196 120.651 83.2264 120.358 83.7969 119.977C85.4056 118.898 86.5022 117.26 86.8774 115.358C87.2527 113.456 86.8663 111.523 85.7906 109.913C84.7114 108.304 83.0733 107.208 81.1714 106.833C79.2694 106.457 77.3363 106.844 75.7264 107.919C74.1422 108.979 73.0587 110.586 72.6675 112.451C72.6615 112.48 72.6519 112.51 72.6459 112.539L72.3047 114.26L71.242 114.049C69.4095 113.686 67.8314 112.632 66.7945 111.082C65.7577 109.533 65.3858 107.669 65.7465 105.841C66.1058 104.032 67.1403 102.465 68.6617 101.425C69.9148 100.569 70.2408 98.8602 69.3834 97.6036C68.5272 96.3505 66.8149 96.0257 65.5619 96.8819C62.8434 98.7364 60.9897 101.537 60.3509 104.769C59.0129 111.522 63.4201 118.105 70.1735 119.443L71.2362 119.655L71.0188 120.758C69.6807 127.511 74.0879 134.094 80.8413 135.432C82.9574 135.85 85.097 135.721 87.0927 135.075C88.1847 134.722 89.2317 134.217 90.2105 133.562C91.4716 132.718 91.8127 131.009 90.9658 129.749C90.1212 128.484 88.4126 128.146 87.1526 128.993C85.6034 130.03 83.7388 130.402 81.911 130.041C80.0785 129.678 78.5003 128.624 77.4635 127.075C76.4266 125.526 76.0548 123.661 76.4155 121.833L76.6329 120.73L76.6306 120.723ZM80.1063 112.226C80.5671 112.316 80.9613 112.581 81.2222 112.971C81.4832 113.361 81.5764 113.828 81.4865 114.288C81.3966 114.749 81.131 115.143 80.7413 115.404C80.3517 115.665 79.8847 115.759 79.424 115.669L77.7026 115.327L78.0438 113.606C78.2343 112.658 79.1594 112.039 80.1063 112.226Z" fill="#7EE3D5"/>
</g>
</svg>
