<svg width="170" height="171" viewBox="0 0 170 171" fill="none" xmlns="http://www.w3.org/2000/svg">
<circle cx="85" cy="85.5" r="82.5" transform="rotate(180 85 85.5)" fill="#FFF5E4" stroke="#FFD285" stroke-width="5"/>
<path d="M122.916 73.0973C118.384 73.0973 114.123 71.3335 110.921 68.1269L108.987 66.1932L107.015 68.1647C103.707 71.4732 99.3635 73.1237 95.0201 73.1237C91.4849 73.1237 87.9498 72.0284 84.9736 69.8378C82.0881 71.9491 78.6247 73.0935 74.98 73.0935C70.4477 73.0935 66.1874 71.3297 62.9846 68.1231L61.0509 66.1894L59.0794 68.1609C55.7708 71.4695 51.4274 73.1199 47.084 73.1199C42.7406 73.1199 38.3972 71.4657 35.0887 68.1609C31.8859 64.9581 30.1183 60.6978 30.1183 56.1656C30.1183 54.6019 31.3873 53.3329 32.9509 53.3329C34.5146 53.3329 35.7836 54.6019 35.7836 56.1656C35.7836 59.1833 36.9582 62.0197 39.0921 64.1574C43.4998 68.565 50.6645 68.5613 55.0721 64.1574L57.0436 62.1859L54.4225 59.5648C54.4074 59.5496 54.396 59.5345 54.3847 59.5232C54.3318 59.4666 54.2789 59.4099 54.2299 59.3495C50.7816 55.6821 50.8382 49.896 54.4262 46.3079C58.0823 42.6519 64.0271 42.6519 67.6831 46.3079C71.2673 49.8922 71.3278 55.6783 67.8795 59.3495C67.8304 59.4099 67.7775 59.4666 67.7246 59.5232C67.7095 59.5383 67.6982 59.5534 67.6868 59.5648L65.0657 62.1859L66.9995 64.1197C69.1334 66.2536 71.9698 67.4282 74.9913 67.4282C77.1517 67.4282 79.2139 66.8239 80.9965 65.7022C79.093 62.9111 78.0695 59.6214 78.0695 56.1693C78.0695 54.6057 79.3385 53.3367 80.9021 53.3367C82.4657 53.3367 83.7348 54.6057 83.7348 56.1693C83.7348 58.0125 84.1767 59.7876 85.0038 61.3776C85.8309 59.8065 86.2766 58.0502 86.2917 56.2298C86.3068 54.6737 87.5721 53.4198 89.1244 53.4198H89.1508C90.7144 53.4349 91.9721 54.7115 91.9608 56.2751C91.9306 59.6932 90.8919 62.9564 88.9922 65.7173C90.7824 66.8579 92.8635 67.4697 95.039 67.4697C98.0567 67.4697 100.893 66.2951 103.027 64.1612L104.999 62.1897L102.381 59.5723C102.381 59.5723 102.381 59.5723 102.377 59.5723C98.7214 55.9163 98.7214 49.9715 102.377 46.3155C104.149 44.5441 106.502 43.5697 109.006 43.5697C111.51 43.5697 113.863 44.5441 115.634 46.3155C119.218 49.8997 119.279 55.6897 115.831 59.357C115.77 59.4326 115.706 59.5043 115.634 59.5723L113.013 62.1935L114.947 64.1272C117.081 66.2611 119.917 67.4358 122.935 67.4358C125.953 67.4358 128.789 66.2611 130.927 64.1272C133.034 62.0197 134.209 59.2173 134.235 56.2335C134.25 54.6775 135.516 53.4236 137.068 53.4236H137.094C138.639 53.4349 139.893 54.7152 139.882 56.2789C139.844 60.7545 138.08 64.9619 134.915 68.1269C131.712 71.3297 127.452 73.0973 122.92 73.0973H122.916ZM63.672 50.319C62.2255 48.8724 59.8725 48.8724 58.4297 50.319C56.9832 51.7655 56.9832 54.1185 58.4297 55.565L61.0509 58.1862L63.672 55.565C65.1186 54.1185 65.1186 51.7655 63.672 50.319ZM111.612 50.319C110.913 49.6202 109.98 49.2312 108.991 49.2312C108.001 49.2312 107.068 49.6165 106.37 50.319C104.923 51.7655 104.923 54.1185 106.37 55.5613C106.37 55.5613 106.37 55.5613 106.37 55.565L108.987 58.1824L111.608 55.5613C112.311 54.8625 112.696 53.9297 112.696 52.9401C112.696 51.9506 112.311 51.0177 111.608 50.319H111.612Z" fill="#FFAD1E"/>
<path d="M37.0635 75.8228C38.6271 75.8228 39.8962 77.0918 39.8962 78.6554C39.8962 87.8634 42.2227 96.4785 46.449 102.918C50.4336 108.991 55.6117 112.334 61.024 112.334C66.4362 112.334 71.6143 108.991 75.5989 102.918C77.4383 100.116 78.915 96.9015 79.999 93.4079H55.5135C53.9499 93.4079 52.6809 92.1388 52.6809 90.5752C52.6809 89.0116 53.9499 87.7426 55.5135 87.7426H80.1916C80.592 87.7426 80.9734 87.8257 81.3209 87.9767C81.8648 84.9854 82.1556 81.8544 82.1556 78.6554C82.1556 77.0918 83.4246 75.8228 84.9882 75.8228C84.9882 75.8228 84.992 75.8228 84.9958 75.8228C84.9996 75.8228 84.9996 75.8228 85.0033 75.8228C86.567 75.8228 87.836 77.0918 87.836 78.6554C87.836 87.8634 90.1626 96.4785 94.3889 102.918C98.3735 108.991 103.552 112.334 108.964 112.334C114.376 112.334 119.554 108.991 123.539 102.918C125.378 100.116 126.855 96.9015 127.939 93.4079H106.939C105.376 93.4079 104.107 92.1388 104.107 90.5752C104.107 89.0116 105.376 87.7426 106.939 87.7426H129.306C129.823 84.8193 130.095 81.7713 130.095 78.6554C130.095 77.0918 131.364 75.8228 132.928 75.8228C134.492 75.8228 135.761 77.0918 135.761 78.6554C135.761 82.9573 135.292 87.1571 134.397 91.1266C134.397 91.1455 134.39 91.1644 134.386 91.1833C133.143 96.6938 131.077 101.762 128.279 106.03C123.21 113.75 116.355 118.003 108.968 118.003C101.58 118.003 94.7212 113.75 89.6565 106.03C87.7567 103.133 86.1968 99.8625 84.9996 96.3425C83.8023 99.8663 82.2425 103.133 80.3427 106.03C75.2741 113.75 68.4191 118.003 61.0315 118.003C53.644 118.003 46.7852 113.75 41.7204 106.03C36.8935 98.6766 34.2384 88.9549 34.2384 78.6592C34.2384 77.0956 35.5074 75.8265 37.0711 75.8265L37.0635 75.8228Z" fill="#FFAD1E"/>
<path d="M89.5211 125.757L87.6533 126.045C87.6533 126.045 87.6533 126.045 87.6496 126.044C86.3181 126.249 84.983 126.112 83.7537 125.656C83.0797 125.406 82.4364 125.062 81.8436 124.627C80.1617 123.393 79.0564 121.58 78.7393 119.516C78.082 115.258 81.0113 111.256 85.2696 110.599C87.3334 110.282 89.3959 110.785 91.0792 112.016C92.7148 113.217 93.7972 114.966 94.1492 116.959C94.1623 117.014 94.1755 117.07 94.1835 117.128L94.4722 118.995L95.6253 118.817C97.6101 118.508 99.3601 117.447 100.546 115.827C101.733 114.207 102.218 112.218 101.913 110.234C101.609 108.272 100.567 106.538 98.9761 105.354C97.6668 104.375 97.3939 102.522 98.3738 101.209C99.3523 99.8993 101.206 99.6264 102.519 100.606C105.36 102.726 107.223 105.822 107.767 109.331C108.899 116.659 103.856 123.542 96.5278 124.674L95.3747 124.853L95.5583 126.05C96.1082 129.598 95.2407 133.152 93.1169 136.05C90.993 138.948 87.8717 140.844 84.3194 141.393C82.0232 141.746 79.7268 141.509 77.6087 140.724C76.4497 140.294 75.346 139.703 74.3227 138.953C73.0041 137.988 72.7187 136.134 73.6852 134.811C74.6517 133.489 76.5057 133.204 77.8266 134.174C79.4464 135.36 81.4359 135.846 83.4192 135.541C85.404 135.232 87.154 134.171 88.3403 132.551C89.5267 130.931 90.0119 128.942 89.7071 126.959L89.5221 125.765L89.5211 125.757ZM86.1698 116.451C85.6699 116.527 85.2335 116.794 84.935 117.202C84.6364 117.609 84.5148 118.107 84.5905 118.607C84.6663 119.107 84.9341 119.544 85.3415 119.842C85.7489 120.141 86.2472 120.262 86.7471 120.187L88.6149 119.898L88.3263 118.03C88.1645 117.001 87.2009 116.294 86.1698 116.451Z" fill="#FFD285"/>
</svg>
