<svg width="170" height="171" viewBox="0 0 170 171" fill="none" xmlns="http://www.w3.org/2000/svg">
<circle cx="85" cy="85.5" r="82.5" transform="rotate(180 85 85.5)" fill="#FFF5E4" stroke="#FFD285" stroke-width="5"/>
<path d="M26.495 54.7077C28.1238 54.7077 29.4456 56.0296 29.4456 57.6583C29.4456 60.8016 30.6691 63.7561 32.8919 65.9828C37.479 70.5739 44.9459 70.5739 49.537 65.9828L51.5906 63.9292L48.8603 61.199C47.0152 59.3539 46.0002 56.903 46.0002 54.2947C46.0002 51.6864 47.0152 49.2354 48.8603 47.3904C50.7054 45.5453 53.1563 44.5303 55.7646 44.5303C58.3729 44.5303 60.8239 45.5453 62.6689 47.3904C64.514 49.2354 65.529 51.6864 65.529 54.2947C65.529 56.903 64.518 59.346 62.6768 61.1911C62.6768 61.1911 62.6729 61.195 62.6689 61.199L59.9387 63.9292L61.9529 65.9435C64.1757 68.1662 67.1302 69.3897 70.2735 69.3897C73.4169 69.3897 76.3714 68.1662 78.598 65.9435C80.7933 63.7483 82.0168 60.8292 82.0443 57.7213C82.0443 57.7134 82.0443 57.7094 82.0443 57.7055C82.0443 57.6898 82.0443 57.678 82.0443 57.6622C82.0443 56.0335 83.3662 54.7117 84.9949 54.7117C86.6236 54.7117 87.9454 56.0335 87.9454 57.6622C87.9454 60.8056 89.1689 63.7601 91.3917 65.9868C95.9788 70.5778 103.446 70.5778 108.037 65.9868L110.09 63.9332L107.36 61.2029C105.515 59.3578 104.5 56.9069 104.5 54.2986C104.5 51.6903 105.515 49.2394 107.36 47.3943C109.205 45.5492 111.656 44.5342 114.264 44.5342C116.873 44.5342 119.324 45.5492 121.169 47.3943C123.014 49.2394 124.029 51.6903 124.029 54.2986C124.029 56.9069 123.014 59.3578 121.169 61.2029L118.438 63.9332L120.453 65.9474C122.676 68.1702 125.63 69.3937 128.773 69.3937C131.917 69.3937 134.871 68.1702 137.098 65.9474C139.293 63.7522 140.517 60.8331 140.544 57.7252C140.56 56.1043 141.878 54.7982 143.495 54.7982H143.522C145.151 54.8061 146.457 56.1398 146.445 57.7685C146.406 62.4303 144.569 66.8129 141.272 70.1097C137.936 73.4458 133.498 75.2869 128.777 75.2869C124.056 75.2869 119.619 73.4497 116.283 70.1097L114.268 68.0954L112.215 70.149C108.769 73.5953 104.244 75.3145 99.7201 75.3145C95.1959 75.3145 90.6717 73.5913 87.2255 70.149C86.3797 69.3032 85.6322 68.3905 84.987 67.4188C84.3457 68.3747 83.6101 69.2757 82.776 70.1097C79.4399 73.4458 75.0023 75.2869 70.2814 75.2869C65.5605 75.2869 61.1228 73.4497 57.7867 70.1097L55.7725 68.0954L53.7189 70.149C50.2727 73.5953 45.7485 75.3145 41.2243 75.3145C36.7001 75.3145 32.1759 73.5913 28.7296 70.149C25.3935 66.8129 23.5524 62.3753 23.5524 57.6544C23.5524 56.0257 24.8742 54.7038 26.5029 54.7038L26.495 54.7077ZM116.999 51.5605C116.271 50.8327 115.299 50.4275 114.268 50.4275C113.238 50.4275 112.266 50.8287 111.538 51.5605C110.81 52.2922 110.405 53.26 110.405 54.2907C110.405 55.3215 110.806 56.2932 111.538 57.021L114.268 59.7512L116.999 57.021C117.726 56.2932 118.132 55.3215 118.132 54.2907C118.132 53.26 117.73 52.2883 116.999 51.5605ZM58.4988 51.5605C57.771 50.8327 56.7993 50.4275 55.7686 50.4275C54.7378 50.4275 53.7661 50.8287 53.0383 51.5605C52.3105 52.2922 51.9053 53.26 51.9053 54.2907C51.9053 55.3215 52.3066 56.2932 53.0383 57.021L55.7686 59.7512L58.4988 57.021C59.2266 56.2932 59.6279 55.3215 59.6279 54.2907C59.6279 53.26 59.2266 52.2883 58.4949 51.5605H58.4988Z" fill="#FFAD1E"/>
<path d="M35.2444 77.4453C36.8731 77.4453 38.195 78.7672 38.195 80.3959C38.195 89.9872 40.6184 98.9608 45.0206 105.672C49.1711 111.998 54.5608 115.48 60.2022 115.48C65.8437 115.48 71.2334 111.998 75.3839 105.672C79.7861 98.9647 82.2095 89.9872 82.2095 80.3959C82.2095 78.7672 83.5314 77.4453 85.1601 77.4453C85.1601 77.4453 85.164 77.4453 85.1679 77.4453C85.1719 77.4453 85.1719 77.4453 85.1758 77.4453C86.8045 77.4453 88.1264 78.7672 88.1264 80.3959C88.1264 89.9872 90.5498 98.9608 94.952 105.672C99.1024 111.998 104.492 115.48 110.134 115.48C115.775 115.48 121.165 111.998 125.315 105.672C129.717 98.9647 132.141 89.9872 132.141 80.3959C132.141 78.7672 133.463 77.4453 135.091 77.4453C136.72 77.4453 138.042 78.7672 138.042 80.3959C138.042 91.1241 135.272 101.25 130.249 108.906C124.969 116.947 117.829 121.377 110.134 121.377C102.439 121.377 95.2943 116.947 90.0187 108.906C88.0398 105.889 86.415 102.482 85.1679 98.8153C83.9208 102.486 82.2961 105.889 80.3172 108.906C75.0377 116.947 67.8973 121.377 60.2022 121.377C52.5072 121.377 45.3629 116.947 40.0873 108.906C35.0595 101.247 32.2939 91.1202 32.2939 80.3959C32.2939 78.7672 33.6157 77.4453 35.2444 77.4453Z" fill="#FFAD1E"/>
<path d="M68.8107 107.649C61.1996 107.649 55.0296 101.479 55.0296 93.8675C55.0296 86.2564 61.1996 80.0864 68.8107 80.0864C76.4218 80.0864 82.5918 86.2564 82.5918 93.8675C82.5918 101.479 76.4218 107.649 68.8107 107.649Z" fill="#FFAD1E"/>
<path d="M118.745 107.649C111.134 107.649 104.964 101.479 104.964 93.8675C104.964 86.2564 111.134 80.0864 118.745 80.0864C126.356 80.0864 132.526 86.2564 132.526 93.8675C132.526 101.479 126.356 107.649 118.745 107.649Z" fill="#FFAD1E"/>
<path d="M88.8284 125.841L87.107 126.182C87.107 126.182 87.107 126.182 87.1035 126.181C85.8765 126.424 84.6327 126.349 83.4743 125.974C82.8393 125.769 82.2326 125.476 81.6621 125.095C80.0534 124.016 78.9568 122.378 78.5816 120.476C78.2063 118.574 78.5926 116.641 79.6684 115.031C80.7476 113.422 82.3857 112.326 84.2876 111.95C86.1896 111.575 88.1227 111.961 89.7326 113.037C91.3168 114.097 92.4003 115.704 92.7915 117.568C92.7975 117.597 92.8071 117.627 92.8131 117.656L93.1543 119.378L94.217 119.167C96.0494 118.803 97.6276 117.749 98.6645 116.2C99.7013 114.651 100.073 112.786 99.7125 110.958C99.3531 109.15 98.3187 107.582 96.7973 106.543C95.5442 105.687 95.2182 103.978 96.0756 102.721C96.9318 101.468 98.644 101.143 99.8971 102C102.616 103.854 104.469 106.654 105.108 109.886C106.446 116.64 102.039 123.223 95.2855 124.561L94.2228 124.772L94.4402 125.875C95.7783 132.629 91.3711 139.212 84.6176 140.55C82.5015 140.968 80.362 140.838 78.3663 140.193C77.2743 139.84 76.2272 139.335 75.2485 138.679C73.9874 137.836 73.6463 136.126 74.4932 134.866C75.3378 133.602 77.0464 133.264 78.3064 134.111C79.8556 135.148 81.7201 135.52 83.548 135.159C85.3805 134.796 86.9586 133.742 87.9955 132.193C89.0323 130.643 89.4042 128.779 89.0435 126.951L88.8261 125.848L88.8284 125.841ZM85.3527 117.344C84.8919 117.434 84.4977 117.699 84.2368 118.089C83.9758 118.478 83.8826 118.945 83.9725 119.406C84.0624 119.867 84.328 120.261 84.7176 120.522C85.1073 120.783 85.5743 120.876 86.035 120.786L87.7564 120.445L87.4152 118.724C87.2247 117.776 86.2996 117.157 85.3527 117.344Z" fill="#FFD285"/>
</svg>
