<svg width="170" height="171" viewBox="0 0 170 171" fill="none" xmlns="http://www.w3.org/2000/svg">
<circle cx="85" cy="85.5" r="82.5" transform="rotate(180 85 85.5)" fill="#FFF5E4" stroke="#FFC052" stroke-width="5"/>
<path d="M121.798 75.2511C117.266 75.2511 113.005 73.4873 109.803 70.2807L107.869 68.347L105.897 70.3185C102.589 73.627 98.2453 75.2775 93.9019 75.2775C90.3668 75.2775 86.8316 74.1822 83.8554 71.9917C80.9699 74.1029 77.5065 75.2473 73.8618 75.2473C69.3296 75.2473 65.0693 73.4835 61.8665 70.277L59.9327 68.3432L57.9612 70.3147C54.6526 73.6233 50.3092 75.2738 45.9658 75.2738C41.6224 75.2738 37.279 73.6195 33.9705 70.3147C30.7677 67.1119 29.0001 62.8516 29.0001 58.3194C29.0001 56.7557 30.2692 55.4867 31.8328 55.4867C33.3964 55.4867 34.6654 56.7557 34.6654 58.3194C34.6654 61.3371 35.84 64.1735 37.974 66.3112C42.3816 70.7188 49.5463 70.7151 53.9539 66.3112L55.9255 64.3397L53.3043 61.7186C53.2892 61.7035 53.2779 61.6883 53.2665 61.677C53.2137 61.6204 53.1608 61.5637 53.1117 61.5033C49.6634 57.8359 49.7201 52.0498 53.3081 48.4617C56.9641 44.8057 62.9089 44.8057 66.5649 48.4617C70.1492 52.046 70.2096 57.8322 66.7613 61.5033C66.7122 61.5637 66.6593 61.6204 66.6064 61.677C66.5913 61.6921 66.58 61.7072 66.5687 61.7186L63.9475 64.3397L65.8813 66.2735C68.0152 68.4074 70.8517 69.582 73.8732 69.582C76.0335 69.582 78.0957 68.9777 79.8784 67.856C77.9748 65.0649 76.9513 61.7752 76.9513 58.3232C76.9513 56.7595 78.2203 55.4905 79.784 55.4905C81.3476 55.4905 82.6166 56.7595 82.6166 58.3232C82.6166 60.1663 83.0585 61.9414 83.8856 63.5315C84.7128 61.9603 85.1584 60.204 85.1736 58.3836C85.1887 56.8275 86.4539 55.5736 88.0062 55.5736H88.0326C89.5963 55.5887 90.854 56.8653 90.8426 58.4289C90.8124 61.847 89.7738 65.1102 87.874 67.8711C89.6643 69.0117 91.7453 69.6236 93.9208 69.6236C96.9385 69.6236 99.7749 68.4489 101.909 66.315L103.88 64.3435L101.263 61.7261C101.263 61.7261 101.263 61.7261 101.259 61.7261C97.6032 58.0701 97.6032 52.1253 101.259 48.4693C103.031 46.6979 105.384 45.7235 107.888 45.7235C110.392 45.7235 112.745 46.6979 114.516 48.4693C118.1 52.0535 118.161 57.8435 114.712 61.5108C114.652 61.5864 114.588 61.6581 114.516 61.7261L111.895 64.3473L113.829 66.281C115.963 68.415 118.799 69.5896 121.817 69.5896C124.834 69.5896 127.671 68.415 129.809 66.281C131.916 64.1735 133.091 61.3711 133.117 58.3874C133.132 56.8313 134.398 55.5774 135.95 55.5774H135.976C137.521 55.5887 138.775 56.8691 138.764 58.4327C138.726 62.9083 136.962 67.1157 133.797 70.2807C130.594 73.4835 126.334 75.2511 121.802 75.2511H121.798ZM62.5539 52.4728C61.1073 51.0262 58.7543 51.0262 57.3116 52.4728C55.865 53.9193 55.865 56.2723 57.3116 57.7189L59.9327 60.34L62.5539 57.7189C64.0004 56.2723 64.0004 53.9193 62.5539 52.4728ZM110.494 52.4728C109.795 51.7741 108.862 51.385 107.873 51.385C106.883 51.385 105.95 51.7703 105.251 52.4728C103.805 53.9193 103.805 56.2723 105.251 57.7151C105.251 57.7151 105.251 57.7151 105.251 57.7189L107.869 60.3362L110.49 57.7151C111.192 57.0164 111.578 56.0835 111.578 55.0939C111.578 54.1044 111.192 53.1715 110.49 52.4728H110.494Z" fill="#FFAD1E"/>
<path d="M34.0464 70.1582C35.6754 70.1582 36.9974 71.4803 36.9974 73.1092C36.9974 82.7019 39.4212 91.6769 43.8241 98.3895C47.9752 104.716 53.3657 108.199 59.008 108.199C64.6503 108.199 70.0408 104.716 74.1919 98.3895C78.5948 91.6809 81.0186 82.7019 81.0186 73.1092C81.0186 71.4803 82.3406 70.1582 83.9696 70.1582C85.5985 70.1582 86.9206 71.4803 86.9206 73.1092C86.9206 82.7019 89.3443 91.6769 93.7472 98.3895C97.8983 104.716 103.293 108.199 108.931 108.199C114.57 108.199 119.964 104.716 124.115 98.3895C128.518 91.6809 130.942 82.7019 130.942 73.1092C130.942 71.4803 132.264 70.1582 133.893 70.1582C135.522 70.1582 136.844 71.4803 136.844 73.1092C136.844 83.8391 134.074 93.9669 129.049 101.624C123.769 109.666 116.627 114.097 108.931 114.097C101.235 114.097 94.0896 109.666 88.8132 101.624C86.838 98.6138 85.2169 95.2142 83.9696 91.555C82.7223 95.2142 81.1012 98.6138 79.126 101.624C73.8457 109.666 66.7042 114.097 59.008 114.097C51.3118 114.097 44.1664 109.666 38.89 101.624C33.8615 93.963 31.0954 83.8351 31.0954 73.1092C31.0954 71.4803 32.4175 70.1582 34.0464 70.1582Z" fill="#FFAD1E"/>
<path d="M68.2696 105.909C60.6573 105.909 54.4864 99.7382 54.4864 92.1259C54.4864 84.5137 60.6573 78.3428 68.2696 78.3428C75.8818 78.3428 82.0527 84.5137 82.0527 92.1259C82.0527 99.7382 75.8818 105.909 68.2696 105.909Z" fill="#FFAD1E"/>
<path d="M118.213 105.909C110.601 105.909 104.43 99.7382 104.43 92.1259C104.43 84.5137 110.601 78.3428 118.213 78.3428C125.825 78.3428 131.996 84.5137 131.996 92.1259C131.996 99.7382 125.825 105.909 118.213 105.909Z" fill="#FFAD1E"/>
<path d="M70.8715 127.125H97.0685C98.6975 127.125 100.02 125.803 100.02 124.174C100.02 122.545 98.6975 121.223 97.0685 121.223H70.8715C69.2425 121.223 67.9204 122.545 67.9204 124.174C67.9204 125.803 69.2425 127.125 70.8715 127.125Z" fill="#FFD285"/>
</svg>
