<svg width="59" height="20" viewBox="0 0 59 20" fill="none" xmlns="http://www.w3.org/2000/svg">
<rect y="0.5" width="19" height="19" rx="9.5" fill="#454C53"/>
<path d="M9.88199 15.5C9.15217 15.5 8.74845 14.9793 8.74845 14.0355V7.16864L7.87888 7.85207C7.49068 8.14497 7.1646 8.29142 6.85404 8.29142C6.34161 8.29142 6 7.90089 6 7.41272C6 6.9571 6.26398 6.59911 6.96273 6.12722L8.36025 5.10207C9.07453 4.6139 9.50932 4.5 9.92857 4.5C10.6429 4.5 11 4.98817 11 5.89941V14.0355C11 14.9793 10.5963 15.5 9.88199 15.5Z" fill="white"/>
<circle cx="33" cy="10" r="6" fill="#E8EBED"/>
<circle cx="53" cy="10" r="6" fill="#E8EBED"/>
</svg>
