<svg width="59" height="20" viewBox="0 0 59 20" fill="none" xmlns="http://www.w3.org/2000/svg">
<circle cx="6" cy="10" r="6" fill="#E8EBED"/>
<circle cx="26" cy="10" r="6" fill="#E8EBED"/>
<rect x="40" y="0.5" width="19" height="19" rx="9.5" fill="#454C53"/>
<path d="M49.0732 15.5C47.3193 15.5 46 14.7805 46 13.8052C46 13.3256 46.2794 12.9419 46.8381 12.9419C47.5366 12.9419 47.7694 13.5974 48.9024 13.5974C49.9734 13.5974 50.5632 13.0058 50.5632 12.1105C50.5632 11.2471 50.0044 10.7035 48.7472 10.7035H48.2195C47.5831 10.7035 47.2262 10.3997 47.2262 9.87209C47.2262 9.36046 47.5831 9.05669 48.2195 9.05669H48.8093C49.8337 9.05669 50.3304 8.56105 50.3304 7.74564C50.3304 6.89826 49.7871 6.40262 48.8404 6.40262C47.7694 6.40262 47.5366 7.04215 46.9002 7.04215C46.388 7.04215 46.0931 6.67442 46.0931 6.19477C46.0931 5.23547 47.3503 4.5 49.1197 4.5C51.4634 4.5 52.7051 5.68314 52.7051 7.26599C52.7051 8.43314 52.0377 9.36047 50.8426 9.56831C52.255 9.87209 53 10.9273 53 12.2703C53 14.189 51.4634 15.5 49.0732 15.5Z" fill="white"/>
</svg>
