<svg width="76" height="19" viewBox="0 0 76 19" fill="none" xmlns="http://www.w3.org/2000/svg">
<circle cx="6.5" cy="9.5" r="6" fill="#E8EBED"/>
<circle cx="26.5" cy="9.5" r="6" fill="#E8EBED"/>
<rect x="40.5" width="19" height="19" rx="9.5" fill="#454C53"/>
<path d="M49.5732 15C47.8193 15 46.5 14.2805 46.5 13.3052C46.5 12.8256 46.7794 12.4419 47.3381 12.4419C48.0366 12.4419 48.2694 13.0974 49.4024 13.0974C50.4734 13.0974 51.0632 12.5058 51.0632 11.6105C51.0632 10.7471 50.5044 10.2035 49.2472 10.2035H48.7195C48.0831 10.2035 47.7262 9.89971 47.7262 9.37209C47.7262 8.86046 48.0831 8.55669 48.7195 8.55669H49.3093C50.3337 8.55669 50.8304 8.06105 50.8304 7.24564C50.8304 6.39826 50.2871 5.90262 49.3404 5.90262C48.2694 5.90262 48.0366 6.54215 47.4002 6.54215C46.888 6.54215 46.5931 6.17442 46.5931 5.69477C46.5931 4.73547 47.8503 4 49.6197 4C51.9634 4 53.2051 5.18314 53.2051 6.76599C53.2051 7.93314 52.5377 8.86047 51.3426 9.06831C52.755 9.37209 53.5 10.4273 53.5 11.7703C53.5 13.689 51.9634 15 49.5732 15Z" fill="white"/>
<circle cx="69.5" cy="9.5" r="6" fill="#E8EBED"/>
</svg>
