<svg width="80" height="19" viewBox="0 0 80 19" fill="none" xmlns="http://www.w3.org/2000/svg">
<rect x="0.5" width="19" height="19" rx="9.5" fill="#454C53"/>
<path d="M10.382 15C9.65217 15 9.24845 14.4793 9.24845 13.5355V6.66864L8.37888 7.35207C7.99068 7.64497 7.6646 7.79142 7.35404 7.79142C6.84161 7.79142 6.5 7.40089 6.5 6.91272C6.5 6.4571 6.76398 6.09911 7.46273 5.62722L8.86025 4.60207C9.57453 4.1139 10.0093 4 10.4286 4C11.1429 4 11.5 4.48817 11.5 5.39941V13.5355C11.5 14.4793 11.0963 15 10.382 15Z" fill="white"/>
<circle cx="33.5" cy="9.5" r="6" fill="#E8EBED"/>
<circle cx="53.5" cy="9.5" r="6" fill="#E8EBED"/>
<circle cx="73.5" cy="9.5" r="6" fill="#E8EBED"/>
</svg>
