<svg width="80" height="19" viewBox="0 0 80 19" fill="none" xmlns="http://www.w3.org/2000/svg">
<circle cx="6.5" cy="9.5" r="6" fill="#E8EBED"/>
<circle cx="26.5" cy="9.5" r="6" fill="#E8EBED"/>
<circle cx="46.5" cy="9.5" r="6" fill="#E8EBED"/>
<rect x="60.5" width="19" height="19" rx="9.5" fill="#454C53"/>
<path d="M71.324 14.9078C70.62 14.9078 70.204 14.3958 70.204 13.4678V12.2998H66.94C66.012 12.2998 65.5 11.8678 65.5 11.1478V11.0838C65.5 10.5878 65.644 10.2518 66.172 9.3878L68.476 5.6118C69.164 4.4758 69.772 4.0918 70.716 4.0918H70.844C71.9 4.0918 72.428 4.6678 72.428 5.6758V10.6358H72.748C73.484 10.6358 73.884 10.9238 73.884 11.4518C73.884 11.9958 73.484 12.2998 72.748 12.2998H72.428V13.4678C72.428 14.3958 72.044 14.9078 71.324 14.9078ZM67.548 10.6358H70.204V5.9958L67.548 10.6358Z" fill="white"/>
</svg>
