<svg width="80" height="19" viewBox="0 0 80 19" fill="none" xmlns="http://www.w3.org/2000/svg">
<circle cx="6.5" cy="9.5" r="6" fill="#E8EBED"/>
<rect x="20.5" width="19" height="19" rx="9.5" fill="#454C53"/>
<path d="M27.9483 15C27.0149 15 26.5 14.6095 26.5 13.8935C26.5 13.3891 26.7897 13.0148 27.2885 12.5592L29.2034 10.574C30.4264 9.36982 30.8931 8.45858 30.8931 7.59615C30.8931 6.6361 30.3621 6.09911 29.5092 6.09911C28.4471 6.09911 28.1575 6.92899 27.3529 6.92899C26.7575 6.92899 26.5 6.52219 26.5 6.01775C26.5 4.94379 27.9322 4 29.7667 4C32.0517 4 33.2908 5.2855 33.2908 7.35207C33.2908 8.88166 32.631 9.97189 31.1023 11.3713L29.2195 13.0962H32.2448C33.0494 13.0962 33.5 13.4379 33.5 14.0399C33.5 14.6583 33.0494 15 32.2448 15H27.9483Z" fill="white"/>
<circle cx="53.5" cy="9.5" r="6" fill="#E8EBED"/>
<circle cx="73.5" cy="9.5" r="6" fill="#E8EBED"/>
</svg>
