<svg width="59" height="20" viewBox="0 0 59 20" fill="none" xmlns="http://www.w3.org/2000/svg">
<circle cx="6" cy="10" r="6" fill="#E8EBED"/>
<rect x="20" y="0.5" width="19" height="19" rx="9.5" fill="#454C53"/>
<path d="M27.4483 15.5C26.5149 15.5 26 15.1095 26 14.3935C26 13.8891 26.2897 13.5148 26.7885 13.0592L28.7034 11.074C29.9264 9.86982 30.3931 8.95858 30.3931 8.09615C30.3931 7.1361 29.8621 6.59911 29.0092 6.59911C27.9471 6.59911 27.6575 7.42899 26.8529 7.42899C26.2575 7.42899 26 7.02219 26 6.51775C26 5.44379 27.4322 4.5 29.2667 4.5C31.5517 4.5 32.7908 5.7855 32.7908 7.85207C32.7908 9.38166 32.131 10.4719 30.6023 11.8713L28.7195 13.5962H31.7448C32.5494 13.5962 33 13.9379 33 14.5399C33 15.1583 32.5494 15.5 31.7448 15.5H27.4483Z" fill="white"/>
<circle cx="53" cy="10" r="6" fill="#E8EBED"/>
</svg>
