<svg width="77" height="57" viewBox="0 0 77 57" fill="none" xmlns="http://www.w3.org/2000/svg">
<g opacity="0.2">
<path d="M50.4365 47.9923C51.2956 50.1464 51.3718 52.6158 50.4615 54.8891C48.6398 59.437 43.5598 61.484 39.1139 59.4582L35.9121 58" stroke="#FFC052" stroke-width="2.73927" stroke-linecap="round" stroke-linejoin="round"/>
<path d="M83.4365 34.9923C84.2956 37.1464 84.3718 39.6158 83.4615 41.8891C81.6398 46.437 76.5598 48.484 72.1139 46.4582L68.9121 45" stroke="#FFC052" stroke-width="2.73927" stroke-linecap="round" stroke-linejoin="round"/>
<path d="M64.9121 44L68.5932 45.7658" stroke="#FFC052" stroke-width="2.73927" stroke-linecap="round" stroke-linejoin="round"/>
<path d="M68.6805 45.64L70.3425 41.823" stroke="#FFC052" stroke-width="2.73927" stroke-linecap="round" stroke-linejoin="round"/>
<path d="M68.7588 45.1934L67.4176 48.5743C65.5372 53.3131 60.2281 55.4175 55.5584 53.2715C53.2504 52.2112 51.531 50.3114 50.6099 48.0878" stroke="#FFC052" stroke-width="2.73927" stroke-linecap="round" stroke-linejoin="round"/>
<path d="M64.9649 43.1867C62.9423 42.2665 61.9749 39.8391 62.8088 37.7643C63.6416 35.6909 65.9569 34.753 67.9808 35.6744C70.0034 36.5946 70.9709 39.0219 70.137 41.0967" stroke="#FFC052" stroke-width="2.73927" stroke-linecap="round" stroke-linejoin="round"/>
</g>
<circle cx="38.9121" cy="43" r="8" fill="#FFAD1E"/>
<path d="M41.9025 42.6458C42.358 42.8996 42.3597 43.2189 41.9025 43.5059L38.3702 45.8882C37.9264 46.125 37.6249 45.9852 37.5933 45.4727L37.5783 40.4866C37.5683 40.0145 37.9572 39.8811 38.3277 40.1075L41.9025 42.6458Z" fill="#454C53" stroke="#454C53" stroke-width="0.583416"/>
<g opacity="0.2">
<path d="M5.49112 14.6289C4.69406 16.7802 3.0993 18.627 0.896494 19.6586C-3.51089 21.7221 -8.6872 19.7463 -10.6638 15.2428L-12.0879 12" stroke="#FFC052" stroke-width="2.73927" stroke-linecap="round" stroke-linejoin="round"/>
<path d="M39.4911 26.6289C38.6941 28.7802 37.0993 30.627 34.8965 31.6586C30.4891 33.7221 25.3128 31.7463 23.3362 27.2428L21.9121 24" stroke="#FFC052" stroke-width="2.73927" stroke-linecap="round" stroke-linejoin="round"/>
<path d="M19.9121 20L21.4895 23.7931" stroke="#FFC052" stroke-width="2.73927" stroke-linecap="round" stroke-linejoin="round"/>
<path d="M22.0598 23.989L25.8586 22.348" stroke="#FFC052" stroke-width="2.73927" stroke-linecap="round" stroke-linejoin="round"/>
<path d="M21.5823 24.0828L18.3156 25.6257C13.7365 27.7879 8.35016 25.6977 6.28615 20.9542C5.26582 18.6099 5.2481 16.0568 6.04523 13.8128" stroke="#FFC052" stroke-width="2.73927" stroke-linecap="round" stroke-linejoin="round"/>
<path d="M19.8177 20.0793C18.9175 18.0315 19.8162 15.6077 21.829 14.6682C23.8401 13.7291 26.2025 14.6259 27.103 16.6755C28.0032 18.7233 27.1045 21.1471 25.0917 22.0865" stroke="#FFC052" stroke-width="2.73927" stroke-linecap="round" stroke-linejoin="round"/>
</g>
</svg>
