<svg width="77" height="76" viewBox="0 0 77 76" fill="none" xmlns="http://www.w3.org/2000/svg">
<g clip-path="url(#clip0_1131_11312)">
<rect x="0.912109" width="76" height="76" rx="6" fill="url(#paint0_linear_1131_11312)"/>
<rect x="0.912109" width="76" height="76" rx="6" fill="black" fill-opacity="0.4"/>
<g opacity="0.2">
<path d="M50.4365 66.9923C51.2956 69.1464 51.3718 71.6158 50.4615 73.8891C48.6398 78.437 43.5598 80.484 39.1139 78.4582L35.9121 77" stroke="#FFC052" stroke-width="2.73927" stroke-linecap="round" stroke-linejoin="round"/>
<path d="M83.4365 53.9923C84.2956 56.1464 84.3718 58.6158 83.4615 60.8891C81.6398 65.437 76.5598 67.484 72.1139 65.4582L68.9121 64" stroke="#FFC052" stroke-width="2.73927" stroke-linecap="round" stroke-linejoin="round"/>
<path d="M64.9121 63L68.5932 64.7658" stroke="#FFC052" stroke-width="2.73927" stroke-linecap="round" stroke-linejoin="round"/>
<path d="M68.6805 64.64L70.3425 60.823" stroke="#FFC052" stroke-width="2.73927" stroke-linecap="round" stroke-linejoin="round"/>
<path d="M68.7588 64.1934L67.4176 67.5743C65.5372 72.3131 60.2281 74.4175 55.5584 72.2715C53.2504 71.2112 51.531 69.3114 50.6099 67.0878" stroke="#FFC052" stroke-width="2.73927" stroke-linecap="round" stroke-linejoin="round"/>
<path d="M64.9649 62.1867C62.9423 61.2665 61.9749 58.8391 62.8088 56.7643C63.6416 54.6909 65.9569 53.753 67.9808 54.6744C70.0034 55.5946 70.9709 58.0219 70.137 60.0967" stroke="#FFC052" stroke-width="2.73927" stroke-linecap="round" stroke-linejoin="round"/>
</g>
<circle cx="38.9121" cy="62" r="8" fill="#FFAD1E"/>
<path d="M41.9025 61.6458C42.358 61.8996 42.3597 62.2189 41.9025 62.5059L38.3702 64.8882C37.9264 65.125 37.6249 64.9852 37.5933 64.4727L37.5783 59.4866C37.5683 59.0145 37.9572 58.8811 38.3277 59.1075L41.9025 61.6458Z" fill="#454C53" stroke="#454C53" stroke-width="0.583416"/>
<g opacity="0.2">
<path d="M5.49112 33.6289C4.69406 35.7802 3.0993 37.627 0.896494 38.6586C-3.51089 40.7221 -8.6872 38.7463 -10.6638 34.2428L-12.0879 31" stroke="#FFC052" stroke-width="2.73927" stroke-linecap="round" stroke-linejoin="round"/>
<path d="M39.4911 45.6289C38.6941 47.7802 37.0993 49.627 34.8965 50.6586C30.4891 52.7221 25.3128 50.7463 23.3362 46.2428L21.9121 43" stroke="#FFC052" stroke-width="2.73927" stroke-linecap="round" stroke-linejoin="round"/>
<path d="M19.9121 39L21.4895 42.7931" stroke="#FFC052" stroke-width="2.73927" stroke-linecap="round" stroke-linejoin="round"/>
<path d="M22.0598 42.989L25.8586 41.348" stroke="#FFC052" stroke-width="2.73927" stroke-linecap="round" stroke-linejoin="round"/>
<path d="M21.5823 43.0828L18.3156 44.6257C13.7365 46.7879 8.35016 44.6977 6.28615 39.9542C5.26582 37.6099 5.2481 35.0568 6.04523 32.8128" stroke="#FFC052" stroke-width="2.73927" stroke-linecap="round" stroke-linejoin="round"/>
<path d="M19.8177 39.0793C18.9175 37.0315 19.8162 34.6077 21.829 33.6682C23.8401 32.7291 26.2025 33.6259 27.103 35.6755C28.0032 37.7233 27.1045 40.1471 25.0917 41.0865" stroke="#FFC052" stroke-width="2.73927" stroke-linecap="round" stroke-linejoin="round"/>
</g>
<path d="M15.6758 31.1152C14.8859 31.1152 14.4416 30.5886 14.4416 29.6342V20.9623C14.4416 20.0078 14.9517 19.4813 15.9061 19.4813H18.5554C21.1554 19.4813 22.4224 20.7154 22.4224 22.6901C22.4224 24.352 21.5174 25.4546 19.839 25.7014L21.9617 28.7621C22.3402 29.3545 22.4389 29.7 22.4389 29.9962C22.4389 30.6873 21.9452 31.1152 21.3035 31.1152C20.6946 31.1152 20.2668 30.7696 19.8554 29.9469L16.9264 25.1748V29.6342C16.9264 30.5886 16.4985 31.1152 15.6758 31.1152ZM16.9264 24.4672H17.8479C19.2959 24.4672 19.8719 23.9571 19.8719 22.8711C19.8719 21.8344 19.3782 21.3243 17.9301 21.3243H16.9264V24.4672ZM27.4782 31.1975C24.9112 31.1975 23.3644 29.157 23.3644 26.1128C23.3644 23.3647 24.615 21.2914 27.0339 21.2914C29.2718 21.2914 30.3908 22.8875 30.3908 25.1419C30.3908 26.2609 30.0288 26.6064 29.0579 26.6064H25.701C25.8327 28.3342 26.4909 29.2557 27.6098 29.2557C28.6465 29.2557 28.9263 28.5317 29.6009 28.5317C30.0617 28.5317 30.3579 28.8444 30.3579 29.3216C30.3579 30.3253 29.1237 31.1975 27.4782 31.1975ZM25.6681 25.2571H28.3668C28.3668 23.8419 27.9719 23.1344 27.0833 23.1344C26.1124 23.1344 25.7175 23.9407 25.6681 25.2571ZM34.2605 31.1152C33.52 31.1152 32.9934 30.7038 32.796 29.6836L31.496 23.1837C31.4302 22.8711 31.4137 22.6242 31.4137 22.4926C31.4137 21.785 31.858 21.3901 32.4669 21.3901C33.0428 21.3901 33.4542 21.7521 33.5694 22.6078L34.4744 28.1203L35.544 22.8711C35.7579 21.7357 36.2351 21.3901 36.9098 21.3901C37.568 21.3901 38.0617 21.7192 38.2756 22.8711L39.3287 28.1861L40.2832 22.5913C40.3983 21.7357 40.7933 21.3901 41.3692 21.3901C41.978 21.3901 42.3894 21.7686 42.3894 22.4926C42.3894 22.6242 42.3894 22.8546 42.3236 23.1673L40.9743 29.6507C40.7768 30.6544 40.2667 31.1152 39.5427 31.1152H39.5098C38.7363 31.1152 38.1769 30.6873 37.9959 29.6671L36.8604 24.2369L35.725 29.6836C35.544 30.6873 35.0339 31.1152 34.277 31.1152H34.2605ZM45.0954 31.1152C44.3549 31.1152 43.9271 30.6215 43.9271 29.7165V23.1179C43.9271 22.2129 44.3549 21.7192 45.0954 21.7192C45.8524 21.7192 46.2638 22.2129 46.2638 23.1179V29.7165C46.2638 30.6215 45.8524 31.1152 45.0954 31.1152ZM45.1283 20.7483C44.3714 20.7483 43.7625 20.2218 43.7625 19.4319C43.7625 18.6585 44.3714 18.1484 45.1283 18.1484C45.8853 18.1484 46.4941 18.6585 46.4941 19.4319C46.4941 20.2218 45.8853 20.7483 45.1283 20.7483ZM49.4985 31.1152C48.7416 31.1152 48.3302 30.6215 48.3302 29.7165V22.7888C48.3302 21.8838 48.7416 21.3901 49.4985 21.3901C50.239 21.3901 50.6504 21.8838 50.6504 22.7888V23.2331C51.0782 21.8344 51.8845 21.2914 52.9541 21.2914C54.4351 21.2914 55.3402 22.4761 55.3402 24.566V29.7165C55.3402 30.6215 54.9288 31.1152 54.1718 31.1152C53.4313 31.1152 53.0035 30.6215 53.0035 29.7165V24.928C53.0035 23.8255 52.6579 23.3318 51.8845 23.3318C51.1934 23.3318 50.6504 23.8255 50.6504 25.1913V29.7165C50.6504 30.6215 50.2555 31.1152 49.4985 31.1152ZM59.7822 31.1975C57.9227 31.1975 56.8861 29.2064 56.8861 26.2938C56.8861 23.3318 58.005 21.2914 59.9303 21.2914C61.0328 21.2914 61.7075 21.9825 62.1518 23.1508V20.4357C62.1518 19.5306 62.5631 19.037 63.3201 19.037C64.077 19.037 64.4884 19.5306 64.4884 20.4357V29.7165C64.4884 30.6215 64.077 31.1152 63.3201 31.1152C62.5631 31.1152 62.1518 30.6215 62.1518 29.7165V29.0912C61.7239 30.3582 61.0163 31.1975 59.7822 31.1975ZM60.6708 29.1735C61.6746 29.1735 62.1847 28.2026 62.1847 26.2115C62.1847 24.2862 61.7075 23.3647 60.7037 23.3647C59.7164 23.3647 59.2392 24.3027 59.2392 26.2609C59.2392 28.219 59.7164 29.1735 60.6708 29.1735Z" fill="white"/>
<path d="M12.9532 43.0803C11.748 43.0803 10.8882 42.4295 10.8561 41.4814H11.756C11.7881 41.9956 12.2943 42.317 12.9452 42.317C13.6442 42.317 14.1584 41.9314 14.1584 41.3689C14.1584 40.7985 13.6763 40.3806 12.8487 40.3806H12.3506V39.6575H12.8487C13.5076 39.6575 13.9736 39.2879 13.9736 38.7335C13.9736 38.2032 13.5799 37.8416 12.9612 37.8416C12.3747 37.8416 11.8605 38.163 11.8364 38.6933H10.9847C11.0088 37.7452 11.8846 37.1024 12.9693 37.1024C14.1102 37.1024 14.8333 37.8256 14.8253 38.6853C14.8333 39.3442 14.4236 39.8262 13.7968 39.9789V40.0191C14.5923 40.1316 15.0503 40.6619 15.0503 41.4011C15.0503 42.3733 14.1584 43.0803 12.9532 43.0803ZM17.6086 36.7248C18.6933 36.7328 19.4887 37.3997 19.4968 38.3398C19.4887 39.2879 18.6933 39.9468 17.6086 39.9468C16.5158 39.9468 15.7124 39.2879 15.7124 38.3398C15.7124 37.3997 16.5158 36.7328 17.6086 36.7248ZM17.6086 37.3676C16.9417 37.3596 16.4516 37.7533 16.4596 38.3398C16.4516 38.9344 16.9417 39.3281 17.6086 39.3281C18.2674 39.3281 18.7576 38.9344 18.7576 38.3398C18.7576 37.7533 18.2674 37.3596 17.6086 37.3676ZM21.5376 36.4838V40.1476H20.7743V36.4838H21.5376ZM21.5376 40.4771V42.2929H17.5684V42.9839H21.7786V43.5946H16.8292V41.7225H20.7823V41.0877H16.8051V40.4771H21.5376ZM30.2618 36.4918V43.683H29.5065V36.4918H30.2618ZM24.2518 40.3806C25.6659 40.3726 27.4496 40.3646 29.0245 40.1958L29.0646 40.7583C28.3977 40.8547 27.7148 40.915 27.0479 40.9511V43.458H26.2846V40.9833C25.5976 41.0114 24.9387 41.0154 24.3401 41.0154L24.2518 40.3806ZM28.5102 38.8942V39.5209H24.9187V36.8855H28.4138V37.4961H25.682V38.8942H28.5102ZM37.3759 36.4838V43.683H36.6447V36.4838H37.3759ZM35.9135 36.6203V43.3294H35.1823V39.8584H34.3708C34.3065 41.2645 33.7039 42.1403 32.8121 42.1322C31.872 42.1403 31.2613 41.152 31.2613 39.5932C31.2613 38.0345 31.872 37.0542 32.8121 37.0623C33.6879 37.0542 34.2824 37.8858 34.3708 39.2397H35.1823V36.6203H35.9135ZM32.8121 37.7774C32.2898 37.7774 31.9684 38.4443 31.9684 39.5932C31.9684 40.7422 32.2898 41.4091 32.8121 41.4091C33.3424 41.4091 33.6718 40.7422 33.6718 39.5932C33.6718 38.4443 33.3424 37.7774 32.8121 37.7774ZM42.388 38.3157C42.3799 39.5932 43.1191 40.8949 44.1958 41.4171L43.7218 42.0278C42.9384 41.622 42.3317 40.8145 42.0184 39.8503C41.693 40.8788 41.0622 41.7385 40.2427 42.1644L39.7686 41.5457C40.8774 41.0154 41.6247 39.6334 41.6247 38.3157V37.0864H42.388V38.3157ZM45.4975 36.4838V39.3522H46.6545V40.003H45.4975V43.683H44.7341V36.4838H45.4975ZM52.4026 36.4838V39.2959H53.5596V39.9387H52.4026V43.699H51.6473V36.4838H52.4026ZM50.3698 37.1346V39.778H47.8468V41.3368C49.0842 41.3328 50.0002 41.2886 51.0527 41.0957L51.125 41.7144C50.0002 41.9233 49.028 41.9715 47.6781 41.9796H47.0916V39.1594H49.6145V37.7533H47.0755V37.1346H50.3698ZM59.7095 36.4838V43.683H58.9461V40.6538H57.5642V40.0191H58.9461V39.1272H57.5642V38.4925H58.9461V36.4838H59.7095ZM56.2706 38.5085C56.2706 39.6334 57.0419 41.0074 58.1186 41.5457L57.6606 42.1322C56.8691 41.7265 56.2304 40.8627 55.909 39.8905C55.5876 40.9551 54.9408 41.8671 54.1413 42.309L53.6351 41.7305C54.7198 41.1922 55.4912 39.8021 55.4992 38.5085V37.8336H53.9083V37.2069H57.8534V37.8336H56.2706V38.5085ZM67.1931 42.1483V42.7831H60.6045V42.1483H62.1794V40.2682C61.5888 39.9427 61.2313 39.4245 61.2313 38.7817C61.2313 37.6488 62.3401 36.9016 63.8827 36.9016C65.4335 36.9016 66.5423 37.6488 66.5423 38.7817C66.5423 39.4165 66.1968 39.9267 65.6183 40.2521V42.1483H67.1931ZM63.8827 37.5122C62.7498 37.5122 61.9705 38.0023 61.9705 38.7817C61.9705 39.5531 62.7498 40.0593 63.8827 40.0593C65.0076 40.0593 65.8031 39.5531 65.8031 38.7817C65.8031 38.0023 65.0076 37.5122 63.8827 37.5122ZM62.9346 42.1483H64.8469V40.5413C64.5537 40.6177 64.2282 40.6538 63.8827 40.6538C63.5453 40.6538 63.2239 40.6177 62.9346 40.5494V42.1483Z" fill="white"/>
</g>
<defs>
<linearGradient id="paint0_linear_1131_11312" x1="38.9121" y1="0" x2="38.9121" y2="76" gradientUnits="userSpaceOnUse">
<stop stop-color="#454C53"/>
<stop offset="1" stop-color="#FFAD1E"/>
</linearGradient>
<clipPath id="clip0_1131_11312">
<rect x="0.912109" width="76" height="76" rx="6" fill="white"/>
</clipPath>
</defs>
</svg>
