<svg width="64" height="65" viewBox="0 0 64 65" fill="none" xmlns="http://www.w3.org/2000/svg">
<circle cx="32" cy="32.5" r="31.25" fill="#303539" stroke="#6C7885" stroke-width="1.5"/>
<path d="M19.5732 25.3623C19.6377 23.5292 20.3693 21.7168 21.768 20.3181C23.0379 19.0482 24.9417 18.6553 26.6086 19.3204L48.2487 32.5017L26.6086 45.6829C24.9396 46.3459 23.0379 45.9531 21.768 44.6853C20.3693 43.2865 19.6377 41.472 19.5732 39.641" stroke="#F7F8F9" stroke-width="2.21971" stroke-linecap="round" stroke-linejoin="round"/>
<path d="M26.3201 30.04L23.8613 32.4988" stroke="#F7F8F9" stroke-width="2.21971" stroke-linecap="round" stroke-linejoin="round"/>
<path d="M23.8613 32.501L26.3201 34.9597" stroke="#F7F8F9" stroke-width="2.21971" stroke-linecap="round" stroke-linejoin="round"/>
<path d="M23.8609 32.4995L21.768 30.4066C20.3693 29.0078 19.6377 27.1934 19.5732 25.3623" stroke="#F7F8F9" stroke-width="2.21971" stroke-linecap="round" stroke-linejoin="round"/>
<path d="M23.8609 32.501L21.768 34.5939C20.3693 35.9927 19.6377 37.8071 19.5732 39.6382" stroke="#F7F8F9" stroke-width="2.21971" stroke-linecap="round" stroke-linejoin="round"/>
<path d="M26.3198 30.0404C27.677 28.6832 29.878 28.6832 31.2373 30.0404C32.5945 31.3976 32.5945 33.5986 31.2373 34.9579C29.8801 36.3151 27.6791 36.3151 26.3198 34.9579" stroke="#F7F8F9" stroke-width="2.21971" stroke-linecap="round" stroke-linejoin="round"/>
</svg>
