<svg width="64" height="64" viewBox="0 0 64 64" fill="none" xmlns="http://www.w3.org/2000/svg">
<circle cx="32" cy="32" r="31.25" fill="#303539" stroke="#6C7885" stroke-width="1.5"/>
<path d="M26.0825 25.1022C26.1448 23.3309 26.8517 21.5796 28.2033 20.228C29.4304 19.0009 31.27 18.6213 32.8807 19.264L53.7912 32.0009L32.8807 44.7377C31.268 45.3784 29.4304 44.9988 28.2033 43.7737C26.8517 42.4221 26.1448 40.6688 26.0825 38.8995" stroke="#F7F8F9" stroke-width="2.68757" stroke-linecap="round" stroke-linejoin="round"/>
<path d="M32.6014 29.6229L30.2256 31.9988" stroke="#F7F8F9" stroke-width="2.68757" stroke-linecap="round" stroke-linejoin="round"/>
<path d="M30.2256 31.9988L32.6014 34.3746" stroke="#F7F8F9" stroke-width="2.68757" stroke-linecap="round" stroke-linejoin="round"/>
<path d="M30.2257 31.9988L28.2033 29.9764C26.8517 28.6248 26.1448 26.8715 26.0825 25.1022" stroke="#F7F8F9" stroke-width="2.68757" stroke-linecap="round" stroke-linejoin="round"/>
<path d="M30.2257 31.9988L28.2033 34.0212C26.8517 35.3728 26.1448 37.1261 26.0825 38.8954" stroke="#F7F8F9" stroke-width="2.68757" stroke-linecap="round" stroke-linejoin="round"/>
<path d="M32.6011 29.6229C33.9125 28.3114 36.0393 28.3114 37.3527 29.6229C38.6642 30.9343 38.6642 33.0611 37.3527 34.3746C36.0413 35.686 33.9145 35.686 32.6011 34.3746" stroke="#F7F8F9" stroke-width="2.68757" stroke-linecap="round" stroke-linejoin="round"/>
<path d="M12.1201 26.4478H20.5169" stroke="#F7F8F9" stroke-width="2.68757" stroke-linecap="round" stroke-linejoin="round"/>
<path d="M12.1265 37.5541H20.5232" stroke="#F7F8F9" stroke-width="2.68757" stroke-linecap="round" stroke-linejoin="round"/>
<path d="M16.7676 31.9987H20.5171" stroke="#F7F8F9" stroke-width="2.68757" stroke-linecap="round" stroke-linejoin="round"/>
</svg>
