<svg width="390" height="567" viewBox="0 0 390 567" fill="none" xmlns="http://www.w3.org/2000/svg">
<path d="M-52.377 240.734V182.941C-52.377 102.708 12.6549 37.6765 92.8873 37.6765C173.12 37.6765 238.152 102.708 238.152 182.941V240.734" stroke="#FFF5E4" stroke-width="49.3043" stroke-miterlimit="10"/>
<path d="M238.177 307.961V240.735" stroke="#FFF5E4" stroke-width="49.3043" stroke-miterlimit="10"/>
<path d="M238.174 240.735H170.925" stroke="#FFF5E4" stroke-width="49.3043" stroke-miterlimit="10"/>
<path d="M238.174 240.736H295.402C375.635 240.736 440.667 305.768 440.667 386.001C440.667 466.233 375.635 531.265 295.402 531.265H-18.4473C-37.1765 531.265 -52.377 516.064 -52.377 497.335V240.714" stroke="#FFF5E4" stroke-width="49.3043" stroke-miterlimit="10"/>
<path d="M238.174 307.961C238.174 345.103 208.067 375.187 170.948 375.187C133.829 375.187 103.722 345.08 103.722 307.961C103.722 270.842 133.829 240.735 170.948 240.735" stroke="#FFF5E4" stroke-width="49.3043" stroke-miterlimit="10"/>
</svg>
