<svg width="46" height="47" viewBox="0 0 46 47" fill="none" xmlns="http://www.w3.org/2000/svg">
<path d="M2.97119 20.0305V15.3417C2.97119 8.83259 8.24715 3.55664 14.7563 3.55664C21.2655 3.55664 26.5414 8.83259 26.5414 15.3417V20.0305" stroke="#EB9500" stroke-width="4" stroke-miterlimit="10"/>
<path d="M26.5433 25.4852V20.0312" stroke="#EB9500" stroke-width="4" stroke-miterlimit="10"/>
<path d="M26.5434 20.0312H21.0876" stroke="#EB9500" stroke-width="4" stroke-miterlimit="10"/>
<path d="M26.5432 20.0311H31.1861C37.6952 20.0311 42.9712 25.3071 42.9712 31.8162C42.9712 38.3254 37.6952 43.6013 31.1861 43.6013H5.72386C4.20439 43.6013 2.97119 42.3681 2.97119 40.8487V20.0293" stroke="#EB9500" stroke-width="4" stroke-miterlimit="10"/>
<path d="M26.5434 25.4852C26.5434 28.4985 24.1009 30.9392 21.0895 30.9392C18.078 30.9392 15.6355 28.4966 15.6355 25.4852C15.6355 22.4738 18.078 20.0312 21.0895 20.0312" stroke="#EB9500" stroke-width="4" stroke-miterlimit="10"/>
</svg>
