<svg width="120" height="25" viewBox="0 0 120 25" fill="none" xmlns="http://www.w3.org/2000/svg">
<g clip-path="url(#clip0_1218_31454)">
<path d="M11.0527 14.447L7.87149 20.3318" stroke="#FFAD1E" stroke-width="1.72545" stroke-linecap="round" stroke-linejoin="round"/>
<path d="M13.7546 9.26828C16.3611 10.6773 19.1384 10.5908 19.9578 9.07499C20.7772 7.55919 19.3285 5.18813 16.722 3.77909C14.1154 2.37004 11.3382 2.45658 10.5188 3.97238C9.69934 5.48818 11.1481 7.85923 13.7546 9.26828Z" fill="#FFE5B8"/>
<path d="M9.46067 17.2111C12.0672 18.6202 14.8445 18.5337 15.6639 17.0179C16.4833 15.5021 15.0346 13.131 12.428 11.722C9.8215 10.3129 7.04423 10.3995 6.22481 11.9152C5.4054 13.431 6.85414 15.8021 9.46067 17.2111Z" fill="#FFE5B8"/>
<path d="M11.2001 13.9944C13.8066 15.4034 16.7665 14.9791 17.8112 13.0465C18.8559 11.114 17.5897 8.40517 14.9832 6.99613C12.3767 5.58708 9.41679 6.01143 8.37211 7.94394C7.32743 9.87645 8.59355 12.5853 11.2001 13.9944Z" fill="#FFE5B8"/>
<path d="M14.3374 8.37074L14.2617 8.32983" stroke="#FFAD1E" stroke-width="1.84322" stroke-linecap="round" stroke-linejoin="round"/>
<path d="M14.3384 8.36976C14.3135 8.35632 14.2876 8.3423 14.2621 8.32994" stroke="#FFAD1E" stroke-width="1.84322" stroke-linecap="round" stroke-linejoin="round"/>
<path d="M5.73584 12.1145C6.05248 13.9577 7.48076 15.8557 9.65568 17.0314" stroke="#FFAD1E" stroke-width="1.72545" stroke-linecap="round" stroke-linejoin="round"/>
<path d="M9.65668 17.0294C12.1684 18.4193 14.7222 18.5273 15.3117 17.4393C15.9433 16.2736 14.704 14.1397 11.9964 12.7012" stroke="#FFAD1E" stroke-width="1.72545" stroke-linecap="round" stroke-linejoin="round"/>
<path d="M11.998 12.6991C14.5097 14.089 17.0635 14.197 17.653 13.109C18.2846 11.9432 17.0453 9.80937 14.3378 8.37085" stroke="#FFAD1E" stroke-width="1.72545" stroke-linecap="round" stroke-linejoin="round"/>
<path d="M10.4184 3.45279C12.134 2.70816 14.5043 2.86361 16.6792 4.03934" stroke="#FFAD1E" stroke-width="1.72545" stroke-linecap="round" stroke-linejoin="round"/>
<path d="M14.3393 8.36753C16.851 9.75745 19.4048 9.86543 19.9943 8.77748C20.6259 7.61169 19.3866 5.47782 16.6791 4.03931" stroke="#FFAD1E" stroke-width="1.72545" stroke-linecap="round" stroke-linejoin="round"/>
</g>
<g clip-path="url(#clip1_1218_31454)">
<path d="M33.583 17.5481L31.5605 20.924" stroke="#E8EBED" stroke-width="1.77964" stroke-linecap="round" stroke-linejoin="round"/>
<path d="M38.4106 8.61543L38.3325 8.57324" stroke="#E8EBED" stroke-width="1.9011" stroke-linecap="round" stroke-linejoin="round"/>
<path d="M38.4115 8.61446C38.3859 8.60059 38.3591 8.58613 38.3329 8.57338" stroke="#E8EBED" stroke-width="1.9011" stroke-linecap="round" stroke-linejoin="round"/>
<path d="M29.5391 12.4768C29.8656 14.3779 31.3388 16.3355 33.582 17.5482" stroke="#E8EBED" stroke-width="1.77964" stroke-linecap="round" stroke-linejoin="round"/>
<path d="M33.5832 17.5459C36.1738 18.9795 38.8078 19.0909 39.4158 17.9688C40.0672 16.7664 38.789 14.5655 35.9964 13.0818" stroke="#E8EBED" stroke-width="1.77964" stroke-linecap="round" stroke-linejoin="round"/>
<path d="M35.9973 13.0796C38.5879 14.5132 41.2218 14.6246 41.8299 13.5025C42.4813 12.3001 41.2031 10.0992 38.4105 8.61549" stroke="#E8EBED" stroke-width="1.77964" stroke-linecap="round" stroke-linejoin="round"/>
<path d="M34.3685 3.543C36.1379 2.77499 38.5826 2.93532 40.8259 4.14797" stroke="#E8EBED" stroke-width="1.77964" stroke-linecap="round" stroke-linejoin="round"/>
<path d="M38.4123 8.61211C41.0029 10.0457 43.6369 10.1571 44.2449 9.03493C44.8963 7.83253 43.6181 5.63165 40.8255 4.14796" stroke="#E8EBED" stroke-width="1.77964" stroke-linecap="round" stroke-linejoin="round"/>
</g>
<g clip-path="url(#clip2_1218_31454)">
<path d="M57.583 17.5481L55.5605 20.924" stroke="#E8EBED" stroke-width="1.77964" stroke-linecap="round" stroke-linejoin="round"/>
<path d="M62.4106 8.61543L62.3325 8.57324" stroke="#E8EBED" stroke-width="1.9011" stroke-linecap="round" stroke-linejoin="round"/>
<path d="M62.4115 8.61446C62.3859 8.60059 62.3591 8.58613 62.3329 8.57338" stroke="#E8EBED" stroke-width="1.9011" stroke-linecap="round" stroke-linejoin="round"/>
<path d="M53.5391 12.4768C53.8656 14.3779 55.3388 16.3355 57.582 17.5482" stroke="#E8EBED" stroke-width="1.77964" stroke-linecap="round" stroke-linejoin="round"/>
<path d="M57.5832 17.5459C60.1738 18.9795 62.8078 19.0909 63.4158 17.9688C64.0672 16.7664 62.789 14.5655 59.9964 13.0818" stroke="#E8EBED" stroke-width="1.77964" stroke-linecap="round" stroke-linejoin="round"/>
<path d="M59.9973 13.0796C62.5879 14.5132 65.2218 14.6246 65.8299 13.5025C66.4813 12.3001 65.2031 10.0992 62.4105 8.61549" stroke="#E8EBED" stroke-width="1.77964" stroke-linecap="round" stroke-linejoin="round"/>
<path d="M58.3685 3.543C60.1379 2.77499 62.5826 2.93532 64.8259 4.14797" stroke="#E8EBED" stroke-width="1.77964" stroke-linecap="round" stroke-linejoin="round"/>
<path d="M62.4123 8.61211C65.0029 10.0457 67.6369 10.1571 68.2449 9.03493C68.8963 7.83253 67.6181 5.63165 64.8255 4.14796" stroke="#E8EBED" stroke-width="1.77964" stroke-linecap="round" stroke-linejoin="round"/>
</g>
<g clip-path="url(#clip3_1218_31454)">
<path d="M81.583 17.5481L79.5605 20.924" stroke="#E8EBED" stroke-width="1.77964" stroke-linecap="round" stroke-linejoin="round"/>
<path d="M86.4106 8.61543L86.3325 8.57324" stroke="#E8EBED" stroke-width="1.9011" stroke-linecap="round" stroke-linejoin="round"/>
<path d="M86.4115 8.61446C86.3859 8.60059 86.3591 8.58613 86.3329 8.57338" stroke="#E8EBED" stroke-width="1.9011" stroke-linecap="round" stroke-linejoin="round"/>
<path d="M77.5391 12.4768C77.8656 14.3779 79.3388 16.3355 81.582 17.5482" stroke="#E8EBED" stroke-width="1.77964" stroke-linecap="round" stroke-linejoin="round"/>
<path d="M81.5832 17.5459C84.1738 18.9795 86.8078 19.0909 87.4158 17.9688C88.0672 16.7664 86.789 14.5655 83.9964 13.0818" stroke="#E8EBED" stroke-width="1.77964" stroke-linecap="round" stroke-linejoin="round"/>
<path d="M83.9973 13.0796C86.5879 14.5132 89.2218 14.6246 89.8299 13.5025C90.4813 12.3001 89.2031 10.0992 86.4105 8.61549" stroke="#E8EBED" stroke-width="1.77964" stroke-linecap="round" stroke-linejoin="round"/>
<path d="M82.3685 3.543C84.1379 2.77499 86.5826 2.93532 88.8259 4.14797" stroke="#E8EBED" stroke-width="1.77964" stroke-linecap="round" stroke-linejoin="round"/>
<path d="M86.4123 8.61211C89.0029 10.0457 91.6369 10.1571 92.2449 9.03493C92.8963 7.83253 91.6181 5.63165 88.8255 4.14796" stroke="#E8EBED" stroke-width="1.77964" stroke-linecap="round" stroke-linejoin="round"/>
</g>
<g clip-path="url(#clip4_1218_31454)">
<path d="M105.583 17.5481L103.561 20.924" stroke="#E8EBED" stroke-width="1.77964" stroke-linecap="round" stroke-linejoin="round"/>
<path d="M110.411 8.61543L110.333 8.57324" stroke="#E8EBED" stroke-width="1.9011" stroke-linecap="round" stroke-linejoin="round"/>
<path d="M110.412 8.61446C110.386 8.60059 110.359 8.58613 110.333 8.57338" stroke="#E8EBED" stroke-width="1.9011" stroke-linecap="round" stroke-linejoin="round"/>
<path d="M101.539 12.4768C101.866 14.3779 103.339 16.3355 105.582 17.5482" stroke="#E8EBED" stroke-width="1.77964" stroke-linecap="round" stroke-linejoin="round"/>
<path d="M105.583 17.5459C108.174 18.9795 110.808 19.0909 111.416 17.9688C112.067 16.7664 110.789 14.5655 107.996 13.0818" stroke="#E8EBED" stroke-width="1.77964" stroke-linecap="round" stroke-linejoin="round"/>
<path d="M107.997 13.0796C110.588 14.5132 113.222 14.6246 113.83 13.5025C114.481 12.3001 113.203 10.0992 110.411 8.61549" stroke="#E8EBED" stroke-width="1.77964" stroke-linecap="round" stroke-linejoin="round"/>
<path d="M106.368 3.543C108.138 2.77499 110.583 2.93532 112.826 4.14797" stroke="#E8EBED" stroke-width="1.77964" stroke-linecap="round" stroke-linejoin="round"/>
<path d="M110.412 8.61211C113.003 10.0457 115.637 10.1571 116.245 9.03493C116.896 7.83253 115.618 5.63165 112.826 4.14796" stroke="#E8EBED" stroke-width="1.77964" stroke-linecap="round" stroke-linejoin="round"/>
</g>
<defs>
<clipPath id="clip0_1218_31454">
<rect width="12.7981" height="20.3639" fill="white" transform="translate(11.2163 0.0385742) rotate(28.3949)"/>
</clipPath>
<clipPath id="clip1_1218_31454">
<rect width="13.2" height="21.0034" fill="white" transform="translate(35.1914 0.0214844) rotate(28.3949)"/>
</clipPath>
<clipPath id="clip2_1218_31454">
<rect width="13.2" height="21.0034" fill="white" transform="translate(59.1914 0.0214844) rotate(28.3949)"/>
</clipPath>
<clipPath id="clip3_1218_31454">
<rect width="13.2" height="21.0034" fill="white" transform="translate(83.1914 0.0214844) rotate(28.3949)"/>
</clipPath>
<clipPath id="clip4_1218_31454">
<rect width="13.2" height="21.0034" fill="white" transform="translate(107.191 0.0214844) rotate(28.3949)"/>
</clipPath>
</defs>
</svg>
