<svg width="120" height="25" viewBox="0 0 120 25" fill="none" xmlns="http://www.w3.org/2000/svg">
<g clip-path="url(#clip0_1218_31756)">
<path d="M11.0527 14.447L7.87149 20.3318" stroke="#FFAD1E" stroke-width="1.72545" stroke-linecap="round" stroke-linejoin="round"/>
<path d="M13.7546 9.26828C16.3611 10.6773 19.1384 10.5908 19.9578 9.07499C20.7772 7.55919 19.3285 5.18813 16.722 3.77909C14.1154 2.37004 11.3382 2.45658 10.5188 3.97238C9.69934 5.48818 11.1481 7.85923 13.7546 9.26828Z" fill="#FFE5B8"/>
<path d="M9.46067 17.2111C12.0672 18.6202 14.8445 18.5337 15.6639 17.0179C16.4833 15.5021 15.0346 13.131 12.428 11.722C9.8215 10.3129 7.04423 10.3995 6.22481 11.9152C5.4054 13.431 6.85414 15.8021 9.46067 17.2111Z" fill="#FFE5B8"/>
<path d="M11.2001 13.9944C13.8066 15.4034 16.7665 14.9791 17.8112 13.0465C18.8559 11.114 17.5897 8.40517 14.9832 6.99613C12.3767 5.58708 9.41679 6.01143 8.37211 7.94394C7.32743 9.87645 8.59355 12.5853 11.2001 13.9944Z" fill="#FFE5B8"/>
<path d="M14.3374 8.37074L14.2617 8.32983" stroke="#FFAD1E" stroke-width="1.84322" stroke-linecap="round" stroke-linejoin="round"/>
<path d="M14.3384 8.36976C14.3135 8.35632 14.2876 8.3423 14.2621 8.32994" stroke="#FFAD1E" stroke-width="1.84322" stroke-linecap="round" stroke-linejoin="round"/>
<path d="M5.73584 12.1145C6.05248 13.9577 7.48076 15.8557 9.65568 17.0314" stroke="#FFAD1E" stroke-width="1.72545" stroke-linecap="round" stroke-linejoin="round"/>
<path d="M9.65668 17.0294C12.1684 18.4193 14.7222 18.5273 15.3117 17.4393C15.9433 16.2736 14.704 14.1397 11.9964 12.7012" stroke="#FFAD1E" stroke-width="1.72545" stroke-linecap="round" stroke-linejoin="round"/>
<path d="M11.998 12.6991C14.5097 14.089 17.0635 14.197 17.653 13.109C18.2846 11.9432 17.0453 9.80937 14.3378 8.37085" stroke="#FFAD1E" stroke-width="1.72545" stroke-linecap="round" stroke-linejoin="round"/>
<path d="M10.4184 3.45279C12.134 2.70816 14.5043 2.86361 16.6792 4.03934" stroke="#FFAD1E" stroke-width="1.72545" stroke-linecap="round" stroke-linejoin="round"/>
<path d="M14.3393 8.36753C16.851 9.75745 19.4048 9.86543 19.9943 8.77748C20.6259 7.61169 19.3866 5.47782 16.6791 4.03931" stroke="#FFAD1E" stroke-width="1.72545" stroke-linecap="round" stroke-linejoin="round"/>
</g>
<g clip-path="url(#clip1_1218_31756)">
<path d="M35.0527 14.447L31.8715 20.3318" stroke="#FFAD1E" stroke-width="1.72545" stroke-linecap="round" stroke-linejoin="round"/>
<path d="M37.7546 9.26828C40.3611 10.6773 43.1384 10.5908 43.9578 9.07499C44.7772 7.55919 43.3285 5.18813 40.722 3.77909C38.1154 2.37004 35.3382 2.45658 34.5188 3.97238C33.6993 5.48818 35.1481 7.85923 37.7546 9.26828Z" fill="#FFE5B8"/>
<path d="M33.4607 17.2111C36.0672 18.6202 38.8445 18.5337 39.6639 17.0179C40.4833 15.5021 39.0346 13.131 36.428 11.722C33.8215 10.3129 31.0442 10.3995 30.2248 11.9152C29.4054 13.431 30.8541 15.8021 33.4607 17.2111Z" fill="#FFE5B8"/>
<path d="M35.2001 13.9944C37.8066 15.4034 40.7665 14.9791 41.8112 13.0465C42.8559 11.114 41.5897 8.40517 38.9832 6.99613C36.3767 5.58708 33.4168 6.01143 32.3721 7.94394C31.3274 9.87645 32.5936 12.5853 35.2001 13.9944Z" fill="#FFE5B8"/>
<path d="M38.3374 8.37074L38.2617 8.32983" stroke="#FFAD1E" stroke-width="1.84322" stroke-linecap="round" stroke-linejoin="round"/>
<path d="M38.3384 8.36976C38.3135 8.35632 38.2876 8.3423 38.2621 8.32994" stroke="#FFAD1E" stroke-width="1.84322" stroke-linecap="round" stroke-linejoin="round"/>
<path d="M29.7358 12.1145C30.0525 13.9577 31.4808 15.8557 33.6557 17.0314" stroke="#FFAD1E" stroke-width="1.72545" stroke-linecap="round" stroke-linejoin="round"/>
<path d="M33.6567 17.0294C36.1684 18.4193 38.7222 18.5273 39.3117 17.4393C39.9433 16.2736 38.704 14.1397 35.9964 12.7012" stroke="#FFAD1E" stroke-width="1.72545" stroke-linecap="round" stroke-linejoin="round"/>
<path d="M35.998 12.6991C38.5097 14.089 41.0635 14.197 41.653 13.109C42.2846 11.9432 41.0453 9.80937 38.3378 8.37085" stroke="#FFAD1E" stroke-width="1.72545" stroke-linecap="round" stroke-linejoin="round"/>
<path d="M34.4184 3.45279C36.134 2.70816 38.5043 2.86361 40.6792 4.03934" stroke="#FFAD1E" stroke-width="1.72545" stroke-linecap="round" stroke-linejoin="round"/>
<path d="M38.3393 8.36753C40.851 9.75745 43.4048 9.86543 43.9943 8.77748C44.6259 7.61169 43.3866 5.47782 40.6791 4.03931" stroke="#FFAD1E" stroke-width="1.72545" stroke-linecap="round" stroke-linejoin="round"/>
</g>
<g clip-path="url(#clip2_1218_31756)">
<path d="M57.583 17.5481L55.5605 20.924" stroke="#E8EBED" stroke-width="1.77964" stroke-linecap="round" stroke-linejoin="round"/>
<path d="M62.4111 8.61543L62.333 8.57324" stroke="#E8EBED" stroke-width="1.9011" stroke-linecap="round" stroke-linejoin="round"/>
<path d="M62.4115 8.61446C62.3859 8.60059 62.3591 8.58613 62.3329 8.57338" stroke="#E8EBED" stroke-width="1.9011" stroke-linecap="round" stroke-linejoin="round"/>
<path d="M53.5391 12.4768C53.8656 14.3779 55.3388 16.3355 57.582 17.5482" stroke="#E8EBED" stroke-width="1.77964" stroke-linecap="round" stroke-linejoin="round"/>
<path d="M57.5832 17.5459C60.1738 18.9795 62.8078 19.0909 63.4158 17.9688C64.0672 16.7664 62.789 14.5655 59.9964 13.0818" stroke="#E8EBED" stroke-width="1.77964" stroke-linecap="round" stroke-linejoin="round"/>
<path d="M59.9977 13.0796C62.5883 14.5132 65.2223 14.6246 65.8304 13.5025C66.4818 12.3001 65.2036 10.0992 62.411 8.61549" stroke="#E8EBED" stroke-width="1.77964" stroke-linecap="round" stroke-linejoin="round"/>
<path d="M58.3685 3.543C60.1379 2.77499 62.5826 2.93532 64.8259 4.14797" stroke="#E8EBED" stroke-width="1.77964" stroke-linecap="round" stroke-linejoin="round"/>
<path d="M62.4125 8.61211C65.0031 10.0457 67.6371 10.1571 68.2452 9.03493C68.8966 7.83253 67.6184 5.63165 64.8258 4.14796" stroke="#E8EBED" stroke-width="1.77964" stroke-linecap="round" stroke-linejoin="round"/>
</g>
<g clip-path="url(#clip3_1218_31756)">
<path d="M81.583 17.5481L79.5605 20.924" stroke="#E8EBED" stroke-width="1.77964" stroke-linecap="round" stroke-linejoin="round"/>
<path d="M86.4111 8.61543L86.333 8.57324" stroke="#E8EBED" stroke-width="1.9011" stroke-linecap="round" stroke-linejoin="round"/>
<path d="M86.4115 8.61446C86.3859 8.60059 86.3591 8.58613 86.3329 8.57338" stroke="#E8EBED" stroke-width="1.9011" stroke-linecap="round" stroke-linejoin="round"/>
<path d="M77.5391 12.4768C77.8656 14.3779 79.3388 16.3355 81.582 17.5482" stroke="#E8EBED" stroke-width="1.77964" stroke-linecap="round" stroke-linejoin="round"/>
<path d="M81.5832 17.5459C84.1738 18.9795 86.8078 19.0909 87.4158 17.9688C88.0672 16.7664 86.789 14.5655 83.9964 13.0818" stroke="#E8EBED" stroke-width="1.77964" stroke-linecap="round" stroke-linejoin="round"/>
<path d="M83.9977 13.0796C86.5883 14.5132 89.2223 14.6246 89.8304 13.5025C90.4818 12.3001 89.2036 10.0992 86.411 8.61549" stroke="#E8EBED" stroke-width="1.77964" stroke-linecap="round" stroke-linejoin="round"/>
<path d="M82.3685 3.543C84.1379 2.77499 86.5826 2.93532 88.8259 4.14797" stroke="#E8EBED" stroke-width="1.77964" stroke-linecap="round" stroke-linejoin="round"/>
<path d="M86.4125 8.61211C89.0031 10.0457 91.6371 10.1571 92.2452 9.03493C92.8966 7.83253 91.6184 5.63165 88.8258 4.14796" stroke="#E8EBED" stroke-width="1.77964" stroke-linecap="round" stroke-linejoin="round"/>
</g>
<g clip-path="url(#clip4_1218_31756)">
<path d="M105.583 17.5481L103.561 20.924" stroke="#E8EBED" stroke-width="1.77964" stroke-linecap="round" stroke-linejoin="round"/>
<path d="M110.411 8.61543L110.333 8.57324" stroke="#E8EBED" stroke-width="1.9011" stroke-linecap="round" stroke-linejoin="round"/>
<path d="M110.412 8.61446C110.386 8.60059 110.359 8.58613 110.333 8.57338" stroke="#E8EBED" stroke-width="1.9011" stroke-linecap="round" stroke-linejoin="round"/>
<path d="M101.539 12.4768C101.866 14.3779 103.339 16.3355 105.582 17.5482" stroke="#E8EBED" stroke-width="1.77964" stroke-linecap="round" stroke-linejoin="round"/>
<path d="M105.583 17.5459C108.174 18.9795 110.808 19.0909 111.416 17.9688C112.067 16.7664 110.789 14.5655 107.996 13.0818" stroke="#E8EBED" stroke-width="1.77964" stroke-linecap="round" stroke-linejoin="round"/>
<path d="M107.998 13.0796C110.588 14.5132 113.222 14.6246 113.83 13.5025C114.482 12.3001 113.204 10.0992 110.411 8.61549" stroke="#E8EBED" stroke-width="1.77964" stroke-linecap="round" stroke-linejoin="round"/>
<path d="M106.368 3.543C108.138 2.77499 110.583 2.93532 112.826 4.14797" stroke="#E8EBED" stroke-width="1.77964" stroke-linecap="round" stroke-linejoin="round"/>
<path d="M110.413 8.61211C113.003 10.0457 115.637 10.1571 116.245 9.03493C116.897 7.83253 115.618 5.63165 112.826 4.14796" stroke="#E8EBED" stroke-width="1.77964" stroke-linecap="round" stroke-linejoin="round"/>
</g>
<defs>
<clipPath id="clip0_1218_31756">
<rect width="12.7981" height="20.3639" fill="white" transform="translate(11.2163 0.0385742) rotate(28.3949)"/>
</clipPath>
<clipPath id="clip1_1218_31756">
<rect width="12.7981" height="20.3639" fill="white" transform="translate(35.2163 0.0385742) rotate(28.3949)"/>
</clipPath>
<clipPath id="clip2_1218_31756">
<rect width="13.2" height="21.0034" fill="white" transform="translate(59.1917 0.0214844) rotate(28.3949)"/>
</clipPath>
<clipPath id="clip3_1218_31756">
<rect width="13.2" height="21.0034" fill="white" transform="translate(83.1917 0.0214844) rotate(28.3949)"/>
</clipPath>
<clipPath id="clip4_1218_31756">
<rect width="13.2" height="21.0034" fill="white" transform="translate(107.192 0.0214844) rotate(28.3949)"/>
</clipPath>
</defs>
</svg>
