<svg width="24" height="25" viewBox="0 0 24 25" fill="none" xmlns="http://www.w3.org/2000/svg">
<g clip-path="url(#clip0_1278_23534)">
<path d="M11.0529 14.4492L7.87165 20.334" stroke="#FFAD1E" stroke-width="1.72545" stroke-linecap="round" stroke-linejoin="round"/>
<path d="M13.7548 9.26706C16.3613 10.6761 19.1386 10.5896 19.958 9.07377C20.7774 7.55797 19.3287 5.18691 16.7221 3.77787C14.1156 2.36882 11.3383 2.45536 10.5189 3.97116C9.69949 5.48696 11.1482 7.85801 13.7548 9.26706Z" fill="#FFE5B8"/>
<path d="M9.4609 17.2124C12.0674 18.6214 14.8447 18.5349 15.6641 17.0191C16.4835 15.5033 15.0348 13.1322 12.4283 11.7232C9.82173 10.3141 7.04446 10.4007 6.22504 11.9165C5.40563 13.4323 6.85437 15.8033 9.4609 17.2124Z" fill="#FFE5B8"/>
<path d="M11.2 13.9948C13.8065 15.4039 16.7664 14.9795 17.8111 13.047C18.8557 11.1145 17.5896 8.40566 14.9831 6.99662C12.3766 5.58757 9.41667 6.01192 8.37199 7.94443C7.3273 9.87694 8.59343 12.5858 11.2 13.9948Z" fill="#FFE5B8"/>
<path d="M14.3376 8.37294L14.262 8.33203" stroke="#FFAD1E" stroke-width="1.84322" stroke-linecap="round" stroke-linejoin="round"/>
<path d="M14.3382 8.36903C14.3134 8.35559 14.2874 8.34157 14.262 8.32921" stroke="#FFAD1E" stroke-width="1.84322" stroke-linecap="round" stroke-linejoin="round"/>
<path d="M5.73592 12.1133C6.05256 13.9565 7.48084 15.8545 9.65576 17.0302" stroke="#FFAD1E" stroke-width="1.72545" stroke-linecap="round" stroke-linejoin="round"/>
<path d="M9.65697 17.0316C12.1687 18.4215 14.7225 18.5295 15.312 17.4415C15.9436 16.2758 14.7043 14.1419 11.9967 12.7034" stroke="#FFAD1E" stroke-width="1.72545" stroke-linecap="round" stroke-linejoin="round"/>
<path d="M11.9979 12.6996C14.5096 14.0895 17.0634 14.1975 17.6529 13.1095C18.2845 11.9437 17.0452 9.80985 14.3376 8.37134" stroke="#FFAD1E" stroke-width="1.72545" stroke-linecap="round" stroke-linejoin="round"/>
<path d="M10.4183 3.45426C12.1339 2.70962 14.5041 2.86507 16.679 4.0408" stroke="#FFAD1E" stroke-width="1.72545" stroke-linecap="round" stroke-linejoin="round"/>
<path d="M14.3392 8.36753C16.851 9.75745 19.4047 9.86543 19.9943 8.77748C20.6259 7.61169 19.3866 5.47782 16.679 4.03931" stroke="#FFAD1E" stroke-width="1.72545" stroke-linecap="round" stroke-linejoin="round"/>
</g>
<defs>
<clipPath id="clip0_1278_23534">
<rect width="12.7981" height="20.3639" fill="white" transform="translate(11.2164 0.0390625) rotate(28.3949)"/>
</clipPath>
</defs>
</svg>
