<svg width="120" height="25" viewBox="0 0 120 25" fill="none" xmlns="http://www.w3.org/2000/svg">
<g clip-path="url(#clip0_1234_23002)">
<path d="M11.0527 14.4492L7.87149 20.334" stroke="#FFAD1E" stroke-width="1.72545" stroke-linecap="round" stroke-linejoin="round"/>
<path d="M13.7546 9.26706C16.3611 10.6761 19.1384 10.5896 19.9578 9.07377C20.7772 7.55797 19.3285 5.18691 16.722 3.77787C14.1154 2.36882 11.3382 2.45536 10.5188 3.97116C9.69934 5.48696 11.1481 7.85801 13.7546 9.26706Z" fill="#FFE5B8"/>
<path d="M9.46067 17.2124C12.0672 18.6214 14.8445 18.5349 15.6639 17.0191C16.4833 15.5033 15.0346 13.1322 12.428 11.7232C9.8215 10.3141 7.04423 10.4007 6.22481 11.9165C5.4054 13.4323 6.85414 15.8033 9.46067 17.2124Z" fill="#FFE5B8"/>
<path d="M11.2001 13.9948C13.8066 15.4039 16.7665 14.9795 17.8112 13.047C18.8559 11.1145 17.5897 8.40566 14.9832 6.99662C12.3767 5.58757 9.41679 6.01192 8.37211 7.94443C7.32743 9.87694 8.59355 12.5858 11.2001 13.9948Z" fill="#FFE5B8"/>
<path d="M14.3374 8.37294L14.2617 8.33203" stroke="#FFAD1E" stroke-width="1.84322" stroke-linecap="round" stroke-linejoin="round"/>
<path d="M14.3384 8.36903C14.3135 8.35559 14.2876 8.34157 14.2621 8.32921" stroke="#FFAD1E" stroke-width="1.84322" stroke-linecap="round" stroke-linejoin="round"/>
<path d="M5.73584 12.1133C6.05248 13.9565 7.48076 15.8545 9.65568 17.0302" stroke="#FFAD1E" stroke-width="1.72545" stroke-linecap="round" stroke-linejoin="round"/>
<path d="M9.65668 17.0316C12.1684 18.4215 14.7222 18.5295 15.3117 17.4415C15.9433 16.2758 14.704 14.1419 11.9964 12.7034" stroke="#FFAD1E" stroke-width="1.72545" stroke-linecap="round" stroke-linejoin="round"/>
<path d="M11.998 12.6996C14.5097 14.0895 17.0635 14.1975 17.653 13.1095C18.2846 11.9437 17.0453 9.80985 14.3378 8.37134" stroke="#FFAD1E" stroke-width="1.72545" stroke-linecap="round" stroke-linejoin="round"/>
<path d="M10.4184 3.45426C12.134 2.70962 14.5043 2.86507 16.6792 4.0408" stroke="#FFAD1E" stroke-width="1.72545" stroke-linecap="round" stroke-linejoin="round"/>
<path d="M14.3393 8.36753C16.851 9.75745 19.4048 9.86543 19.9943 8.77748C20.6259 7.61169 19.3866 5.47782 16.6791 4.03931" stroke="#FFAD1E" stroke-width="1.72545" stroke-linecap="round" stroke-linejoin="round"/>
</g>
<g clip-path="url(#clip1_1234_23002)">
<path d="M35.0527 14.4492L31.8715 20.334" stroke="#FFAD1E" stroke-width="1.72545" stroke-linecap="round" stroke-linejoin="round"/>
<path d="M37.7546 9.26706C40.3611 10.6761 43.1384 10.5896 43.9578 9.07377C44.7772 7.55797 43.3285 5.18691 40.722 3.77787C38.1154 2.36882 35.3382 2.45536 34.5188 3.97116C33.6993 5.48696 35.1481 7.85801 37.7546 9.26706Z" fill="#FFE5B8"/>
<path d="M33.4607 17.2124C36.0672 18.6214 38.8445 18.5349 39.6639 17.0191C40.4833 15.5033 39.0346 13.1322 36.428 11.7232C33.8215 10.3141 31.0442 10.4007 30.2248 11.9165C29.4054 13.4323 30.8541 15.8033 33.4607 17.2124Z" fill="#FFE5B8"/>
<path d="M35.2001 13.9948C37.8066 15.4039 40.7665 14.9795 41.8112 13.047C42.8559 11.1145 41.5897 8.40566 38.9832 6.99662C36.3767 5.58757 33.4168 6.01192 32.3721 7.94443C31.3274 9.87694 32.5936 12.5858 35.2001 13.9948Z" fill="#FFE5B8"/>
<path d="M38.3374 8.37294L38.2617 8.33203" stroke="#FFAD1E" stroke-width="1.84322" stroke-linecap="round" stroke-linejoin="round"/>
<path d="M38.3384 8.36903C38.3135 8.35559 38.2876 8.34157 38.2621 8.32921" stroke="#FFAD1E" stroke-width="1.84322" stroke-linecap="round" stroke-linejoin="round"/>
<path d="M29.7358 12.1133C30.0525 13.9565 31.4808 15.8545 33.6557 17.0302" stroke="#FFAD1E" stroke-width="1.72545" stroke-linecap="round" stroke-linejoin="round"/>
<path d="M33.6567 17.0316C36.1684 18.4215 38.7222 18.5295 39.3117 17.4415C39.9433 16.2758 38.704 14.1419 35.9964 12.7034" stroke="#FFAD1E" stroke-width="1.72545" stroke-linecap="round" stroke-linejoin="round"/>
<path d="M35.998 12.6996C38.5097 14.0895 41.0635 14.1975 41.653 13.1095C42.2846 11.9437 41.0453 9.80985 38.3378 8.37134" stroke="#FFAD1E" stroke-width="1.72545" stroke-linecap="round" stroke-linejoin="round"/>
<path d="M34.4184 3.45426C36.134 2.70962 38.5043 2.86507 40.6792 4.0408" stroke="#FFAD1E" stroke-width="1.72545" stroke-linecap="round" stroke-linejoin="round"/>
<path d="M38.3393 8.36753C40.851 9.75745 43.4048 9.86543 43.9943 8.77748C44.6259 7.61169 43.3866 5.47782 40.6791 4.03931" stroke="#FFAD1E" stroke-width="1.72545" stroke-linecap="round" stroke-linejoin="round"/>
</g>
<g clip-path="url(#clip2_1234_23002)">
<path d="M59.0527 14.4492L55.8715 20.334" stroke="#FFAD1E" stroke-width="1.72545" stroke-linecap="round" stroke-linejoin="round"/>
<path d="M61.7546 9.26706C64.3611 10.6761 67.1384 10.5896 67.9578 9.07377C68.7772 7.55797 67.3285 5.18691 64.722 3.77787C62.1154 2.36882 59.3382 2.45536 58.5188 3.97116C57.6993 5.48696 59.1481 7.85801 61.7546 9.26706Z" fill="#FFE5B8"/>
<path d="M57.4607 17.2124C60.0672 18.6214 62.8445 18.5349 63.6639 17.0191C64.4833 15.5033 63.0346 13.1322 60.428 11.7232C57.8215 10.3141 55.0442 10.4007 54.2248 11.9165C53.4054 13.4323 54.8541 15.8033 57.4607 17.2124Z" fill="#FFE5B8"/>
<path d="M59.2001 13.9948C61.8066 15.4039 64.7665 14.9795 65.8112 13.047C66.8559 11.1145 65.5897 8.40566 62.9832 6.99662C60.3767 5.58757 57.4168 6.01192 56.3721 7.94443C55.3274 9.87694 56.5936 12.5858 59.2001 13.9948Z" fill="#FFE5B8"/>
<path d="M62.3374 8.37294L62.2617 8.33203" stroke="#FFAD1E" stroke-width="1.84322" stroke-linecap="round" stroke-linejoin="round"/>
<path d="M62.3384 8.36903C62.3135 8.35559 62.2876 8.34157 62.2621 8.32921" stroke="#FFAD1E" stroke-width="1.84322" stroke-linecap="round" stroke-linejoin="round"/>
<path d="M53.7358 12.1133C54.0525 13.9565 55.4808 15.8545 57.6557 17.0302" stroke="#FFAD1E" stroke-width="1.72545" stroke-linecap="round" stroke-linejoin="round"/>
<path d="M57.6567 17.0316C60.1684 18.4215 62.7222 18.5295 63.3117 17.4415C63.9433 16.2758 62.704 14.1419 59.9964 12.7034" stroke="#FFAD1E" stroke-width="1.72545" stroke-linecap="round" stroke-linejoin="round"/>
<path d="M59.998 12.6996C62.5097 14.0895 65.0635 14.1975 65.653 13.1095C66.2846 11.9437 65.0453 9.80985 62.3378 8.37134" stroke="#FFAD1E" stroke-width="1.72545" stroke-linecap="round" stroke-linejoin="round"/>
<path d="M58.4184 3.45426C60.134 2.70962 62.5043 2.86507 64.6792 4.0408" stroke="#FFAD1E" stroke-width="1.72545" stroke-linecap="round" stroke-linejoin="round"/>
<path d="M62.3393 8.36753C64.851 9.75745 67.4048 9.86543 67.9943 8.77748C68.6259 7.61169 67.3866 5.47782 64.6791 4.03931" stroke="#FFAD1E" stroke-width="1.72545" stroke-linecap="round" stroke-linejoin="round"/>
</g>
<g clip-path="url(#clip3_1234_23002)">
<path d="M83.0527 14.4492L79.8715 20.334" stroke="#FFAD1E" stroke-width="1.72545" stroke-linecap="round" stroke-linejoin="round"/>
<path d="M85.7546 9.26706C88.3611 10.6761 91.1384 10.5896 91.9578 9.07377C92.7772 7.55797 91.3285 5.18691 88.722 3.77787C86.1154 2.36882 83.3382 2.45536 82.5188 3.97116C81.6993 5.48696 83.1481 7.85801 85.7546 9.26706Z" fill="#FFE5B8"/>
<path d="M81.4607 17.2124C84.0672 18.6214 86.8445 18.5349 87.6639 17.0191C88.4833 15.5033 87.0346 13.1322 84.428 11.7232C81.8215 10.3141 79.0442 10.4007 78.2248 11.9165C77.4054 13.4323 78.8541 15.8033 81.4607 17.2124Z" fill="#FFE5B8"/>
<path d="M83.2001 13.9948C85.8066 15.4039 88.7665 14.9795 89.8112 13.047C90.8559 11.1145 89.5897 8.40566 86.9832 6.99662C84.3767 5.58757 81.4168 6.01192 80.3721 7.94443C79.3274 9.87694 80.5936 12.5858 83.2001 13.9948Z" fill="#FFE5B8"/>
<path d="M86.3374 8.37294L86.2617 8.33203" stroke="#FFAD1E" stroke-width="1.84322" stroke-linecap="round" stroke-linejoin="round"/>
<path d="M86.3384 8.36903C86.3135 8.35559 86.2876 8.34157 86.2621 8.32921" stroke="#FFAD1E" stroke-width="1.84322" stroke-linecap="round" stroke-linejoin="round"/>
<path d="M77.7358 12.1133C78.0525 13.9565 79.4808 15.8545 81.6557 17.0302" stroke="#FFAD1E" stroke-width="1.72545" stroke-linecap="round" stroke-linejoin="round"/>
<path d="M81.6567 17.0316C84.1684 18.4215 86.7222 18.5295 87.3117 17.4415C87.9433 16.2758 86.704 14.1419 83.9964 12.7034" stroke="#FFAD1E" stroke-width="1.72545" stroke-linecap="round" stroke-linejoin="round"/>
<path d="M83.998 12.6996C86.5097 14.0895 89.0635 14.1975 89.653 13.1095C90.2846 11.9437 89.0453 9.80985 86.3378 8.37134" stroke="#FFAD1E" stroke-width="1.72545" stroke-linecap="round" stroke-linejoin="round"/>
<path d="M82.4184 3.45426C84.134 2.70962 86.5043 2.86507 88.6792 4.0408" stroke="#FFAD1E" stroke-width="1.72545" stroke-linecap="round" stroke-linejoin="round"/>
<path d="M86.3393 8.36753C88.851 9.75745 91.4048 9.86543 91.9943 8.77748C92.6259 7.61169 91.3866 5.47782 88.6791 4.03931" stroke="#FFAD1E" stroke-width="1.72545" stroke-linecap="round" stroke-linejoin="round"/>
</g>
<g clip-path="url(#clip4_1234_23002)">
<path d="M105.583 17.5508L103.561 20.9266" stroke="#E8EBED" stroke-width="1.77964" stroke-linecap="round" stroke-linejoin="round"/>
<path d="M110.411 8.61641L110.333 8.57422" stroke="#E8EBED" stroke-width="1.9011" stroke-linecap="round" stroke-linejoin="round"/>
<path d="M110.412 8.61641C110.386 8.60255 110.359 8.58808 110.333 8.57533" stroke="#E8EBED" stroke-width="1.9011" stroke-linecap="round" stroke-linejoin="round"/>
<path d="M101.539 12.4805C101.866 14.3816 103.339 16.3392 105.582 17.5518" stroke="#E8EBED" stroke-width="1.77964" stroke-linecap="round" stroke-linejoin="round"/>
<path d="M105.583 17.5464C108.174 18.98 110.808 19.0914 111.416 17.9693C112.067 16.7669 110.789 14.566 107.996 13.0823" stroke="#E8EBED" stroke-width="1.77964" stroke-linecap="round" stroke-linejoin="round"/>
<path d="M107.997 13.0816C110.588 14.5152 113.222 14.6265 113.83 13.5044C114.481 12.302 113.203 10.1011 110.411 8.61744" stroke="#E8EBED" stroke-width="1.77964" stroke-linecap="round" stroke-linejoin="round"/>
<path d="M106.368 3.54569C108.138 2.77767 110.583 2.938 112.826 4.15065" stroke="#E8EBED" stroke-width="1.77964" stroke-linecap="round" stroke-linejoin="round"/>
<path d="M110.412 8.61284C113.003 10.0464 115.637 10.1578 116.245 9.03566C116.896 7.83326 115.618 5.63238 112.826 4.14869" stroke="#E8EBED" stroke-width="1.77964" stroke-linecap="round" stroke-linejoin="round"/>
</g>
<defs>
<clipPath id="clip0_1234_23002">
<rect width="12.7981" height="20.3639" fill="white" transform="translate(11.2163 0.0390625) rotate(28.3949)"/>
</clipPath>
<clipPath id="clip1_1234_23002">
<rect width="12.7981" height="20.3639" fill="white" transform="translate(35.2163 0.0390625) rotate(28.3949)"/>
</clipPath>
<clipPath id="clip2_1234_23002">
<rect width="12.7981" height="20.3639" fill="white" transform="translate(59.2163 0.0390625) rotate(28.3949)"/>
</clipPath>
<clipPath id="clip3_1234_23002">
<rect width="12.7981" height="20.3639" fill="white" transform="translate(83.2163 0.0390625) rotate(28.3949)"/>
</clipPath>
<clipPath id="clip4_1234_23002">
<rect width="13.2" height="21.0034" fill="white" transform="translate(107.191 0.0234375) rotate(28.3949)"/>
</clipPath>
</defs>
</svg>
