<svg width="120" height="25" viewBox="0 0 120 25" fill="none" xmlns="http://www.w3.org/2000/svg">
<g clip-path="url(#clip0_1234_23056)">
<path d="M9.58301 17.5508L7.56052 20.9266" stroke="#E8EBED" stroke-width="1.77964" stroke-linecap="round" stroke-linejoin="round"/>
<path d="M14.4106 8.61641L14.3325 8.57422" stroke="#E8EBED" stroke-width="1.9011" stroke-linecap="round" stroke-linejoin="round"/>
<path d="M14.4115 8.61641C14.3859 8.60255 14.3591 8.58808 14.3329 8.57533" stroke="#E8EBED" stroke-width="1.9011" stroke-linecap="round" stroke-linejoin="round"/>
<path d="M5.53906 12.4805C5.86565 14.3816 7.33878 16.3392 9.58201 17.5518" stroke="#E8EBED" stroke-width="1.77964" stroke-linecap="round" stroke-linejoin="round"/>
<path d="M9.5832 17.5464C12.1738 18.98 14.8078 19.0914 15.4158 17.9693C16.0672 16.7669 14.789 14.566 11.9964 13.0823" stroke="#E8EBED" stroke-width="1.77964" stroke-linecap="round" stroke-linejoin="round"/>
<path d="M11.9973 13.0816C14.5879 14.5152 17.2218 14.6265 17.8299 13.5044C18.4813 12.302 17.2031 10.1011 14.4105 8.61744" stroke="#E8EBED" stroke-width="1.77964" stroke-linecap="round" stroke-linejoin="round"/>
<path d="M10.3685 3.54569C12.1379 2.77767 14.5826 2.938 16.8259 4.15065" stroke="#E8EBED" stroke-width="1.77964" stroke-linecap="round" stroke-linejoin="round"/>
<path d="M14.4123 8.61284C17.0029 10.0464 19.6369 10.1578 20.2449 9.03566C20.8963 7.83326 19.6181 5.63238 16.8255 4.14869" stroke="#E8EBED" stroke-width="1.77964" stroke-linecap="round" stroke-linejoin="round"/>
</g>
<g clip-path="url(#clip1_1234_23056)">
<path d="M33.583 17.5508L31.5605 20.9266" stroke="#E8EBED" stroke-width="1.77964" stroke-linecap="round" stroke-linejoin="round"/>
<path d="M38.4106 8.61641L38.3325 8.57422" stroke="#E8EBED" stroke-width="1.9011" stroke-linecap="round" stroke-linejoin="round"/>
<path d="M38.4115 8.61641C38.3859 8.60255 38.3591 8.58808 38.3329 8.57533" stroke="#E8EBED" stroke-width="1.9011" stroke-linecap="round" stroke-linejoin="round"/>
<path d="M29.5391 12.4805C29.8656 14.3816 31.3388 16.3392 33.582 17.5518" stroke="#E8EBED" stroke-width="1.77964" stroke-linecap="round" stroke-linejoin="round"/>
<path d="M33.5832 17.5464C36.1738 18.98 38.8078 19.0914 39.4158 17.9693C40.0672 16.7669 38.789 14.566 35.9964 13.0823" stroke="#E8EBED" stroke-width="1.77964" stroke-linecap="round" stroke-linejoin="round"/>
<path d="M35.9973 13.0816C38.5879 14.5152 41.2218 14.6265 41.8299 13.5044C42.4813 12.302 41.2031 10.1011 38.4105 8.61744" stroke="#E8EBED" stroke-width="1.77964" stroke-linecap="round" stroke-linejoin="round"/>
<path d="M34.3685 3.54569C36.1379 2.77767 38.5826 2.938 40.8259 4.15065" stroke="#E8EBED" stroke-width="1.77964" stroke-linecap="round" stroke-linejoin="round"/>
<path d="M38.4123 8.61284C41.0029 10.0464 43.6369 10.1578 44.2449 9.03566C44.8963 7.83326 43.6181 5.63238 40.8255 4.14869" stroke="#E8EBED" stroke-width="1.77964" stroke-linecap="round" stroke-linejoin="round"/>
</g>
<g clip-path="url(#clip2_1234_23056)">
<path d="M57.583 17.5508L55.5605 20.9266" stroke="#E8EBED" stroke-width="1.77964" stroke-linecap="round" stroke-linejoin="round"/>
<path d="M62.4106 8.61641L62.3325 8.57422" stroke="#E8EBED" stroke-width="1.9011" stroke-linecap="round" stroke-linejoin="round"/>
<path d="M62.4115 8.61641C62.3859 8.60255 62.3591 8.58808 62.3329 8.57533" stroke="#E8EBED" stroke-width="1.9011" stroke-linecap="round" stroke-linejoin="round"/>
<path d="M53.5391 12.4805C53.8656 14.3816 55.3388 16.3392 57.582 17.5518" stroke="#E8EBED" stroke-width="1.77964" stroke-linecap="round" stroke-linejoin="round"/>
<path d="M57.5832 17.5464C60.1738 18.98 62.8078 19.0914 63.4158 17.9693C64.0672 16.7669 62.789 14.566 59.9964 13.0823" stroke="#E8EBED" stroke-width="1.77964" stroke-linecap="round" stroke-linejoin="round"/>
<path d="M59.9973 13.0816C62.5879 14.5152 65.2218 14.6265 65.8299 13.5044C66.4813 12.302 65.2031 10.1011 62.4105 8.61744" stroke="#E8EBED" stroke-width="1.77964" stroke-linecap="round" stroke-linejoin="round"/>
<path d="M58.3685 3.54569C60.1379 2.77767 62.5826 2.938 64.8259 4.15065" stroke="#E8EBED" stroke-width="1.77964" stroke-linecap="round" stroke-linejoin="round"/>
<path d="M62.4123 8.61284C65.0029 10.0464 67.6369 10.1578 68.2449 9.03566C68.8963 7.83326 67.6181 5.63238 64.8255 4.14869" stroke="#E8EBED" stroke-width="1.77964" stroke-linecap="round" stroke-linejoin="round"/>
</g>
<g clip-path="url(#clip3_1234_23056)">
<path d="M81.583 17.5508L79.5605 20.9266" stroke="#E8EBED" stroke-width="1.77964" stroke-linecap="round" stroke-linejoin="round"/>
<path d="M86.4106 8.61641L86.3325 8.57422" stroke="#E8EBED" stroke-width="1.9011" stroke-linecap="round" stroke-linejoin="round"/>
<path d="M86.4115 8.61641C86.3859 8.60255 86.3591 8.58808 86.3329 8.57533" stroke="#E8EBED" stroke-width="1.9011" stroke-linecap="round" stroke-linejoin="round"/>
<path d="M77.5391 12.4805C77.8656 14.3816 79.3388 16.3392 81.582 17.5518" stroke="#E8EBED" stroke-width="1.77964" stroke-linecap="round" stroke-linejoin="round"/>
<path d="M81.5832 17.5464C84.1738 18.98 86.8078 19.0914 87.4158 17.9693C88.0672 16.7669 86.789 14.566 83.9964 13.0823" stroke="#E8EBED" stroke-width="1.77964" stroke-linecap="round" stroke-linejoin="round"/>
<path d="M83.9973 13.0816C86.5879 14.5152 89.2218 14.6265 89.8299 13.5044C90.4813 12.302 89.2031 10.1011 86.4105 8.61744" stroke="#E8EBED" stroke-width="1.77964" stroke-linecap="round" stroke-linejoin="round"/>
<path d="M82.3685 3.54569C84.1379 2.77767 86.5826 2.938 88.8259 4.15065" stroke="#E8EBED" stroke-width="1.77964" stroke-linecap="round" stroke-linejoin="round"/>
<path d="M86.4123 8.61284C89.0029 10.0464 91.6369 10.1578 92.2449 9.03566C92.8963 7.83326 91.6181 5.63238 88.8255 4.14869" stroke="#E8EBED" stroke-width="1.77964" stroke-linecap="round" stroke-linejoin="round"/>
</g>
<g clip-path="url(#clip4_1234_23056)">
<path d="M105.583 17.5508L103.561 20.9266" stroke="#E8EBED" stroke-width="1.77964" stroke-linecap="round" stroke-linejoin="round"/>
<path d="M110.411 8.61641L110.333 8.57422" stroke="#E8EBED" stroke-width="1.9011" stroke-linecap="round" stroke-linejoin="round"/>
<path d="M110.412 8.61641C110.386 8.60255 110.359 8.58808 110.333 8.57533" stroke="#E8EBED" stroke-width="1.9011" stroke-linecap="round" stroke-linejoin="round"/>
<path d="M101.539 12.4805C101.866 14.3816 103.339 16.3392 105.582 17.5518" stroke="#E8EBED" stroke-width="1.77964" stroke-linecap="round" stroke-linejoin="round"/>
<path d="M105.583 17.5464C108.174 18.98 110.808 19.0914 111.416 17.9693C112.067 16.7669 110.789 14.566 107.996 13.0823" stroke="#E8EBED" stroke-width="1.77964" stroke-linecap="round" stroke-linejoin="round"/>
<path d="M107.997 13.0816C110.588 14.5152 113.222 14.6265 113.83 13.5044C114.481 12.302 113.203 10.1011 110.411 8.61744" stroke="#E8EBED" stroke-width="1.77964" stroke-linecap="round" stroke-linejoin="round"/>
<path d="M106.368 3.54569C108.138 2.77767 110.583 2.938 112.826 4.15065" stroke="#E8EBED" stroke-width="1.77964" stroke-linecap="round" stroke-linejoin="round"/>
<path d="M110.412 8.61284C113.003 10.0464 115.637 10.1578 116.245 9.03566C116.896 7.83326 115.618 5.63238 112.826 4.14869" stroke="#E8EBED" stroke-width="1.77964" stroke-linecap="round" stroke-linejoin="round"/>
</g>
<defs>
<clipPath id="clip0_1234_23056">
<rect width="13.2" height="21.0034" fill="white" transform="translate(11.1914 0.0234375) rotate(28.3949)"/>
</clipPath>
<clipPath id="clip1_1234_23056">
<rect width="13.2" height="21.0034" fill="white" transform="translate(35.1914 0.0234375) rotate(28.3949)"/>
</clipPath>
<clipPath id="clip2_1234_23056">
<rect width="13.2" height="21.0034" fill="white" transform="translate(59.1914 0.0234375) rotate(28.3949)"/>
</clipPath>
<clipPath id="clip3_1234_23056">
<rect width="13.2" height="21.0034" fill="white" transform="translate(83.1914 0.0234375) rotate(28.3949)"/>
</clipPath>
<clipPath id="clip4_1234_23056">
<rect width="13.2" height="21.0034" fill="white" transform="translate(107.191 0.0234375) rotate(28.3949)"/>
</clipPath>
</defs>
</svg>
