<svg width="120" height="25" viewBox="0 0 120 25" fill="none" xmlns="http://www.w3.org/2000/svg">
<g clip-path="url(#clip0_3573_58312)">
<path d="M11.0527 14.447L7.87149 20.3318" stroke="#FFAD1E" stroke-width="1.72545" stroke-linecap="round" stroke-linejoin="round"/>
<path d="M13.7546 9.26828C16.3611 10.6773 19.1384 10.5908 19.9578 9.07499C20.7772 7.55919 19.3285 5.18813 16.722 3.77909C14.1154 2.37004 11.3382 2.45658 10.5188 3.97238C9.69934 5.48818 11.1481 7.85923 13.7546 9.26828Z" fill="#FFE5B8"/>
<path d="M9.46091 17.2111C12.0674 18.6202 14.8447 18.5337 15.6641 17.0179C16.4835 15.5021 15.0348 13.131 12.4283 11.722C9.82175 10.3129 7.04447 10.3995 6.22506 11.9152C5.40564 13.431 6.85438 15.8021 9.46091 17.2111Z" fill="#FFE5B8"/>
<path d="M11.1998 13.9944C13.8064 15.4034 16.7663 14.9791 17.8109 13.0465C18.8556 11.114 17.5895 8.40517 14.983 6.99613C12.3764 5.58708 9.41655 6.01143 8.37186 7.94394C7.32718 9.87645 8.59331 12.5853 11.1998 13.9944Z" fill="#FFE5B8"/>
<path d="M14.3376 8.37074L14.262 8.32983" stroke="#FFAD1E" stroke-width="1.84322" stroke-linecap="round" stroke-linejoin="round"/>
<path d="M14.3381 8.36976C14.3133 8.35632 14.2873 8.3423 14.2619 8.32994" stroke="#FFAD1E" stroke-width="1.84322" stroke-linecap="round" stroke-linejoin="round"/>
<path d="M5.73584 12.1145C6.05248 13.9577 7.48076 15.8557 9.65568 17.0314" stroke="#FFAD1E" stroke-width="1.72545" stroke-linecap="round" stroke-linejoin="round"/>
<path d="M9.65693 17.0294C12.1686 18.4193 14.7224 18.5273 15.3119 17.4393C15.9435 16.2736 14.7042 14.1397 11.9967 12.7012" stroke="#FFAD1E" stroke-width="1.72545" stroke-linecap="round" stroke-linejoin="round"/>
<path d="M11.9977 12.6991C14.5095 14.089 17.0632 14.197 17.6528 13.109C18.2844 11.9432 17.0451 9.80937 14.3375 8.37085" stroke="#FFAD1E" stroke-width="1.72545" stroke-linecap="round" stroke-linejoin="round"/>
<path d="M10.4182 3.45279C12.1337 2.70816 14.504 2.86361 16.6789 4.03934" stroke="#FFAD1E" stroke-width="1.72545" stroke-linecap="round" stroke-linejoin="round"/>
<path d="M14.3393 8.36753C16.851 9.75745 19.4048 9.86543 19.9943 8.77748C20.6259 7.61169 19.3866 5.47782 16.6791 4.03931" stroke="#FFAD1E" stroke-width="1.72545" stroke-linecap="round" stroke-linejoin="round"/>
</g>
<g clip-path="url(#clip1_3573_58312)">
<path d="M35.0527 14.447L31.8715 20.3318" stroke="#FFAD1E" stroke-width="1.72545" stroke-linecap="round" stroke-linejoin="round"/>
<path d="M37.7546 9.26828C40.3611 10.6773 43.1384 10.5908 43.9578 9.07499C44.7772 7.55919 43.3285 5.18813 40.722 3.77909C38.1154 2.37004 35.3382 2.45658 34.5188 3.97238C33.6993 5.48818 35.1481 7.85923 37.7546 9.26828Z" fill="#FFE5B8"/>
<path d="M33.4609 17.2111C36.0674 18.6202 38.8447 18.5337 39.6641 17.0179C40.4835 15.5021 39.0348 13.131 36.4283 11.722C33.8217 10.3129 31.0445 10.3995 30.2251 11.9152C29.4056 13.431 30.8544 15.8021 33.4609 17.2111Z" fill="#FFE5B8"/>
<path d="M35.1998 13.9944C37.8064 15.4034 40.7663 14.9791 41.8109 13.0465C42.8556 11.114 41.5895 8.40517 38.983 6.99613C36.3764 5.58708 33.4165 6.01143 32.3719 7.94394C31.3272 9.87645 32.5933 12.5853 35.1998 13.9944Z" fill="#FFE5B8"/>
<path d="M38.3376 8.37074L38.262 8.32983" stroke="#FFAD1E" stroke-width="1.84322" stroke-linecap="round" stroke-linejoin="round"/>
<path d="M38.3381 8.36976C38.3133 8.35632 38.2873 8.3423 38.2619 8.32994" stroke="#FFAD1E" stroke-width="1.84322" stroke-linecap="round" stroke-linejoin="round"/>
<path d="M29.7358 12.1145C30.0525 13.9577 31.4808 15.8557 33.6557 17.0314" stroke="#FFAD1E" stroke-width="1.72545" stroke-linecap="round" stroke-linejoin="round"/>
<path d="M33.6569 17.0294C36.1686 18.4193 38.7224 18.5273 39.3119 17.4393C39.9435 16.2736 38.7042 14.1397 35.9967 12.7012" stroke="#FFAD1E" stroke-width="1.72545" stroke-linecap="round" stroke-linejoin="round"/>
<path d="M35.9977 12.6991C38.5095 14.089 41.0632 14.197 41.6528 13.109C42.2844 11.9432 41.0451 9.80937 38.3375 8.37085" stroke="#FFAD1E" stroke-width="1.72545" stroke-linecap="round" stroke-linejoin="round"/>
<path d="M34.4182 3.45279C36.1337 2.70816 38.504 2.86361 40.6789 4.03934" stroke="#FFAD1E" stroke-width="1.72545" stroke-linecap="round" stroke-linejoin="round"/>
<path d="M38.3393 8.36753C40.851 9.75745 43.4048 9.86543 43.9943 8.77748C44.6259 7.61169 43.3866 5.47782 40.6791 4.03931" stroke="#FFAD1E" stroke-width="1.72545" stroke-linecap="round" stroke-linejoin="round"/>
</g>
<g clip-path="url(#clip2_3573_58312)">
<path d="M59.0527 14.447L55.8715 20.3318" stroke="#FFAD1E" stroke-width="1.72545" stroke-linecap="round" stroke-linejoin="round"/>
<path d="M61.7546 9.26828C64.3611 10.6773 67.1384 10.5908 67.9578 9.07499C68.7772 7.55919 67.3285 5.18813 64.722 3.77909C62.1154 2.37004 59.3382 2.45658 58.5188 3.97238C57.6993 5.48818 59.1481 7.85923 61.7546 9.26828Z" fill="#FFE5B8"/>
<path d="M57.4609 17.2111C60.0674 18.6202 62.8447 18.5337 63.6641 17.0179C64.4835 15.5021 63.0348 13.131 60.4283 11.722C57.8217 10.3129 55.0445 10.3995 54.2251 11.9152C53.4056 13.431 54.8544 15.8021 57.4609 17.2111Z" fill="#FFE5B8"/>
<path d="M59.1998 13.9944C61.8064 15.4034 64.7663 14.9791 65.8109 13.0465C66.8556 11.114 65.5895 8.40517 62.983 6.99613C60.3764 5.58708 57.4165 6.01143 56.3719 7.94394C55.3272 9.87645 56.5933 12.5853 59.1998 13.9944Z" fill="#FFE5B8"/>
<path d="M62.3376 8.37074L62.262 8.32983" stroke="#FFAD1E" stroke-width="1.84322" stroke-linecap="round" stroke-linejoin="round"/>
<path d="M62.3381 8.36976C62.3133 8.35632 62.2873 8.3423 62.2619 8.32994" stroke="#FFAD1E" stroke-width="1.84322" stroke-linecap="round" stroke-linejoin="round"/>
<path d="M53.7358 12.1145C54.0525 13.9577 55.4808 15.8557 57.6557 17.0314" stroke="#FFAD1E" stroke-width="1.72545" stroke-linecap="round" stroke-linejoin="round"/>
<path d="M57.6569 17.0294C60.1686 18.4193 62.7224 18.5273 63.3119 17.4393C63.9435 16.2736 62.7042 14.1397 59.9967 12.7012" stroke="#FFAD1E" stroke-width="1.72545" stroke-linecap="round" stroke-linejoin="round"/>
<path d="M59.9977 12.6991C62.5095 14.089 65.0632 14.197 65.6528 13.109C66.2844 11.9432 65.0451 9.80937 62.3375 8.37085" stroke="#FFAD1E" stroke-width="1.72545" stroke-linecap="round" stroke-linejoin="round"/>
<path d="M58.4182 3.45279C60.1337 2.70816 62.504 2.86361 64.6789 4.03934" stroke="#FFAD1E" stroke-width="1.72545" stroke-linecap="round" stroke-linejoin="round"/>
<path d="M62.3393 8.36753C64.851 9.75745 67.4048 9.86543 67.9943 8.77748C68.6259 7.61169 67.3866 5.47782 64.6791 4.03931" stroke="#FFAD1E" stroke-width="1.72545" stroke-linecap="round" stroke-linejoin="round"/>
</g>
<g clip-path="url(#clip3_3573_58312)">
<path d="M83.0527 14.447L79.8715 20.3318" stroke="#FFAD1E" stroke-width="1.72545" stroke-linecap="round" stroke-linejoin="round"/>
<path d="M85.7546 9.26828C88.3611 10.6773 91.1384 10.5908 91.9578 9.07499C92.7772 7.55919 91.3285 5.18813 88.722 3.77909C86.1154 2.37004 83.3382 2.45658 82.5188 3.97238C81.6993 5.48818 83.1481 7.85923 85.7546 9.26828Z" fill="#FFE5B8"/>
<path d="M81.4609 17.2111C84.0674 18.6202 86.8447 18.5337 87.6641 17.0179C88.4835 15.5021 87.0348 13.131 84.4283 11.722C81.8217 10.3129 79.0445 10.3995 78.2251 11.9152C77.4056 13.431 78.8544 15.8021 81.4609 17.2111Z" fill="#FFE5B8"/>
<path d="M83.1998 13.9944C85.8064 15.4034 88.7663 14.9791 89.8109 13.0465C90.8556 11.114 89.5895 8.40517 86.983 6.99613C84.3764 5.58708 81.4165 6.01143 80.3719 7.94394C79.3272 9.87645 80.5933 12.5853 83.1998 13.9944Z" fill="#FFE5B8"/>
<path d="M86.3376 8.37074L86.262 8.32983" stroke="#FFAD1E" stroke-width="1.84322" stroke-linecap="round" stroke-linejoin="round"/>
<path d="M86.3381 8.36976C86.3133 8.35632 86.2873 8.3423 86.2619 8.32994" stroke="#FFAD1E" stroke-width="1.84322" stroke-linecap="round" stroke-linejoin="round"/>
<path d="M77.7358 12.1145C78.0525 13.9577 79.4808 15.8557 81.6557 17.0314" stroke="#FFAD1E" stroke-width="1.72545" stroke-linecap="round" stroke-linejoin="round"/>
<path d="M81.6569 17.0294C84.1686 18.4193 86.7224 18.5273 87.3119 17.4393C87.9435 16.2736 86.7042 14.1397 83.9967 12.7012" stroke="#FFAD1E" stroke-width="1.72545" stroke-linecap="round" stroke-linejoin="round"/>
<path d="M83.9977 12.6991C86.5095 14.089 89.0632 14.197 89.6528 13.109C90.2844 11.9432 89.0451 9.80937 86.3375 8.37085" stroke="#FFAD1E" stroke-width="1.72545" stroke-linecap="round" stroke-linejoin="round"/>
<path d="M82.4182 3.45279C84.1337 2.70816 86.504 2.86361 88.6789 4.03934" stroke="#FFAD1E" stroke-width="1.72545" stroke-linecap="round" stroke-linejoin="round"/>
<path d="M86.3393 8.36753C88.851 9.75745 91.4048 9.86543 91.9943 8.77748C92.6259 7.61169 91.3866 5.47782 88.6791 4.03931" stroke="#FFAD1E" stroke-width="1.72545" stroke-linecap="round" stroke-linejoin="round"/>
</g>
<g clip-path="url(#clip4_3573_58312)">
<path d="M107.053 14.447L103.871 20.3318" stroke="#FFAD1E" stroke-width="1.72545" stroke-linecap="round" stroke-linejoin="round"/>
<path d="M109.755 9.26828C112.361 10.6773 115.138 10.5908 115.958 9.07499C116.777 7.55919 115.329 5.18813 112.722 3.77909C110.115 2.37004 107.338 2.45658 106.519 3.97238C105.699 5.48818 107.148 7.85923 109.755 9.26828Z" fill="#FFE5B8"/>
<path d="M105.461 17.2111C108.067 18.6202 110.845 18.5337 111.664 17.0179C112.484 15.5021 111.035 13.131 108.428 11.722C105.822 10.3129 103.044 10.3995 102.225 11.9152C101.406 13.431 102.854 15.8021 105.461 17.2111Z" fill="#FFE5B8"/>
<path d="M107.2 13.9944C109.806 15.4034 112.766 14.9791 113.811 13.0465C114.856 11.114 113.589 8.40517 110.983 6.99613C108.376 5.58708 105.417 6.01143 104.372 7.94394C103.327 9.87645 104.593 12.5853 107.2 13.9944Z" fill="#FFE5B8"/>
<path d="M110.338 8.37074L110.262 8.32983" stroke="#FFAD1E" stroke-width="1.84322" stroke-linecap="round" stroke-linejoin="round"/>
<path d="M110.338 8.36976C110.313 8.35632 110.287 8.3423 110.262 8.32994" stroke="#FFAD1E" stroke-width="1.84322" stroke-linecap="round" stroke-linejoin="round"/>
<path d="M101.736 12.1145C102.052 13.9577 103.481 15.8557 105.656 17.0314" stroke="#FFAD1E" stroke-width="1.72545" stroke-linecap="round" stroke-linejoin="round"/>
<path d="M105.657 17.0294C108.169 18.4193 110.722 18.5273 111.312 17.4393C111.944 16.2736 110.704 14.1397 107.997 12.7012" stroke="#FFAD1E" stroke-width="1.72545" stroke-linecap="round" stroke-linejoin="round"/>
<path d="M107.998 12.6991C110.509 14.089 113.063 14.197 113.653 13.109C114.284 11.9432 113.045 9.80937 110.338 8.37085" stroke="#FFAD1E" stroke-width="1.72545" stroke-linecap="round" stroke-linejoin="round"/>
<path d="M106.418 3.45279C108.134 2.70816 110.504 2.86361 112.679 4.03934" stroke="#FFAD1E" stroke-width="1.72545" stroke-linecap="round" stroke-linejoin="round"/>
<path d="M110.339 8.36753C112.851 9.75745 115.405 9.86543 115.994 8.77748C116.626 7.61169 115.387 5.47782 112.679 4.03931" stroke="#FFAD1E" stroke-width="1.72545" stroke-linecap="round" stroke-linejoin="round"/>
</g>
<defs>
<clipPath id="clip0_3573_58312">
<rect width="12.7981" height="20.3639" fill="white" transform="translate(11.2163 0.0385742) rotate(28.3949)"/>
</clipPath>
<clipPath id="clip1_3573_58312">
<rect width="12.7981" height="20.3639" fill="white" transform="translate(35.2163 0.0385742) rotate(28.3949)"/>
</clipPath>
<clipPath id="clip2_3573_58312">
<rect width="12.7981" height="20.3639" fill="white" transform="translate(59.2163 0.0385742) rotate(28.3949)"/>
</clipPath>
<clipPath id="clip3_3573_58312">
<rect width="12.7981" height="20.3639" fill="white" transform="translate(83.2163 0.0385742) rotate(28.3949)"/>
</clipPath>
<clipPath id="clip4_3573_58312">
<rect width="12.7981" height="20.3639" fill="white" transform="translate(107.216 0.0385742) rotate(28.3949)"/>
</clipPath>
</defs>
</svg>
