<svg width="25" height="26" viewBox="0 0 25 26" fill="none" xmlns="http://www.w3.org/2000/svg">
<path d="M21.1213 8.06175V10.7531H3.87988V8.06175C3.87988 6.98455 4.75358 6.11133 5.83078 6.11133H19.1708C20.248 6.11133 21.1213 6.98455 21.1213 8.06175Z" fill="#C9CDD2" stroke="#24282D" stroke-linecap="round" stroke-linejoin="round"/>
<path d="M21.1213 10.752V20.2375C21.1213 21.3147 20.248 22.1879 19.1708 22.1879H5.83078C4.75358 22.1879 3.87988 21.3147 3.87988 20.2375V10.752H21.1213Z" fill="#F7F8F9" stroke="#24282D" stroke-linecap="round" stroke-linejoin="round"/>
<path d="M7.87695 5.17188L8.81514 6.11054" stroke="#24282D" stroke-linecap="round" stroke-linejoin="round"/>
<path d="M8.81543 6.11054L9.7541 5.17188" stroke="#24282D" stroke-linecap="round" stroke-linejoin="round"/>
<path d="M7.877 5.17183C7.35871 4.65353 7.35871 3.81327 7.877 3.29497C8.3953 2.77668 9.23556 2.77668 9.75386 3.29497C10.2722 3.81327 10.2722 4.65353 9.75386 5.17183" stroke="#24282D" stroke-linecap="round" stroke-linejoin="round"/>
<path d="M15.2471 5.17188L16.1857 6.11054" stroke="#24282D" stroke-linecap="round" stroke-linejoin="round"/>
<path d="M16.1855 6.11054L17.1242 5.17188" stroke="#24282D" stroke-linecap="round" stroke-linejoin="round"/>
<path d="M15.2471 5.17183C14.7288 4.65353 14.7288 3.81327 15.2471 3.29497C15.7654 2.77668 16.6057 2.77668 17.124 3.29497C17.6423 3.81327 17.6423 4.65353 17.124 5.17183" stroke="#24282D" stroke-linecap="round" stroke-linejoin="round"/>
<path d="M11.4743 17.9668L10.1611 20.0796" stroke="#24282D" stroke-linecap="round" stroke-linejoin="round"/>
<path d="M13.7056 13.127C12.6709 12.6689 11.6014 12.818 11.3167 13.4605C11.1925 13.7413 11.2388 14.07 11.417 14.3896C11.0363 14.5276 10.7305 14.7851 10.5719 15.1429C10.4133 15.5012 10.4286 15.9005 10.582 16.275C10.2256 16.3577 9.95142 16.5444 9.82674 16.8253C9.54252 17.4678 10.1506 18.3597 11.1858 18.8178C12.2205 19.2759 13.29 19.1268 13.5747 18.4844C13.6989 18.2035 13.6526 17.8748 13.4744 17.5552C13.8551 17.4172 14.1609 17.1597 14.3194 16.8019C14.478 16.4436 14.4628 16.0443 14.3094 15.6698C14.6658 15.5871 14.94 15.4004 15.0646 15.1195C15.3489 14.477 14.7408 13.5851 13.7056 13.127Z" fill="#F7F8F9"/>
<path d="M13.009 15.1254L12.9775 15.1113" stroke="#24282D" stroke-linecap="round" stroke-linejoin="round"/>
<path d="M13.0095 15.1249C12.9991 15.1202 12.9883 15.1156 12.9775 15.1113" stroke="#24282D" stroke-linecap="round" stroke-linejoin="round"/>
<path d="M9.63477 16.9219C9.8225 17.6609 10.4636 18.386 11.385 18.794" stroke="#24282D" stroke-linecap="round" stroke-linejoin="round"/>
<path d="M11.3848 18.7924C12.45 19.2768 13.4909 19.2385 13.6954 18.7776C13.9146 18.2836 13.3424 17.4563 12.1964 16.959" stroke="#24282D" stroke-linecap="round" stroke-linejoin="round"/>
<path d="M12.1973 16.9584C13.2625 17.4428 14.3034 17.4046 14.5079 16.9436C14.7271 16.4496 14.1549 15.6223 13.0089 15.125" stroke="#24282D" stroke-linecap="round" stroke-linejoin="round"/>
<path d="M11.2598 13.2527C11.9328 12.8949 12.9011 12.8825 13.8226 13.2905" stroke="#24282D" stroke-linecap="round" stroke-linejoin="round"/>
<path d="M13.0098 15.1224C14.075 15.6068 15.1159 15.5686 15.3204 15.1076C15.5396 14.6137 14.9674 13.7863 13.8214 13.2891" stroke="#24282D" stroke-linecap="round" stroke-linejoin="round"/>
</svg>
