<svg width="25" height="26" viewBox="0 0 25 26" fill="none" xmlns="http://www.w3.org/2000/svg">
<g clip-path="url(#clip0_2550_14300)">
<path d="M10.5205 18.0481L8.49802 21.424" stroke="#454C53" stroke-width="1.5" stroke-linecap="round" stroke-linejoin="round"/>
<path d="M15.3484 9.11543L15.2704 9.07324" stroke="#454C53" stroke-width="1.9011" stroke-linecap="round" stroke-linejoin="round"/>
<path d="M15.349 9.11446C15.3234 9.10059 15.2966 9.08613 15.2704 9.07338" stroke="#454C53" stroke-width="1.9011" stroke-linecap="round" stroke-linejoin="round"/>
<path d="M6.47656 12.9768C6.80315 14.8779 8.27628 16.8355 10.5195 18.0482" stroke="#454C53" stroke-width="1.5" stroke-linecap="round" stroke-linejoin="round"/>
<path d="M10.5208 18.0459C13.1114 19.4795 15.7453 19.5909 16.3534 18.4688C17.0048 17.2664 15.7266 15.0655 12.934 13.5818" stroke="#454C53" stroke-width="1.5" stroke-linecap="round" stroke-linejoin="round"/>
<path d="M12.9352 13.5796C15.5258 15.0132 18.1598 15.1246 18.7678 14.0025C19.4192 12.8001 18.141 10.5992 15.3484 9.11549" stroke="#454C53" stroke-width="1.5" stroke-linecap="round" stroke-linejoin="round"/>
<path d="M11.306 4.043C13.0754 3.27499 15.5201 3.43532 17.7634 4.64797" stroke="#454C53" stroke-width="1.5" stroke-linecap="round" stroke-linejoin="round"/>
<path d="M15.3501 9.11211C17.9407 10.5457 20.5747 10.6571 21.1827 9.53493C21.8342 8.33253 20.5559 6.13165 17.7634 4.64796" stroke="#454C53" stroke-width="1.5" stroke-linecap="round" stroke-linejoin="round"/>
</g>
<defs>
<clipPath id="clip0_2550_14300">
<rect width="13.2" height="21.0034" fill="white" transform="translate(12.1292 0.521484) rotate(28.3949)"/>
</clipPath>
</defs>
</svg>
