<svg width="25" height="26" viewBox="0 0 25 26" fill="none" xmlns="http://www.w3.org/2000/svg">
<path d="M21.1213 8.06175V10.7531H3.87988V8.06175C3.87988 6.98455 4.75358 6.11133 5.83078 6.11133H19.1708C20.248 6.11133 21.1213 6.98455 21.1213 8.06175Z" fill="#C9CDD2" stroke="#24282D" stroke-width="1.06787" stroke-linecap="round" stroke-linejoin="round"/>
<path d="M21.1213 10.752V20.2375C21.1213 21.3147 20.248 22.1879 19.1708 22.1879H5.83078C4.75358 22.1879 3.87988 21.3147 3.87988 20.2375V10.752H21.1213Z" fill="#F7F8F9" stroke="#24282D" stroke-width="1.06787" stroke-linecap="round" stroke-linejoin="round"/>
<path d="M7.87695 5.17188L8.81514 6.11054" stroke="#24282D" stroke-width="1.06787" stroke-linecap="round" stroke-linejoin="round"/>
<path d="M8.81543 6.11054L9.7541 5.17188" stroke="#24282D" stroke-width="1.06787" stroke-linecap="round" stroke-linejoin="round"/>
<path d="M7.877 5.17183C7.35871 4.65353 7.35871 3.81327 7.877 3.29497C8.3953 2.77668 9.23556 2.77668 9.75386 3.29497C10.2722 3.81327 10.2722 4.65353 9.75386 5.17183" stroke="#24282D" stroke-width="1.06787" stroke-linecap="round" stroke-linejoin="round"/>
<path d="M15.2471 5.17188L16.1857 6.11054" stroke="#24282D" stroke-width="1.06787" stroke-linecap="round" stroke-linejoin="round"/>
<path d="M16.1855 6.11054L17.1242 5.17188" stroke="#24282D" stroke-width="1.06787" stroke-linecap="round" stroke-linejoin="round"/>
<path d="M15.2471 5.17183C14.7288 4.65353 14.7288 3.81327 15.2471 3.29497C15.7654 2.77668 16.6057 2.77668 17.124 3.29497C17.6423 3.81327 17.6423 4.65353 17.124 5.17183" stroke="#24282D" stroke-width="1.06787" stroke-linecap="round" stroke-linejoin="round"/>
<path d="M8.24346 15.2174C8.78351 15.2174 9.2213 14.7796 9.2213 14.2396C9.2213 13.6995 8.78351 13.2617 8.24346 13.2617C7.70342 13.2617 7.26562 13.6995 7.26562 14.2396C7.26562 14.7796 7.70342 15.2174 8.24346 15.2174Z" fill="#24282D"/>
<path d="M12.8265 15.2174C13.3665 15.2174 13.8043 14.7796 13.8043 14.2396C13.8043 13.6995 13.3665 13.2617 12.8265 13.2617C12.2864 13.2617 11.8486 13.6995 11.8486 14.2396C11.8486 14.7796 12.2864 15.2174 12.8265 15.2174Z" fill="#24282D"/>
<path d="M17.4095 15.2174C17.9495 15.2174 18.3873 14.7796 18.3873 14.2396C18.3873 13.6995 17.9495 13.2617 17.4095 13.2617C16.8694 13.2617 16.4316 13.6995 16.4316 14.2396C16.4316 14.7796 16.8694 15.2174 17.4095 15.2174Z" fill="#24282D"/>
<path d="M8.24346 19.2623C8.78351 19.2623 9.2213 18.8245 9.2213 18.2845C9.2213 17.7444 8.78351 17.3066 8.24346 17.3066C7.70342 17.3066 7.26562 17.7444 7.26562 18.2845C7.26562 18.8245 7.70342 19.2623 8.24346 19.2623Z" fill="#24282D"/>
<path d="M12.8265 19.2623C13.3665 19.2623 13.8043 18.8245 13.8043 18.2845C13.8043 17.7444 13.3665 17.3066 12.8265 17.3066C12.2864 17.3066 11.8486 17.7444 11.8486 18.2845C11.8486 18.8245 12.2864 19.2623 12.8265 19.2623Z" fill="#24282D"/>
<path d="M17.4095 19.2623C17.9495 19.2623 18.3873 18.8245 18.3873 18.2845C18.3873 17.7444 17.9495 17.3066 17.4095 17.3066C16.8694 17.3066 16.4316 17.7444 16.4316 18.2845C16.4316 18.8245 16.8694 19.2623 17.4095 19.2623Z" fill="#24282D"/>
</svg>
