<svg width="24" height="25" viewBox="0 0 24 25" fill="none" xmlns="http://www.w3.org/2000/svg">
<path d="M4 6.67647H20M10 17.2647V10.9118M14 17.2647V10.9118M16 21.5H8C6.89543 21.5 6 20.5519 6 19.3824V7.73529C6 7.15052 6.44772 6.67647 7 6.67647H17C17.5523 6.67647 18 7.15052 18 7.73529V19.3824C18 20.5519 17.1046 21.5 16 21.5ZM10 6.67647H14C14.5523 6.67647 15 6.20242 15 5.61765V4.55882C15 3.97405 14.5523 3.5 14 3.5H10C9.44772 3.5 9 3.97405 9 4.55882V5.61765C9 6.20242 9.44772 6.67647 10 6.67647Z" stroke="#454C53" stroke-width="2" stroke-linecap="round" stroke-linejoin="round"/>
</svg>
