<svg width="24" height="24" viewBox="0 0 24 24" fill="none" xmlns="http://www.w3.org/2000/svg">
<g id="Property 1=heart">
<path id="Vector" d="M20.924 7.00553L18.7958 4.9829L15.4063 4.66819L12.9898 6.6644L12.1008 7.08478L10.7558 6.08667L8.41731 4.45801L5.10715 4.95763L3.05811 7.63953L3.26829 10.7636L6.60488 14.4149L11.8067 19.5375H12.358L18.5052 13.2055L21.0538 10.1055L20.9229 7.00553H20.924ZM12.1008 11.8548C10.997 11.8548 10.1023 10.96 10.1023 9.85627C10.1023 8.7525 10.997 7.85776 12.1008 7.85776C13.2045 7.85776 14.0993 8.7525 14.0993 9.85627C14.0993 10.96 13.2045 11.8548 12.1008 11.8548Z" fill="#FFECCC"/>
<path id="Vector (Stroke)" fill-rule="evenodd" clip-rule="evenodd" d="M10.1698 6.01104C8.58262 4.42287 6.00752 4.42265 4.41898 6.01119C2.83081 7.59838 2.83044 10.1736 4.41898 11.7622L5.7605 13.1037L4.77056 14.0936L3.42903 12.7521C1.29397 10.6171 1.2937 7.15541 3.42903 5.02124M3.42903 5.02124C5.5641 2.88634 9.02579 2.88596 11.1599 5.02124C11.1599 5.02119 11.16 5.02129 11.1599 5.02124L12.5014 6.36276L11.5115 7.35271L10.1698 6.01104" fill="#FFAD1E"/>
<path id="Vector (Stroke)_2" fill-rule="evenodd" clip-rule="evenodd" d="M12.5026 6.36328L14.0624 7.92304L13.0724 8.91298L11.5127 7.35323L12.5026 6.36328Z" fill="#FFAD1E"/>
<path id="Vector (Stroke)_3" fill-rule="evenodd" clip-rule="evenodd" d="M9.95166 7.92304L11.5126 6.36328L12.5021 7.35359L10.9412 8.91335L9.95166 7.92304Z" fill="#FFAD1E"/>
<path id="Vector (Stroke)_4" fill-rule="evenodd" clip-rule="evenodd" d="M12.2994 19.0583L19.5813 11.7764L20.5712 12.7663L13.2893 20.0482C12.5806 20.7569 11.4333 20.7569 10.7247 20.0482L4.77051 14.0941L5.76046 13.1041L11.7146 19.0583C11.8766 19.2202 12.1374 19.2202 12.2994 19.0583Z" fill="#FFAD1E"/>
<path id="Vector (Stroke)_5" fill-rule="evenodd" clip-rule="evenodd" d="M19.5812 6.02576C17.994 4.43759 15.4189 4.43737 13.8304 6.02591L12.5026 7.35366L11.5127 6.36371L12.8404 5.03596C14.9755 2.90091 18.4371 2.90064 20.5713 5.03596M20.5715 5.03612C22.7064 7.17124 22.7066 10.6329 20.5712 12.767L19.5815 11.7767C21.1697 10.1896 21.1699 7.61446 19.5814 6.02591L19.5812 6.02576" fill="#FFAD1E"/>
<path id="Vector (Stroke)_6" fill-rule="evenodd" clip-rule="evenodd" d="M13.072 11.0438C13.6607 10.4544 13.6602 9.50068 13.0723 8.9128L14.0623 7.92285C15.1973 9.05782 15.1968 10.8974 14.0626 12.0331C12.9271 13.1701 11.0873 13.1675 9.95201 12.0338L9.95168 12.0335C8.81671 10.8985 8.81718 9.05886 9.95135 7.92318L10.942 8.91247C10.3534 9.50182 10.3538 10.4553 10.9413 11.0432C10.9413 11.0432 10.9414 11.0432 10.9414 11.0433M13.072 11.0438C12.4847 11.632 11.5313 11.6323 10.9414 11.0433L13.072 11.0438Z" fill="#FFAD1E"/>
</g>
</svg>
