<svg width="24" height="24" viewBox="0 0 24 24" fill="none" xmlns="http://www.w3.org/2000/svg">
<g id="Property 1=bang">
<path id="Vector" d="M13.4443 12.7941V4.1692C13.4443 3.21493 14.3265 2.44238 15.4138 2.44238C16.502 2.44238 17.3832 3.21595 17.3832 4.1692V12.7941C17.3832 13.7484 16.501 14.5209 15.4138 14.5209C14.3255 14.5209 13.4443 13.7474 13.4443 12.7941Z" fill="#FFECCC"/>
<path id="Vector_2" d="M6.61719 12.7941V4.1692C6.61719 3.21595 7.49937 2.44238 8.58663 2.44238C9.6749 2.44238 10.5561 3.21595 10.5561 4.1692V12.7941C10.5561 13.7484 9.67388 14.5209 8.58663 14.5209C7.49836 14.5209 6.61719 13.7474 6.61719 12.7941Z" fill="#FFECCC"/>
<path id="Vector_3" d="M15.4145 21.0126C16.385 21.0126 17.1718 20.2258 17.1718 19.2553C17.1718 18.2848 16.385 17.498 15.4145 17.498C14.444 17.498 13.6572 18.2848 13.6572 19.2553C13.6572 20.2258 14.444 21.0126 15.4145 21.0126Z" fill="#FFECCC"/>
<path id="Vector_4" d="M8.79877 21.0126C9.76928 21.0126 10.556 20.2258 10.556 19.2553C10.556 18.2848 9.76928 17.498 8.79877 17.498C7.82826 17.498 7.0415 18.2848 7.0415 19.2553C7.0415 20.2258 7.82826 21.0126 8.79877 21.0126Z" fill="#FFECCC"/>
<path id="Vector (Stroke)" fill-rule="evenodd" clip-rule="evenodd" d="M8.31362 16.317C8.58138 16.0493 9.01552 16.0493 9.28329 16.317L10.6761 17.7099C10.9439 17.9776 10.9439 18.4118 10.6761 18.6795C10.4083 18.9473 9.97421 18.9473 9.70644 18.6795L8.31362 17.2867C8.04585 17.0189 8.04585 16.5848 8.31362 16.317Z" fill="#FFAD1E"/>
<path id="Vector (Stroke)_2" fill-rule="evenodd" clip-rule="evenodd" d="M9.28353 16.317C9.5513 16.5848 9.5513 17.0189 9.28353 17.2867L7.89071 18.6795C7.62294 18.9473 7.18881 18.9473 6.92104 18.6795C6.65327 18.4118 6.65327 17.9776 6.92104 17.7099L8.31386 16.317C8.58163 16.0493 9.01576 16.0493 9.28353 16.317Z" fill="#FFAD1E"/>
<path id="Vector (Stroke)_3" fill-rule="evenodd" clip-rule="evenodd" d="M7.89069 17.7096C8.15845 17.9774 8.15845 18.4115 7.89069 18.6793C7.38895 19.181 7.38895 19.9935 7.89069 20.4953C8.39242 20.997 9.20492 20.997 9.70666 20.4953C10.2084 19.9935 10.2084 19.181 9.70666 18.6793C9.43889 18.4115 9.43889 17.9774 9.70666 17.7096C9.97443 17.4418 10.4086 17.4418 10.6763 17.7096C11.7136 18.7469 11.7136 20.4277 10.6763 21.4649C9.63906 22.5022 7.95829 22.5022 6.92102 21.4649C5.88375 20.4277 5.88375 18.7469 6.92102 17.7096C7.18879 17.4418 7.62292 17.4418 7.89069 17.7096Z" fill="#FFAD1E"/>
<path id="Vector (Stroke)_4" fill-rule="evenodd" clip-rule="evenodd" d="M8.79865 3.12816C8.00236 3.12816 7.51487 3.67586 7.51487 4.16931V12.7942C7.51487 13.2871 8.00186 13.8354 8.79865 13.8354C9.59495 13.8354 10.0824 13.2877 10.0824 12.7942V4.16931C10.0824 3.67642 9.59545 3.12816 8.79865 3.12816ZM6.14355 4.16931C6.14355 2.75423 7.42044 1.75684 8.79865 1.75684C10.1784 1.75684 11.4538 2.7557 11.4538 4.16931V12.7942C11.4538 14.2093 10.1769 15.2067 8.79865 15.2067C7.41891 15.2067 6.14355 14.2078 6.14355 12.7942V4.16931Z" fill="#FFAD1E"/>
<path id="Vector (Stroke)_5" fill-rule="evenodd" clip-rule="evenodd" d="M14.9015 16.317C15.1693 16.0493 15.6034 16.0493 15.8712 16.317L17.264 17.7099C17.5318 17.9776 17.5318 18.4118 17.264 18.6795C16.9962 18.9473 16.5621 18.9473 16.2943 18.6795L14.9015 17.2867C14.6337 17.0189 14.6337 16.5848 14.9015 16.317Z" fill="#FFAD1E"/>
<path id="Vector (Stroke)_6" fill-rule="evenodd" clip-rule="evenodd" d="M15.8709 16.317C16.1387 16.5848 16.1387 17.0189 15.8709 17.2867L14.4781 18.6795C14.2103 18.9473 13.7762 18.9473 13.5084 18.6795C13.2407 18.4118 13.2407 17.9776 13.5084 17.7099L14.9013 16.317C15.169 16.0493 15.6032 16.0493 15.8709 16.317Z" fill="#FFAD1E"/>
<path id="Vector (Stroke)_7" fill-rule="evenodd" clip-rule="evenodd" d="M14.4781 17.7096C14.7459 17.9774 14.7459 18.4115 14.4781 18.6793C13.9764 19.181 13.9764 19.9935 14.4781 20.4953C14.9798 20.997 15.7923 20.997 16.2941 20.4953C16.7958 19.9935 16.7958 19.181 16.2941 18.6793C16.0263 18.4115 16.0263 17.9774 16.2941 17.7096C16.5618 17.4418 16.996 17.4418 17.2637 17.7096C18.301 18.7469 18.301 20.4277 17.2637 21.4649C16.2265 22.5022 14.5457 22.5022 13.5084 21.4649C12.4712 20.4277 12.4712 18.7469 13.5084 17.7096C13.7762 17.4418 14.2103 17.4418 14.4781 17.7096Z" fill="#FFAD1E"/>
<path id="Vector (Stroke)_8" fill-rule="evenodd" clip-rule="evenodd" d="M15.3861 3.12816C14.5898 3.12816 14.1023 3.67586 14.1023 4.16931V12.7942C14.1023 13.2871 14.5893 13.8354 15.3861 13.8354C16.1824 13.8354 16.6698 13.2877 16.6698 12.7942V4.16931C16.6698 3.67642 16.1828 3.12816 15.3861 3.12816ZM12.731 4.16931C12.731 2.75423 14.0078 1.75684 15.3861 1.75684C16.7658 1.75684 18.0412 2.7557 18.0412 4.16931V12.7942C18.0412 14.2093 16.7643 15.2067 15.3861 15.2067C14.0063 15.2067 12.731 14.2078 12.731 12.7942V4.16931Z" fill="#FFAD1E"/>
</g>
</svg>
