<svg width="24" height="24" viewBox="0 0 24 24" fill="none" xmlns="http://www.w3.org/2000/svg">
<g id="Property 1=honey">
<path id="Vector" d="M17.2856 8.34242C20.3669 11.1695 20.4978 15.8617 17.5784 18.8229C14.6591 21.7841 9.79529 21.8935 6.71399 19.0664C3.63377 16.2392 3.50185 11.5471 6.4212 8.58588L11.2517 2.94238L17.2856 8.3435V8.34242Z" fill="#FFECCC"/>
<path id="Vector (Stroke)" fill-rule="evenodd" clip-rule="evenodd" d="M11.2279 2.40022C11.4943 2.12008 11.9374 2.10896 12.2176 2.37538L17.6273 7.52017C17.9074 7.78659 17.9185 8.22966 17.6521 8.5098C17.3857 8.78994 16.9426 8.80107 16.6625 8.53464L11.2528 3.38986C10.9726 3.12344 10.9615 2.68036 11.2279 2.40022Z" fill="#FFAD1E"/>
<path id="Vector (Stroke)_2" fill-rule="evenodd" clip-rule="evenodd" d="M12.2178 2.37538C12.498 2.6418 12.5091 3.08488 12.2427 3.36502L7.09786 8.77471C6.83144 9.05485 6.38837 9.06597 6.10823 8.79955C5.82809 8.53313 5.81697 8.09005 6.08339 7.80991L11.2282 2.40022C11.4946 2.12008 11.9377 2.10896 12.2178 2.37538Z" fill="#FFAD1E"/>
<path id="Vector (Stroke)_3" fill-rule="evenodd" clip-rule="evenodd" d="M16.6379 7.54578C16.9043 7.26561 17.3474 7.25444 17.6276 7.52084C20.8959 10.6284 21.0247 15.7969 17.9174 19.065C14.8099 22.3333 9.64133 22.4621 6.37332 19.3548L6.37322 19.3547C3.10515 16.2462 2.97603 11.0777 6.08355 7.8106C6.34999 7.53048 6.79307 7.51939 7.07319 7.78583C7.35331 8.05227 7.3644 8.49535 7.09796 8.77547C4.52341 11.4822 4.6302 15.7645 7.33801 18.3402C10.046 20.915 14.3283 20.8079 16.9029 18.1003C19.4777 15.3923 19.3706 11.1099 16.6629 8.53542C16.3827 8.26903 16.3716 7.82595 16.6379 7.54578Z" fill="#FFAD1E"/>
<path id="Vector (Stroke)_4" fill-rule="evenodd" clip-rule="evenodd" d="M16.467 12.2422C16.8536 12.2422 17.167 12.5556 17.167 12.9422C17.167 15.895 15.1548 18.5135 12.4119 18.5135C12.0253 18.5135 11.7119 18.2001 11.7119 17.8135C11.7119 17.4269 12.0253 17.1135 12.4119 17.1135C14.1521 17.1135 15.767 15.3733 15.767 12.9422C15.767 12.5556 16.0804 12.2422 16.467 12.2422Z" fill="#FFAD1E"/>
</g>
</svg>
